<?xml version="1.0" standalone="no"?>
<!DOCTYPE svg PUBLIC "-//W3C//DTD SVG 20010904//EN"
 "http://www.w3.org/TR/2001/REC-SVG-20010904/DTD/svg10.dtd">
<svg version="1.0" xmlns="http://www.w3.org/2000/svg"
 width="64.000000pt" height="64.000000pt" viewBox="0 0 64.000000 64.000000"
 preserveAspectRatio="xMidYMid meet">

<g transform="translate(0.000000,64.000000) scale(0.100000,-0.100000)"
fill="#000000" stroke="none">
<path d="M275 580 c-14 -15 -33 -20 -99 -22 l-81 -3 -3 -252 -2 -253 225 0
225 0 -2 253 -3 252 -81 3 c-66 2 -85 7 -99 22 -10 11 -28 20 -40 20 -12 0
-30 -9 -40 -20z m65 -56 c0 -9 11 -14 30 -14 23 0 30 -4 30 -20 0 -18 -7 -20
-85 -20 -78 0 -85 2 -85 20 0 16 7 20 30 20 18 0 30 5 30 13 0 7 5 18 12 25
14 14 38 -2 38 -24z m-158 -56 l3 -43 130 0 130 0 3 43 c3 34 7 42 23 42 18 0
19 -9 19 -210 l0 -210 -175 0 -175 0 0 210 c0 201 1 210 19 210 16 0 20 -8 23
-42z"/>
<path d="M357 379 c-10 -11 -24 -18 -32 -15 -18 6 -28 -23 -14 -40 9 -11 9
-17 0 -28 -16 -19 -4 -46 17 -39 14 5 15 3 5 -7 -10 -11 -19 -10 -51 4 -37 17
-42 17 -71 2 -17 -9 -31 -21 -31 -26 0 -13 26 -13 51 0 14 8 27 6 50 -6 25
-12 37 -14 55 -5 13 6 31 8 39 4 10 -3 24 3 37 16 11 12 26 20 33 17 18 -7 28
23 14 40 -9 11 -9 17 0 28 14 17 4 46 -14 40 -8 -3 -22 4 -32 15 -22 26 -34
26 -56 0z m51 -66 c5 -17 -26 -29 -40 -15 -6 6 -7 15 -3 22 9 14 37 9 43 -7z"/>
<path d="M180 360 c0 -18 7 -20 55 -20 48 0 55 2 55 20 0 18 -7 20 -55 20 -48
0 -55 -2 -55 -20z"/>
<path d="M180 140 c0 -19 6 -20 146 -20 133 0 145 1 142 18 -3 15 -19 17 -146
20 -137 2 -142 2 -142 -18z"/>
</g>
</svg>
