<?xml version="1.0" standalone="no"?>
<!DOCTYPE svg PUBLIC "-//W3C//DTD SVG 20010904//EN"
 "http://www.w3.org/TR/2001/REC-SVG-20010904/DTD/svg10.dtd">
<svg version="1.0" xmlns="http://www.w3.org/2000/svg"
 width="62.000000pt" height="62.000000pt" viewBox="0 0 62.000000 62.000000"
 preserveAspectRatio="xMidYMid meet">

<g transform="translate(0.000000,62.000000) scale(0.100000,-0.100000)"
fill="#000000" stroke="none">
<path d="M114 561 c-55 -34 -58 -68 -5 -48 41 15 75 -5 101 -59 l21 -42 -57
-113 c-31 -62 -74 -142 -95 -177 -53 -88 -52 -92 24 -92 l63 0 19 53 c10 28
31 79 45 112 l27 60 9 -33 9 -33 23 24 23 25 -25 121 c-15 67 -32 137 -40 155
-27 64 -84 83 -142 47z"/>
<path d="M472 387 l-22 -23 43 -42 43 -42 22 23 c29 31 28 37 -11 75 -39 38
-47 39 -75 9z"/>
<path d="M337 84 l-28 -23 21 -21 c11 -11 30 -20 43 -20 24 0 87 35 87 48 0
16 -13 21 -30 12 -13 -7 -24 -4 -42 9 -23 19 -24 19 -51 -5z"/>
<path d="M230 70 c0 -5 5 -10 11 -10 5 0 7 5 4 10 -3 6 -8 10 -11 10 -2 0 -4
-4 -4 -10z"/>
</g>
</svg>
