<?xml version="1.0" encoding="UTF-8" standalone="no"?>
<svg
   version="1.0"
   width="512.000000pt"
   height="512.000000pt"
   viewBox="0 0 512.000000 512.000000"
   preserveAspectRatio="xMidYMid meet"
   id="svg3"
   sodipodi:docname="Addition_Eye.svg"
   inkscape:version="1.3 (0e150ed6c4, 2023-07-21)"
   inkscape:export-filename="Addition_Eye_16.png"
   inkscape:export-xdpi="2.25"
   inkscape:export-ydpi="2.25"
   xmlns:inkscape="http://www.inkscape.org/namespaces/inkscape"
   xmlns:sodipodi="http://sodipodi.sourceforge.net/DTD/sodipodi-0.dtd"
   xmlns="http://www.w3.org/2000/svg"
   xmlns:svg="http://www.w3.org/2000/svg">
  <defs
     id="defs3" />
  <sodipodi:namedview
     id="namedview3"
     pagecolor="#ffffff"
     bordercolor="#000000"
     borderopacity="0.25"
     inkscape:showpageshadow="2"
     inkscape:pageopacity="0.0"
     inkscape:pagecheckerboard="0"
     inkscape:deskcolor="#d1d1d1"
     inkscape:document-units="pt"
     inkscape:zoom="0.83276367"
     inkscape:cx="-542.77103"
     inkscape:cy="133.89153"
     inkscape:window-width="3440"
     inkscape:window-height="1351"
     inkscape:window-x="-9"
     inkscape:window-y="-9"
     inkscape:window-maximized="1"
     inkscape:current-layer="svg3" />
  <g
     transform="matrix(0.11205413,0,0,-0.11278766,-109.19548,675.02785)"
     fill="#000000"
     stroke="none"
     id="g3">
    <path
       d="m 3121.9973,2631.2149 h -277.4408 c 3.4486,-4.9388 6.978,-9.8147 10.1967,-14.9228 5.1074,-8.1054 9.9191,-16.4232 14.4191,-24.9232 3.125,-6 5.905,-11.4601 8.3796,-16.6242 2.4746,-5.164 4.651,-10.0246 6.5494,-14.8059 1.8984,-4.7812 3.5188,-9.4868 4.9153,-14.3383 1.3965,-4.8516 2.5609,-9.8465 3.5296,-15.2215 0.9688,-5.375 1.7509,-11.1298 2.3662,-17.4813 0.6152,-6.3516 1.0628,-13.3107 1.3987,-21.0919 0.6719,-15.5625 0.8628,-34.4314 0.8628,-58.4314 0,-23.9999 -0.1909,-42.8818 -0.8628,-58.4443 -0.3359,-7.7812 -0.7835,-14.7273 -1.3987,-21.0789 -0.6153,-6.3515 -1.3974,-12.1063 -2.3662,-17.4813 -0.9687,-5.375 -2.1331,-10.37 -3.5296,-15.2215 -1.3965,-4.8516 -3.0169,-9.5571 -4.9153,-14.3384 -1.8984,-4.7812 -4.0748,-9.6418 -6.5494,-14.8059 -2.4746,-5.164 -5.2546,-10.6241 -8.3796,-16.6241 -4.375,-8.375 -9.0924,-16.5985 -14.1315,-24.6375 -5.0391,-8.0391 -10.397,-15.9034 -16.0532,-23.5596 -5.6563,-7.6562 -11.6045,-15.1122 -17.8311,-22.3387 -6.2266,-7.2266 -12.7282,-14.225 -19.4782,-20.975 -6.75,-6.75 -13.7551,-13.2419 -20.9816,-19.4685 -7.2266,-6.2265 -14.6719,-12.1887 -22.3281,-17.845 -7.6562,-5.6562 -15.5179,-11.0136 -23.5569,-16.0527 -8.0391,-5.039 -16.267,-9.7555 -24.6419,-14.1305 -6,-3.125 -11.4644,-5.9024 -16.6284,-8.377 -5.1641,-2.4746 -10.017,-4.6473 -14.7983,-6.5458 -4.7812,-1.8984 -9.4891,-3.5258 -14.3407,-4.9223 -4.8515,-1.3965 -9.8546,-2.5639 -15.2296,-3.5326 -5.375,-0.9688 -11.1266,-1.7356 -17.4781,-2.3508 -6.3516,-0.6152 -13.305,-1.0797 -21.0862,-1.4156 -15.5625,-0.6719 -34.4347,-0.8572 -58.4347,-0.8572 -23.5,0 -42.1239,0.1879 -57.5458,0.8442 -7.7109,0.3281 -14.624,0.779 -20.9424,1.3767 -6.3183,0.5976 -12.0428,1.3483 -17.3866,2.2858 -5.3437,0.9375 -10.2987,2.0551 -15.0858,3.4027 -4.7871,1.3477 -9.4047,2.9254 -14.0531,4.7535 -4.6484,1.8281 -9.3345,3.9071 -14.2623,6.286 -4.9277,2.3789 -10.1014,5.0524 -15.7264,8.0523 -8.3749,4.375 -16.6523,9.1433 -24.7988,14.2605 -8.1464,5.1171 -16.1523,10.5831 -23.9883,16.3644 -7.8359,5.7812 -15.4991,11.8804 -22.9425,18.2476 -7.4433,6.3672 -14.6664,13.009 -21.6352,19.884 -6.9687,6.875 -13.6805,13.9821 -20.0926,21.2867 -6.4121,7.3047 -12.5283,14.7994 -18.3017,22.4557 -5.7735,7.6562 -11.2097,15.474 -16.2624,23.4036 -5.0527,7.9297 -9.7247,15.9801 -13.9747,24.1051 -3.125,6 -5.9049,11.4601 -8.3795,16.6241 -2.4746,5.1641 -4.6379,10.0247 -6.5363,14.8059 -1.8985,4.7813 -3.532,9.4868 -4.9284,14.3384 -1.3965,4.8515 -2.5609,9.8465 -3.5296,15.2215 -0.9688,5.375 -1.7379,11.1298 -2.3531,17.4813 -0.6153,6.3516 -1.0759,13.2977 -1.4119,21.0789 -0.6718,15.5625 -0.8628,34.4444 -0.8628,58.4443 0,24 0.191,42.8689 0.8628,58.4314 0.336,7.7812 0.7966,14.7403 1.4119,21.0919 0.6152,6.3515 1.3843,12.1063 2.3531,17.4813 0.9687,5.375 2.1331,10.3699 3.5296,15.2215 1.3964,4.8515 3.0299,9.5571 4.9284,14.3383 1.8984,4.7813 4.0617,9.6419 6.5363,14.8059 2.4746,5.1641 5.2545,10.6242 8.3795,16.6242 5.625,10.75 11.784,21.205 18.4325,31.3261 1.9305,2.939 4.1969,5.6378 6.2095,8.5199 h -276.7087 c -2.7023,-7.5167 -5.4937,-15.0536 -7.7913,-22.4296 -3.3789,-10.8477 -6.3269,-21.6046 -8.8894,-32.4171 -2.5625,-10.8125 -4.733,-21.6831 -6.5494,-32.7808 -1.8164,-11.0976 -3.2779,-22.4154 -4.4185,-34.1185 -1.1406,-11.7031 -1.9617,-23.7884 -2.4969,-36.4173 -0.5352,-12.6289 -0.7844,-25.8022 -0.7844,-39.6772 0,-13.875 0.2492,-27.0483 0.7844,-39.6772 0.5352,-12.6289 1.3563,-24.7141 2.4969,-36.4173 1.1406,-11.7031 2.6021,-23.0208 4.4185,-34.1184 1.8164,-11.0977 3.9869,-21.9813 6.5494,-32.7938 2.5625,-10.8125 5.5105,-21.5565 8.8894,-32.4041 3.3789,-10.8477 7.186,-21.7985 11.4517,-33.0016 4.2656,-11.2031 8.9873,-22.6552 14.2099,-34.5341 5.2227,-11.8789 10.9406,-24.1787 17.1905,-37.0537 4.4375,-8.875 9.1845,-17.6622 14.2231,-26.3519 5.0386,-8.6896 10.3804,-17.2769 15.9878,-25.7544 5.6074,-8.4775 11.491,-16.8536 17.635,-25.0921 6.1441,-8.2385 12.5422,-16.3402 19.1907,-24.3128 6.6484,-7.9727 13.5472,-15.8147 20.6678,-23.4946 7.1206,-7.68 14.4669,-15.1992 22.0274,-22.5595 7.5606,-7.3604 15.3272,-14.5586 23.2955,-21.5725 7.9682,-7.0139 16.1413,-13.8409 24.485,-20.4815 8.3438,-6.6406 16.857,-13.0981 25.544,-19.3385 8.687,-6.2405 17.5394,-12.2654 26.5374,-18.0788 8.9981,-5.8135 18.1496,-11.4074 27.4265,-16.767 9.2768,-5.3597 18.6873,-10.4855 28.2107,-15.3644 9.5234,-4.8789 19.1528,-9.5124 28.8906,-13.8838 9.7377,-4.3713 19.5719,-8.4883 29.4919,-12.3252 9.9199,-3.8369 19.9319,-7.4002 30.0017,-10.6759 10.0698,-3.2756 20.2064,-6.2609 30.3939,-8.9484 9.125,-2.5 19.503,-4.6722 30.8253,-6.5198 11.3222,-1.8477 23.5847,-3.3685 36.4988,-4.5717 12.914,-1.2031 26.4679,-2.083 40.3683,-2.6494 13.9004,-0.5664 28.1526,-0.8158 42.4338,-0.7533 14.2812,0.062 28.5994,0.4333 42.656,1.1169 14.0567,0.6836 27.8477,1.6773 41.0743,2.9742 13.2265,1.2969 25.8843,2.8901 37.6754,4.7924 11.791,1.9024 22.7093,4.1107 32.4593,6.6107 12.75,3.3125 25.3792,7.096 37.8584,11.3252 12.4792,4.2293 24.8155,8.9092 36.9825,14.0137 12.167,5.1045 24.1627,10.634 35.9759,16.5722 11.8133,5.9382 23.4468,12.2834 34.8648,19.0139 11.4179,6.7304 22.6286,13.8444 33.6097,21.3256 10.9812,7.4812 21.7343,15.3302 32.2372,23.5206 10.5029,8.1905 20.7506,16.7275 30.7338,25.5856 9.9831,8.8582 19.6909,18.0365 29.1127,27.5208 9.4219,9.4844 18.5551,19.27 27.3742,29.3391 8.819,10.069 17.3299,20.4151 25.5047,31.0274 8.1748,10.6123 16.0156,21.4849 23.5046,32.5989 7.489,11.114 14.6251,22.4794 21.3869,34.0536 6.7617,11.5742 13.1454,23.3594 19.1383,35.3523 5.9929,11.9929 11.6027,24.1901 16.7853,36.5602 5.1826,12.3701 9.9445,24.9193 14.2753,37.6251 4.3308,12.7058 8.2233,25.5603 11.6608,38.5603 2.375,8.875 4.4544,19.1111 6.2357,30.365 1.7812,11.2539 3.2702,23.5292 4.4577,36.4823 1.1875,12.9531 2.0731,26.5877 2.6668,40.5603 0.5938,13.9727 0.889,28.2869 0.889,42.5994 0,14.3125 -0.2952,28.6268 -0.889,42.5994 -0.5937,13.9727 -1.4793,27.6073 -2.6668,40.5604 -1.1875,12.9531 -2.6765,25.2283 -4.4577,36.4822 -1.7813,11.2539 -3.8607,21.4771 -6.2357,30.3521 -3.4375,13 -7.33,25.8674 -11.6608,38.5732 -1.0673,3.1313 -2.3965,6.1614 -3.5165,9.2732 z"
       style=""
       id="path8" />
    <path
       d="m 2539.9679,3164.01 c -18.7694,-0.1816 -37.145,-0.6862 -54.7856,-1.5378 -17.6405,-0.8516 -34.5403,-2.0472 -50.341,-3.5882 -15.8007,-1.541 -30.51,-3.4289 -43.7599,-5.6789 -31.6249,-5.2499 -63.3982,-11.7862 -95.273,-19.5693 -31.8748,-7.7832 -63.8501,-16.8097 -95.8499,-27.0675 -31.9999,-10.2578 -64.0304,-21.741 -96.0303,-34.4148 -31.9998,-12.6737 -63.9661,-26.5399 -95.8409,-41.5711 -31.8748,-15.0312 -63.6571,-31.2266 -95.282,-48.5566 -31.6248,-17.33 -63.0945,-35.801 -94.3444,-55.3712 -31.2498,-19.5702 -62.2783,-40.243 -93.0281,-61.9948 -30.7499,-21.7519 -61.2265,-44.5828 -91.3514,-68.4577 -13.4999,-10.7499 -28.3534,-23.1568 -44.0213,-36.6762 -15.6679,-13.5195 -32.1463,-28.1472 -48.8806,-43.3502 -28.5481,-25.9358 -57.2127,-53.3864 -84.5268,-79.946 l 527.6344,-0.2412 260.1435,-0.1206 653.451,-0.3016 260.8196,-0.1206 528.3106,-0.2412 c -28.0876,27.3032 -57.7896,55.6311 -87.2855,82.3783 -16.8515,15.2812 -33.4502,29.9944 -49.2412,43.6115 -15.7909,13.6171 -30.7751,26.133 -44.4,37.008 -27.7499,21.9999 -55.8257,43.1311 -84.1752,63.3517 -28.3495,20.2206 -56.9712,39.5314 -85.807,57.9141 -28.8358,18.3827 -57.8873,35.8294 -87.0961,52.3157 -29.2089,16.4862 -58.5742,32.0152 -88.0428,46.5464 -29.4686,14.5312 -59.0407,28.0686 -88.6557,40.5861 -29.6151,12.5175 -59.278,24.0097 -88.9263,34.455 -29.6483,10.4452 -59.2859,19.8486 -88.8541,28.163 -29.5682,8.3144 -59.0646,15.5451 -88.4394,21.67 -13.7499,2.875 -28.8915,5.4668 -45.0672,7.7695 -16.1757,2.3027 -33.388,4.3197 -51.2786,6.0306 -17.8905,1.711 -36.4591,3.1219 -55.3535,4.2215 -18.8944,1.0996 -38.1134,1.8832 -57.3008,2.3519 -19.1874,0.4688 -38.3511,0.6138 -57.1205,0.4322 z"
       style="fill:#ffffff;fill-opacity:0;stroke:#000000;stroke-width:150.47994439;stroke-dasharray:none"
       id="path6" />
    <path
       d="m 2382.1758,3343.3735 c -36,-5 -108,-19 -160,-31 -393,-90 -801,-356 -1123,-733 -109.99999,-130 -109.99999,-164 4,-297 333,-388 748,-651 1169,-740.0001 142,-30 389,-33 535,-5 419,78 854,350.0001 1194,745.0001 114,133 114,167 4,297 -334,391 -760,662 -1171,745 -112,22 -354,32 -452,19 z m 405,-265 c 235,-49 478,-169 700,-345 109,-87 305,-279 305,-300 0,-21 -196,-213 -305,-300 -243,-193 -509,-317 -765,-355 -360,-55 -745,69 -1107,357 -108,86 -303,278 -303,298 0,20 195,212 303,298 241,191 504,315 757,357 106,18 305,13 415,-10 z"
       id="path2" />
  </g>
</svg>
