<?xml version="1.0" encoding="UTF-8" standalone="no"?>
<!-- Created with Inkscape (http://www.inkscape.org/) -->

<svg
   width="1024"
   height="1024"
   viewBox="0 0 1024 1024"
   version="1.1"
   id="svg1"
   xml:space="preserve"
   inkscape:version="1.3 (0e150ed6c4, 2023-07-21)"
   sodipodi:docname="eom-coastalmap-logo.svg"
   xmlns:inkscape="http://www.inkscape.org/namespaces/inkscape"
   xmlns:sodipodi="http://sodipodi.sourceforge.net/DTD/sodipodi-0.dtd"
   xmlns="http://www.w3.org/2000/svg"
   xmlns:svg="http://www.w3.org/2000/svg"><sodipodi:namedview
     id="namedview1"
     pagecolor="#ffffff"
     bordercolor="#000000"
     borderopacity="0.25"
     inkscape:showpageshadow="2"
     inkscape:pageopacity="0.0"
     inkscape:pagecheckerboard="true"
     inkscape:deskcolor="#d1d1d1"
     inkscape:document-units="px"
     inkscape:zoom="1.4142136"
     inkscape:cx="706.39967"
     inkscape:cy="428.15315"
     inkscape:window-width="3440"
     inkscape:window-height="1369"
     inkscape:window-x="-8"
     inkscape:window-y="-8"
     inkscape:window-maximized="1"
     inkscape:current-layer="g2739" /><defs
     id="defs1" /><g
     inkscape:label="Layer 1"
     inkscape:groupmode="layer"
     id="layer1"><g
       id="g2739"><ellipse
         style="fill:#ffffff;fill-opacity:1;stroke:#636363;stroke-width:0;stroke-linecap:round"
         id="path2748"
         cx="510.17755"
         cy="503.81357"
         rx="409.06125"
         ry="409.06128" /><path
         style="display:inline;fill:#ecdbc4"
         d="M 478.10049,922.14094 C 218.25913,899.16403 42.938832,655.68634 105.19703,404.2678 165.44242,160.97759 429.31473,25.321563 663.10049,117.45116 877.22836,201.83405 982.78997,444.66538 898.41712,658.7678 842.69698,800.16181 715.97443,898.99038 563.60049,919.88507 c -14.41328,1.97646 -71.59739,3.48523 -85.5,2.25587 z M 407.47457,848.5178 c 2.1304,-3.68297 15.3322,-31.59798 17.61659,-37.25 8.80852,-21.79405 20.2621,-36.86521 39.00933,-51.33033 41.92088,-32.34562 47.54179,-37.96755 58.45769,-58.46828 15.52221,-29.15168 33.30573,-48.48009 54.42756,-59.1558 51.04336,-25.79909 73.50211,-50.81327 87.13146,-97.04559 15.79648,-53.58349 23.27442,-68.38882 46.81347,-92.68448 20.2916,-20.94383 34.31594,-29.60343 76.16982,-47.03256 18.26215,-7.60487 57.94312,-27.40055 62.83102,-31.34457 0.18206,-0.14691 -0.15514,-1.1755 -0.74934,-2.28577 -1.04049,-1.94417 -1.56934,-1.78411 -14.33102,4.33755 -15.90174,7.6279 -31.2445,13.77306 -38.75066,15.52061 -3.025,0.70426 -6.54691,2.09427 -7.82646,3.08891 -1.27956,0.99464 -7.12956,3.67106 -13,5.94761 -55.8034,21.64047 -99.17321,70.99563 -115.51126,131.4527 -15.07189,55.77177 -29.24069,74.28545 -76.37499,99.79546 -34.13316,18.47355 -46.54203,30.19612 -64.25851,60.70454 -11.39371,19.62039 -13.72037,22.7575 -25.99529,35.05026 -9.4051,9.41879 -13.5547,12.7405 -22.48619,18 -25.23263,14.8588 -40.1899,33.70928 -58.37544,73.56994 -3.73372,8.18389 -8.67482,18.10831 -10.98022,22.05427 -4.83844,8.28154 -4.98719,9.0702 -1.94164,10.29437 4.17795,1.67933 5.62163,1.10733 8.12408,-3.21884 z m -43.58998,-14.5 c 1.05616,-1.5125 4.97167,-8.6 8.70115,-15.75 3.72947,-7.15 7.8089,-14.8 9.06539,-17 1.2565,-2.2 3.68777,-7.66955 5.40282,-12.15456 9.09139,-23.77464 30.73589,-49.63417 57.34605,-68.51357 25.96008,-18.41817 35.45991,-28.41908 55.88422,-58.83187 24.0352,-35.78958 31.71487,-42.96994 69.81627,-65.27704 29.88204,-17.49495 46.54877,-37.15193 51.50034,-60.74028 5.02043,-23.91633 18.77424,-59.46467 25.91589,-66.98268 1.82864,-1.925 5.16782,-6.70243 7.42042,-10.6165 12.20863,-21.21353 41.77032,-53.34992 60.00123,-65.22712 13.77013,-8.97105 67.73956,-33.98373 83.2907,-38.60193 5.52163,-1.63974 32.81889,-17.254 33.56555,-19.19976 0.44488,-1.15934 -5.69597,-12.62898 -12.23199,-22.84643 -2.8895,-4.517 -3.9386,-5.37409 -7.17331,-5.8604 -2.08386,-0.31329 -6.48883,-0.99925 -9.78883,-1.52435 -11.89522,-1.89282 -19.31082,-1.43069 -21.90166,1.36488 -4.34667,4.69012 -17.8133,12.61046 -30.9534,18.20508 -17.51489,7.45726 -30.7691,15.45135 -36.39091,21.94867 -2.44708,2.82817 -6.19542,5.92955 -8.32964,6.89195 -4.25603,1.9192 -5.9025,3.95457 -10.48085,12.95639 -6.74567,13.26314 -12.59593,21.46611 -20.09786,28.1803 -5.58463,4.99822 -8.38119,8.4354 -10.84687,13.33158 -4.19083,8.32188 -7.76693,12.58935 -19.31412,23.04815 -5.98003,5.41638 -10.79006,10.85068 -13.63841,15.40846 -5.57336,8.9182 -9.40638,12.59105 -17.54628,16.81308 -4.35967,2.26129 -7.58291,4.82959 -9.78871,7.7997 -6.42615,8.65283 -12.76073,16.49671 -17.30508,21.42825 -6.31542,6.8535 -6.68958,7.79555 -6.14106,15.46182 1.58524,22.15577 -17.72595,56.89304 -35.37512,63.63332 -4.11762,1.57254 -4.82737,2.38538 -8.48759,9.72053 -5.53209,11.08638 -7.05066,12.96925 -14.16994,17.56919 -9.32722,6.02654 -11.62268,7.99421 -13.37024,11.46097 -7.16892,14.22148 -14.04043,24.0936 -20.42814,29.34857 -5.09699,4.19313 -7.63776,7.2499 -10.52813,12.66628 -2.90894,5.45119 -6.68437,9.97678 -15.96675,19.13932 -6.68634,6.6 -14.28351,14.97108 -16.8826,18.6024 -3.17528,4.43633 -6.53762,7.71708 -10.24869,10 -7.7305,4.75554 -14.7991,11.33478 -19.99338,18.60924 -6.64199,9.30193 -13.04383,14.55132 -22.29261,18.2795 -7.86234,3.16932 -12.14313,6.65926 -14.08364,11.48176 -5.42796,13.48949 -10.49149,23.41752 -16.71917,32.78117 -3.04721,4.58165 -8.41028,17.1538 -12.47581,29.24593 -1.66426,4.95 -3.85409,10.90754 -4.86628,13.23897 -2.12837,4.90237 -2.51109,4.45346 8.62294,10.11428 7.46072,3.79322 8.8776,3.84303 11.2841,0.39675 z m -149.949,-134.16887 c 3.6657,-3.25538 8.9149,-7.02208 11.6649,-8.37044 2.75,-1.34836 8.15,-3.9711 12,-5.82831 16.64081,-8.0274 26.31893,-21.91013 29.43765,-42.2267 3.96346,-25.81952 8.76006,-29.52666 40.56235,-31.34938 23.60956,-1.35316 32.90599,-6.53763 48.06726,-26.8063 9.55408,-12.77258 17.72635,-20.89266 28.93274,-28.74795 18.74518,-13.13973 24.58741,-23.60339 25.8364,-46.27403 1.22589,-22.25122 11.86415,-42.6549 27.37661,-52.50705 5.94972,-3.77874 13.55659,-11.78111 22.78627,-23.97097 4.3726,-5.775 12.17726,-15 17.34368,-20.5 8.93694,-9.51398 9.80093,-10.84086 17.77664,-27.30068 7.96505,-16.43781 10.89433,-21.48154 19.86219,-34.19932 3.73502,-5.29684 16.1724,-20.20679 22.55813,-27.04274 1.695,-1.81451 9.30993,-12.55969 16.92206,-23.87818 20.32196,-30.21677 23.7966,-33.03893 60.1076,-48.82028 37.10302,-16.12559 89.08944,-53.7397 81.93042,-59.27971 -4.11248,-3.18244 -5.58462,-2.43098 -16.34674,8.34419 -15.81281,15.83199 -48.0117,37.10704 -59.15326,39.08486 -18.64024,3.30895 -59.49503,29.74004 -67.01782,43.3573 -7.8911,14.28394 -23.09209,35.69548 -38.43709,54.14104 -14.92796,17.94424 -20.96275,27.65564 -29.909,48.13061 -4.60606,10.54174 -8.83085,16.2269 -17.7131,23.83599 -7.06865,6.05544 -5.30832,4.20322 -16.75243,17.62692 -11.49086,13.47853 -17.47714,19.12142 -26.42688,24.91098 -13.05749,8.44685 -21.79431,26.28152 -25.73629,52.53608 -4.60626,30.67887 -6.82489,34.908 -25.63521,48.86561 -9.43521,7.0011 -15.18728,12.89733 -27.73108,28.42608 -12.23824,15.1505 -22.67531,19.99867 -46.89407,21.78301 -27.7786,2.04661 -36.90924,9.47172 -40.71267,33.10787 -3.7845,23.51849 -9.24361,31.20805 -29.67251,41.79593 -19.4622,10.08686 -27.6831,17.84091 -24.64538,23.24581 2.65423,4.72256 1.71806,4.926 9.61863,-2.09024 z"
         id="path2747" /><path
         style="fill:#9f9f9f"
         d="M 487.10049,921.18641 C 443.86094,917.54091 414.56942,912.09093 382.51673,901.72756 128.41083,819.56926 16.275883,521.83621 153.04278,292.44397 281.90887,76.303348 573.74852,23.746497 770.22635,181.29655 985.37382,353.81726 975.75275,684.11504 750.89582,844.9268 676.72679,897.97053 571.73585,928.32197 487.10049,921.18641 Z M 414.96448,835.5178 c 4.85671,-10.0375 10.77129,-22.69026 13.14349,-28.11724 8.07569,-18.47504 19.79305,-33.1922 36.99252,-46.46309 42.49338,-32.78735 45.97851,-36.31011 59.03237,-59.66967 16.77172,-30.01259 32.891,-47.35955 53.85288,-57.95441 50.51839,-25.53375 73.73315,-51.39108 87.12772,-97.04559 16.16503,-55.09744 22.43042,-67.48606 46.92621,-92.78763 20.18805,-20.85213 36.17722,-30.81947 75.06082,-46.79146 33.73551,-13.85734 64.57164,-30.4726 63.44952,-34.18815 -1.29867,-4.30011 -2.22171,-4.17496 -15.17677,2.05772 -15.97261,7.68442 -30.97863,13.81615 -38.73545,15.82799 -3.27948,0.85058 -7.77948,2.60675 -10,3.90259 -2.22051,1.29585 -8.61308,4.13548 -14.20569,6.3103 -52.97437,20.60035 -97.41429,71.53912 -113.45647,130.04825 -15.43442,56.29253 -29.96136,75.95342 -72.6096,98.27049 -36.60557,19.15505 -51.31701,33.58017 -74.18336,72.73958 -11.39376,19.5122 -25.40833,33.50355 -44.80608,44.73183 -17.89883,10.36064 -37.1291,32.88479 -48.9876,57.37849 -4.12733,8.525 -10.82121,22.25 -14.87528,30.5 -8.61158,17.52449 -8.35842,16.65361 -5.30103,18.23526 6.60468,3.41673 7.14545,2.86841 16.7518,-16.98526 z m -49.16962,-3 c 1.71431,-2.8875 5.46031,-9.75 8.32444,-15.25 2.86413,-5.5 6.46578,-12.25 8.00368,-15 1.5379,-2.75 4.17978,-8.60902 5.87085,-13.02004 8.89556,-23.20342 31.62851,-49.96018 58.83577,-69.24993 26.13062,-18.52641 36.56132,-29.78628 56.25793,-60.73003 18.04015,-28.34143 32.21353,-41.3979 67.14103,-61.85012 30.89398,-18.09034 47.27634,-37.39076 52.3817,-61.71201 4.93646,-23.51661 18.0566,-57.72238 24.90791,-64.93787 1.82784,-1.925 5.16637,-6.70243 7.41897,-10.6165 12.51586,-21.74736 43.65543,-55.63726 62.16335,-67.65377 11.90544,-7.72978 67.03059,-32.98862 81.13734,-37.17788 6.30088,-1.87116 34.85217,-18.54318 34.85827,-20.35487 0.005,-1.35443 -9.15315,-17.65046 -13.84315,-24.63369 -2.08629,-3.10642 -3.37598,-4.03874 -5.75209,-4.15824 -1.68456,-0.0847 -4.00152,-0.65641 -5.14879,-1.27041 -6.08709,-3.25771 -24.75874,-2.57234 -28.84021,1.05862 -7.30004,6.49427 -16.10558,11.68263 -29.52631,17.39735 -17.3602,7.39221 -30.89488,15.50264 -36.77283,22.03551 -2.53673,2.81937 -6.45599,6.05595 -8.70948,7.1924 -4.47405,2.25629 -6.33212,4.57429 -10.95921,13.67196 -6.69818,13.16977 -12.51687,21.33001 -19.95866,27.99038 -5.79823,5.18939 -8.37822,8.43086 -11.52579,14.48087 -3.90916,7.51392 -11.44677,15.95819 -23.34963,26.15827 -2.13979,1.83368 -6.22373,6.95071 -9.07541,11.37118 -5.57188,8.63711 -9.97248,12.95971 -15.53405,15.25868 -5.29182,2.18746 -9.59626,5.79688 -13.1541,11.03012 -3.81604,5.61305 -10.42909,13.70842 -17.18702,21.03953 -4.9036,5.31952 -4.9036,5.31952 -4.23744,12.08008 2.15562,21.87611 -16.65074,56.56265 -35.08799,64.71648 -4.92012,2.17591 -5.42069,2.75708 -9.51342,11.04512 -4.78425,9.68842 -8.42227,13.88777 -15.54873,17.9478 -6.04714,3.44513 -10.03263,7.07002 -11.97444,10.89101 -7.25654,14.27901 -13.86563,23.73841 -20.2149,28.93294 -5.11665,4.18609 -7.62009,7.19907 -10.61269,12.77273 -3.00352,5.59399 -6.8453,10.20812 -16.48101,19.79433 -6.91049,6.875 -14.34738,15.06017 -16.5264,18.18927 -2.42889,3.48791 -6.08999,7.0563 -9.46186,9.22227 -10.11673,6.49861 -11.88819,8.05116 -17.20821,15.08163 -9.55287,12.62423 -15.3709,17.71386 -24.41243,21.35608 -10.2729,4.13826 -12.04339,6.06936 -18.47475,20.15075 -5.10494,11.1772 -8.54472,17.52469 -13.68546,25.25407 -2.9021,4.36347 -8.34921,17.00302 -11.95731,27.74593 -2.18785,6.51419 -5.26576,14.82714 -6.92225,18.69588 -0.57992,1.35442 15.93121,10.17237 19.19912,10.2535 1.42246,0.0353 2.98089,-1.53634 5.15566,-5.19938 z M 231.99607,689.53545 c 23.26838,-11.36275 32.52703,-23.21365 36.04611,-46.13832 3.85939,-25.14155 8.54373,-28.76944 38.98992,-30.19656 24.26086,-1.13718 34.75599,-7.13171 50.65508,-28.93277 8.7791,-12.03803 13.821,-16.99973 26.02598,-25.61206 20.31246,-14.33327 26.43537,-25.02483 27.72373,-48.40992 1.22502,-22.23538 10.94741,-40.80536 27.11038,-51.78143 7.91975,-5.3782 12.54565,-10.13908 22.05304,-22.69659 4.37231,-5.775 12.19418,-15 17.38195,-20.5 8.99775,-9.53929 9.81417,-10.78992 17.72075,-27.14536 11.48539,-23.75854 15.56834,-29.96752 34.42775,-52.35464 13.6754,-16.23342 17.72039,-21.60731 28.97944,-38.5 16.66565,-25.00456 22.59723,-29.78176 53.21737,-42.86042 29.70227,-12.6866 60.45585,-32.27247 79.14685,-50.40582 11.59407,-11.24815 12.55046,-8.96282 -8.37393,-20.00962 C 516.90363,96.250202 313.451,146.16645 209.17404,300.2678 c -79.70109,117.78292 -84.42569,265.31248 -12.5093,390.6131 10.77463,18.77273 9.40892,17.89944 16.76719,10.72162 4.83551,-4.71692 8.83079,-7.31393 18.56414,-12.06707 z"
         id="path2746" /><path
         style="display:inline;fill:#46a6af"
         d="M 480.60049,906.71635 C 144.61965,878.80552 -12.227567,481.5767 214.70575,233.31551 419.40653,9.3763248 794.89528,89.596844 891.15518,377.83415 981.78973,649.2271 763.65558,930.2305 480.60049,906.71635 Z M 416.5852,834.2678 c 4.50022,-9.35 10.12928,-21.44026 12.50904,-26.86724 8.08432,-18.43609 19.26668,-32.55641 36.00625,-45.46624 42.70291,-32.93319 46.91046,-37.18519 60.03237,-60.66652 16.71235,-29.90635 32.0599,-46.44491 52.85288,-56.95441 52.19154,-26.37942 74.64833,-51.96696 89.121,-101.54559 14.86077,-50.9081 21.64169,-64.16124 45.42018,-88.7726 19.49316,-20.17595 35.15121,-29.99839 72.07357,-45.21244 25.48568,-10.5015 67.5,-31.62748 67.5,-33.94089 0,-7.79419 -2.79396,-8.19935 -14.84364,-2.15254 -14.34421,7.19826 -30.37759,13.87094 -39.04003,16.24744 -4.17647,1.1458 -9.85636,3.36031 -12.62198,4.92113 -2.76562,1.56082 -9.07531,4.34243 -14.02154,6.18135 -52.16851,19.39541 -97.00336,71.23511 -113.51108,131.24568 -15.05606,54.73334 -31.64725,76.73067 -73.86621,97.93504 -33.65279,16.90204 -48.59698,31.39258 -70.17656,68.04627 -12.28117,20.86 -26.70508,35.97803 -44.36652,46.50156 -21.43722,12.77332 -39.29285,33.1119 -51.73486,58.92899 -3.86221,8.01405 -10.68866,21.99601 -15.16989,31.07101 -9.62801,19.4978 -9.40583,18.07192 -3.14769,20.20124 6.47842,2.20427 6.39475,2.30132 16.98471,-19.70124 z m -51.68669,1.25 c 1.59176,-2.3375 5.94826,-10.1 9.6811,-17.25 3.73285,-7.15 7.81503,-14.8 9.07152,-17 1.2565,-2.2 3.66442,-7.60902 5.35095,-12.02004 8.85887,-23.1699 30.93014,-49.17989 58.04654,-68.40521 27.13938,-19.24162 35.53416,-28.48285 60.24772,-66.32252 15.69195,-24.02642 29.90191,-36.77503 61.6397,-55.30071 33.66752,-19.65208 48.75699,-37.81098 55.21912,-66.45152 4.87391,-21.60145 17.75707,-54.69748 23.9626,-61.55842 2.0189,-2.23213 5.54602,-7.26937 7.83806,-11.19388 12.99783,-22.25535 42.65807,-54.52011 61.14467,-66.51388 11.83347,-7.67734 62.23713,-30.83385 81.13373,-37.27455 8.14718,-2.77688 35.86627,-19.06452 35.86627,-21.0749 0,-1.54677 -6.69289,-13.739 -13.2924,-24.21435 -3.20669,-5.08995 -4.38312,-6.22663 -6.00532,-5.80242 -1.10958,0.29016 -3.53439,-0.10627 -5.38847,-0.88095 -9.41537,-3.93399 -25.62673,-3.03759 -30.97538,1.71277 -7.24425,6.43392 -15.18365,10.97875 -32.01243,18.32519 -8.1543,3.55969 -15.96481,7.31339 -17.35668,8.34156 -1.39188,1.02817 -4.31856,2.78151 -6.50374,3.8963 -2.18517,1.1148 -6.53014,4.75049 -9.65548,8.07932 -3.12534,3.32884 -7.51848,6.98911 -9.76254,8.13394 -2.89718,1.47803 -4.87269,3.54587 -6.81384,7.1323 -10.3217,19.07017 -15.9327,27.27043 -22.96996,33.56972 -5.4372,4.86702 -8.14861,8.26059 -10.90604,13.64983 -2.95551,5.77639 -6.16471,9.6214 -16.48798,19.75462 -7.76779,7.62479 -14.75644,15.55132 -17.73759,20.11797 -5.19234,7.95387 -8.24164,10.70882 -17.05461,15.40832 -3.33542,1.7786 -6.90911,4.81595 -9.28503,7.89151 -9.87266,12.7799 -13.63845,17.38506 -18.28569,22.36145 -5.00682,5.36145 -5.00682,5.36145 -5.0689,15.5 -0.0862,14.07763 -6.38604,34.33078 -12.68171,40.76998 -0.73593,0.75271 -2.11353,2.49032 -3.06134,3.86134 -4.14813,6.00042 -15.13855,16.05064 -18.60215,17.01077 -5.22735,1.44906 -5.74791,1.96356 -8.63102,8.53044 -4.76446,10.85208 -7.84066,14.65563 -16.44282,20.33062 -9.19695,6.06738 -8.68985,5.45993 -18.47876,22.1354 -6.20678,10.57328 -8.36325,13.33095 -13.99058,17.89101 -3.84454,3.11539 -7.53298,7.12547 -8.738,9.5 -4.10515,8.08926 -8.25819,13.27721 -19.69994,24.60899 -6.38638,6.325 -13.64775,14.2 -16.13637,17.5 -2.8151,3.7329 -6.59359,7.23498 -10,9.26845 -6.98929,4.17227 -12.91287,9.87927 -19.59463,18.87818 -6.82069,9.18601 -11.09159,12.63775 -20.36221,16.45674 -8.68234,3.57665 -13.10014,7.35474 -15.47434,13.23361 -3.33423,8.25605 -11.81332,24.86044 -15.29792,29.95755 -3.36952,4.92877 -10.34417,20.26004 -14.1963,31.20547 -2.21801,6.30223 -5.99773,17.67998 -6.31186,19 -0.1837,0.77194 19.23358,11.5 20.81447,11.5 0.19331,0 1.65382,-1.9125 3.24558,-4.25 z M 213.56874,702.40853 c 4.14553,-4.04476 8.97696,-7.53765 13.27472,-9.59698 3.71636,-1.78075 9.23203,-4.43158 12.25703,-5.89074 16.09836,-7.7653 27.07084,-24.07313 30.08535,-44.71428 1.97091,-13.49538 2.62091,-15.3044 7.28464,-20.27405 5.35756,-5.70899 7.44826,-6.28745 27.54623,-7.62152 29.11026,-1.93229 36.86465,-6.25221 54.85037,-30.55674 8.63617,-11.67026 15.01284,-17.78336 26.8308,-25.72182 18.30541,-12.29624 25.45923,-25.33772 26.74954,-48.7646 1.18346,-21.48704 11.06026,-40.30768 26.30079,-50.11727 7.26866,-4.67848 13.70664,-11.26175 22.8667,-23.38273 4.36427,-5.775 12.1647,-15 17.33427,-20.5 8.97208,-9.54555 9.7839,-10.7953 17.86367,-27.5 11.76936,-24.33281 14.50435,-28.49806 33.81599,-51.5 13.07968,-15.5791 17.20742,-21.08583 28.4841,-38 16.85974,-25.28834 23.74126,-30.64098 57.98755,-45.10436 23.82391,-10.06165 57.98754,-32.28896 74.99649,-48.79373 12.05304,-11.69575 11.98239,-10.16508 0.75351,-16.32576 C 606.23003,140.52 514.66819,127.73333 422.52652,150.29302 227.48851,198.04553 107.57729,397.0952 155.62571,593.34176 c 9.15809,37.40487 25.19824,74.60838 47.71754,110.67604 3.61297,5.78663 2.45924,5.96821 10.22549,-1.60927 z"
         id="path2745" /><path
         style="display:inline;fill:#3096a2"
         d="M 480.60049,906.71635 C 144.61965,878.80552 -12.227567,481.5767 214.70575,233.31551 419.40653,9.3763248 794.89528,89.596844 891.15518,377.83415 981.78973,649.2271 763.65558,930.2305 480.60049,906.71635 Z m -34.61324,-45.05892 c 3.6083,-1.25786 5.98207,-5.19074 8.6294,-14.29725 2.49453,-8.58087 10.54943,-25.28226 16.26495,-33.72448 2.74351,-4.05235 6.1362,-9.65841 7.53932,-12.45792 3.13324,-6.25147 6.5341,-9.29105 20.92807,-18.70483 25.54618,-16.70743 36.02446,-28.2472 53.75915,-59.20515 15.79972,-27.58024 25.679,-37.02479 55.9942,-53.53025 55.62213,-30.2841 72.55027,-52.59058 93.85199,-123.67028 16.08788,-53.68211 30.12611,-69.69371 84.14616,-95.97463 65.53107,-31.88106 74.84743,-36.73118 74.92532,-39.00627 0.0411,-1.19979 -2.17532,-9.13054 -4.92532,-17.62388 -2.75,-8.49335 -5,-16.41366 -5,-17.60069 0,-10.29254 -2.57236,-10.58024 -20.09933,-2.24798 -15.97204,7.59305 -28.08282,12.49829 -34.90067,14.13586 -2.475,0.59447 -8.1,2.86984 -12.5,5.05639 -4.4,2.18655 -11.05012,5.06192 -14.77805,6.3897 -3.72793,1.32779 -12.27793,5.68014 -19,9.6719 -50.22535,29.82523 -78.81644,66.86751 -94.2656,122.12942 -15.71518,56.21344 -28.38908,72.74792 -75.16906,98.06617 -34.31688,18.57298 -47.38978,30.93393 -65.25851,61.70454 -16.48169,28.38208 -27.83445,40.37322 -52.02878,54.95445 -18.89736,11.38889 -34.90043,30.69648 -48.11099,58.04555 -4.91489,10.175 -12.08628,24.74095 -15.93644,32.36879 -5.47274,10.84245 -6.75072,14.1695 -5.85661,15.24684 1.35687,1.63493 10.7572,4.59315 12.05225,3.79277 0.49577,-0.30641 6.27629,0.8408 12.84559,2.54934 6.56931,1.70854 14.54564,3.48712 17.72519,3.95241 3.17956,0.46528 5.82636,0.90084 5.88178,0.96791 0.0554,0.0671 1.53412,-0.37773 3.28599,-0.98843 z m -82.33858,-22.65495 c 1.90288,-1.33376 5.07121,-6.57172 11.93707,-19.73468 3.72947,-7.15 7.8089,-14.8 9.06539,-17 1.2565,-2.2 3.66442,-7.60902 5.35095,-12.02004 8.85887,-23.1699 30.93014,-49.17989 58.04654,-68.40521 27.13938,-19.24162 35.53416,-28.48285 60.24772,-66.32252 15.69195,-24.02642 29.90191,-36.77503 61.6397,-55.30071 32.47711,-18.95723 49.46334,-38.68969 54.67422,-63.51365 4.93646,-23.51661 18.0566,-57.72238 24.90791,-64.93787 1.82784,-1.925 5.16637,-6.70243 7.41897,-10.6165 12.44576,-21.62556 42.86022,-54.77022 61.16335,-66.65377 11.90544,-7.72978 67.03059,-32.98862 81.13734,-37.17788 2.83559,-0.84208 11.83773,-5.47323 20.00475,-10.29145 17.37544,-10.25083 17.02292,-9.50662 10.20566,-21.54509 -10.08079,-17.80148 -12.26147,-20.71531 -15.50314,-20.71531 -1.63685,0 -3.95901,-0.55067 -5.16035,-1.22371 -1.20135,-0.67303 -4.20926,-1.34242 -6.68426,-1.48752 -2.475,-0.14511 -6.87931,-0.539 -9.78736,-0.87533 -7.14399,-0.82624 -9.36486,-0.10584 -14.95626,4.85144 -7.11283,6.30616 -13.256,9.8623 -28.75638,16.6464 -7.7,3.37008 -15.8,7.221 -18,8.55759 -2.2,1.33659 -6.10479,3.56888 -8.6773,4.96065 -2.57251,1.39177 -6.62251,4.81057 -9,7.59735 -2.37749,2.78678 -6.3477,6.19477 -8.8227,7.57331 -5.20659,2.89999 -7.02716,5.14876 -12.01631,14.84252 -7.03012,13.6593 -11.40274,19.77347 -19.13314,26.75362 -6.00343,5.42079 -8.608,8.68796 -11.76785,14.76159 -4.06493,7.81332 -9.59348,14.11975 -21.34396,24.34712 -3.16869,2.75796 -7.60938,7.98009 -9.8682,11.60472 -5.74286,9.21532 -10.27853,13.64636 -18.29195,17.87003 -4.94368,2.60569 -7.80109,4.91574 -10,8.08444 -1.69323,2.43998 -6.45359,8.44281 -10.57859,13.33961 -15.21685,18.06399 -14.08287,16.05479 -13.37286,23.6942 1.31207,14.11743 -5.83669,34.51091 -16.49448,47.05423 -7.1813,8.4518 -14.07628,15.04774 -15.72994,15.04774 -4.39148,0 -7.44035,3.18968 -12.12016,12.6799 -4.98585,10.11087 -7.82157,13.06925 -18.736,19.54638 -2.69839,1.60136 -5.65083,4.48973 -7.15526,7 -1.4087,2.35055 -5.22799,8.85142 -8.48732,14.44639 -4.55989,7.82752 -7.36434,11.37447 -12.16501,15.38581 -6.54915,5.47231 -8.55199,8.00533 -13.30039,16.82121 -1.90457,3.536 -6.42911,8.6545 -13.20217,14.93525 -5.66751,5.25556 -12.82064,13.05009 -15.89586,17.32119 -5.25749,7.30201 -7.81829,9.59993 -16.34055,14.66312 -4.25646,2.52881 -10.35983,8.81969 -15.71786,16.20075 -6.33135,8.72186 -11.92574,13.23113 -20.90278,16.84836 -10.41788,4.1978 -12.12653,6.10006 -18.9206,21.06455 -3.09442,6.81569 -7.88833,16.03602 -10.65315,20.48962 -5.84758,9.41936 -11.91151,22.74152 -15.52034,34.09747 -1.39829,4.4 -3.43971,10.09114 -4.5365,12.64698 -2.54952,5.94118 -2.4279,6.09362 9.52449,11.93862 10.79831,5.28062 10.70537,5.2492 12.27492,4.14908 z M 214.39407,702.5178 c 3.60255,-3.4375 8.04776,-7.00354 9.87825,-7.92454 1.83049,-0.92099 7.37817,-3.60855 12.32817,-5.97234 19.6139,-9.36632 29.85526,-23.78209 33.41751,-47.0386 2.2272,-14.54051 2.42876,-15.03545 8.3436,-20.48756 5.06188,-4.66587 6.15205,-4.90158 27.23889,-5.88938 25.25991,-1.18328 36.24701,-7.46269 53.25668,-30.43758 8.71516,-11.77153 16.09255,-18.85581 27.86175,-26.75477 17.79171,-11.94101 25.42922,-26.1554 26.7285,-49.74523 1.18489,-21.51291 11.24277,-39.927 27.17803,-49.75787 6.00758,-3.70623 12.12324,-10.04498 20.97694,-21.74213 4.37116,-5.775 12.17872,-15 17.35012,-20.5 9.02387,-9.59725 9.7619,-10.73889 18.32446,-28.34578 11.75202,-24.16524 14.07609,-27.69499 33.35187,-50.65422 13.08599,-15.58662 17.2129,-21.09293 28.48052,-38 16.92317,-25.39325 23.76564,-30.93136 54.21284,-43.87844 28.96286,-12.31589 61.27422,-32.9688 79.52829,-50.83321 11.28894,-11.04797 11.28894,-10.31857 0,-16.5122 -119.80773,-65.73201 -257.9656,-64.50448 -369.8611,3.2862 -172.5957,104.56523 -229.511578,327.26717 -127.64117,499.43765 12.51279,21.14778 10.49893,19.90536 19.04585,11.75 z"
         id="path2744" /><path
         style="display:inline;fill:#2d7a86"
         d="M 480.60049,906.71635 C 144.61965,878.80552 -12.227567,481.5767 214.70575,233.31551 419.40653,9.3763248 794.89528,89.596844 891.15518,377.83415 981.78973,649.2271 763.65558,930.2305 480.60049,906.71635 Z m 70.5,-39.46104 C 780.47225,841.96667 928.71006,610.31294 856.65008,389.7678 c -2.42602,-7.425 -4.69825,-14.94137 -5.04941,-16.70304 -0.35115,-1.76167 -1.47735,-4.26951 -2.50265,-5.57297 -2.20132,-2.79852 -14.99753,-30.47844 -14.99753,-32.44166 0,-1.45446 -6.84949,-13.88541 -13.24189,-24.03233 -3.21766,-5.10753 -4.4237,-6.25113 -6.59775,-6.25616 -1.4632,-0.003 -3.96126,-0.6846 -5.55125,-1.5138 -1.58999,-0.82919 -4.51499,-1.51434 -6.5,-1.52254 -1.98501,-0.008 -7.06914,-0.26158 -11.29806,-0.56308 -7.68895,-0.54816 -7.68895,-0.54816 -12,3.36755 -7.54268,6.85099 -15.9037,11.74774 -31.24162,18.29709 -8.21181,3.50647 -16.45053,7.40688 -18.30825,8.66757 -1.85773,1.26068 -5.09671,3.16914 -7.19774,4.241 -2.10103,1.07187 -6.23732,4.60795 -9.19175,7.85795 -2.95443,3.25001 -7.19933,6.83465 -9.4331,7.96588 -4.26775,2.16126 -7.6188,6.38832 -11.66033,14.70854 -5.60363,11.53606 -11.94485,20.40396 -19.29338,26.98086 -5.79823,5.18939 -8.37822,8.43086 -11.52579,14.48087 -3.90916,7.51392 -11.44677,15.95819 -23.34963,26.15827 -2.13979,1.83368 -6.22373,6.95071 -9.07541,11.37118 -5.59304,8.66992 -9.7215,12.72465 -15.35095,15.07678 -5.343,2.23245 -9.7526,5.93941 -13.3372,11.21202 -3.72807,5.48365 -10.09017,13.27078 -17.65168,21.60546 -5.33948,5.88545 -5.33948,5.88545 -4.68937,13 1.16332,12.73095 -5.54303,34.41635 -13.5978,43.96932 -11.21756,13.30405 -16.81916,18.64524 -19.55428,18.64524 -4.04228,0 -10.35277,6.78684 -10.35277,11.13425 0,3.47784 -7.62493,13.10261 -13.24904,16.72395 -8.88163,5.71885 -12.61361,8.96387 -14.41088,12.53052 -7.11414,14.11784 -13.89295,23.83668 -20.25812,29.04422 -5.131,4.19783 -7.60806,7.18343 -10.59714,12.77273 -3.00699,5.6228 -6.5926,9.92961 -15.64711,18.79433 -6.46041,6.325 -13.86307,14.41058 -16.45035,17.96796 -5.32855,7.3265 -7.16262,9.02528 -13.05597,12.0929 -5.46908,2.84678 -11.23054,8.4699 -17.8518,17.42317 -7.23834,9.78769 -12.28389,13.87696 -21.08084,17.08539 -8.13722,2.96781 -13.90499,8.08669 -16.25988,14.43058 -3.81916,10.28858 -10.33295,23.00887 -16.13046,31.5 -3.01321,4.4132 -8.83866,17.89216 -12.74956,29.5 -1.38979,4.125 -3.40299,9.84655 -4.47379,12.71456 -1.0708,2.86801 -1.63512,5.71903 -1.25406,6.3356 1.01062,1.63522 20.43153,10.94984 22.83033,10.94984 2.39276,0 25.82036,9.08946 32.27957,12.52386 2.44914,1.30222 6.56935,2.66981 9.15604,3.03909 2.58668,0.36928 9.75849,1.95902 15.93736,3.53276 17.15563,4.36949 43.67467,8.23318 70.7657,10.31021 10.09385,0.77388 45.40772,-0.36471 59.5,-1.91841 z M 214.13777,702.88947 c 3.66856,-3.5786 8.65445,-7.13753 12.74441,-9.09698 3.69507,-1.77027 9.19331,-4.41252 12.21831,-5.87168 16.3747,-7.8986 27.72136,-24.54518 30.91606,-45.35667 3.57869,-23.31299 6.22219,-25.42885 34.00016,-27.21371 28.31261,-1.81922 37.06216,-6.64151 54.6577,-30.12444 9.84151,-13.13444 14.89348,-18.03142 27.00038,-26.17201 18.98554,-12.76574 26.47287,-26.18779 27.77263,-49.78618 1.1722,-21.28257 10.69144,-39.73325 25.36465,-49.16306 7.3387,-4.71625 14.62079,-12.15866 23.8127,-24.33694 4.35885,-5.775 12.15484,-15 17.32441,-20.5 8.97208,-9.54555 9.7839,-10.7953 17.86367,-27.5 11.76936,-24.33281 14.50435,-28.49806 33.81599,-51.5 13.12849,-15.63724 17.11716,-20.9636 29.20528,-39 15.94078,-23.78486 22.59876,-28.88538 56.26637,-43.10436 29.22642,-12.34331 85,-51.56369 85,-59.77261 0,-1.35217 -11.44317,-7.90764 -29.5,-16.89972 C 562.43051,122.62785 427.57872,127.96583 322.98939,191.33015 150.39369,295.89538 93.477812,518.59732 195.34822,690.7678 c 12.49443,21.11674 10.73315,19.98049 18.78955,12.12167 z"
         id="path2743" /><path
         style="display:inline;fill:#595857"
         d="M 480.60049,906.71635 C 144.61965,878.80552 -12.227567,481.5767 214.70575,233.31551 419.40653,9.3763248 794.89528,89.596844 891.15518,377.83415 981.78973,649.2271 763.65558,930.2305 480.60049,906.71635 Z m 66,-38.03821 C 778.78912,846.23244 930.56094,611.8989 857.25791,389.02747 846.10036,355.10392 819.74506,303.7678 813.4867,303.7678 c -1.38473,0 -3.50061,-0.54464 -4.70195,-1.2103 -6.8332,-3.78628 -25.89158,-2.95575 -30.38777,1.32424 -6.70956,6.38693 -15.62663,11.59699 -31.39325,18.34242 -8.47179,3.62448 -16.54205,7.42004 -17.93392,8.43459 -1.39188,1.01454 -4.35357,2.77459 -6.58154,3.91121 -2.22796,1.13663 -6.54061,4.75583 -9.58365,8.04268 -3.04304,3.28685 -7.31784,6.88674 -9.49955,7.99977 -4.60548,2.34954 -7.80297,6.26999 -11.95285,14.65539 -6.2494,12.62774 -12.24957,21.07089 -19.78771,27.84427 -5.88564,5.28853 -8.41453,8.48511 -11.68318,14.76788 -3.54796,6.81963 -5.94944,9.69051 -16.0633,19.20312 -8.02715,7.54994 -13.35272,13.52092 -16.38749,18.3735 -4.98133,7.96511 -8.90959,11.73056 -14.93005,14.31123 -5.32445,2.28232 -9.86596,6.20902 -13.72286,11.86511 -3.73779,5.48142 -15.72456,20.02279 -18.18623,22.06205 -3.47619,2.8797 -4.5642,6.55302 -3.93541,13.2866 1.97624,21.16312 -17.02452,55.76231 -33.65663,61.28661 -5.452,1.81087 -5.86204,2.21932 -8.53263,8.49963 -4.37986,10.29992 -8.12946,15.40464 -13.95621,19 -7.69179,4.74616 -13.32486,9.7251 -15.18863,13.42485 -7.02112,13.93753 -13.68906,23.47872 -20.08622,28.74146 -5.15697,4.24248 -7.67426,7.28065 -10.72068,12.93901 -3.05103,5.66693 -6.90571,10.31527 -16.49787,19.89468 -6.88415,6.875 -14.43956,15.10402 -16.7898,18.28672 -2.35025,3.18269 -6.40025,7.10094 -9,8.70722 -8.9439,5.52606 -11.99154,8.22079 -17.35219,15.34284 -9.26201,12.30533 -14.59031,16.99246 -22.93559,20.1757 -8.16054,3.11278 -15.01327,8.70372 -17.02194,13.88772 -4.82649,12.45623 -10.31861,23.26218 -16.69796,32.85387 -3.04721,4.58165 -8.41028,17.1538 -12.47581,29.24593 -1.66426,4.95 -3.8829,10.96685 -4.93032,13.37078 -2.43238,5.58258 -1.87451,6.25291 9.88094,11.87256 42.91135,20.51362 90.50778,32.39604 142.80604,35.65145 9.29853,0.57881 40.77708,-0.30286 53,-1.48445 z M 214.27716,703.83165 c 4.28042,-4.24077 8.46662,-7.11834 14.65749,-10.07546 4.76621,-2.27663 10.19007,-4.89286 12.05301,-5.81386 15.75157,-7.78717 27.31505,-25.88487 30.14205,-47.17453 2.69051,-20.26173 6.83216,-23.2967 33.47078,-24.52718 26.73987,-1.23515 37.13684,-7.09432 55.0948,-31.04845 9.74614,-13.00038 13.89353,-17.01155 26.02001,-25.16538 19.52584,-13.12914 27.39426,-27.294 28.75152,-51.75899 1.13225,-20.4091 10.31118,-38.16621 24.40078,-47.20455 7.39896,-4.74636 15.54276,-13.06456 24.76512,-25.29545 4.35448,-5.775 12.14431,-15 17.31073,-20.5 8.96481,-9.54365 9.77957,-10.79862 17.85366,-27.5 11.71846,-24.23981 14.50047,-28.4747 33.83173,-51.5 13.11334,-15.61919 17.23648,-21.12349 28.4649,-38 16.00506,-24.05591 21.317,-28.15347 56.04693,-43.23382 26.16472,-11.3612 57.25953,-31.59594 75.39268,-49.06129 12.34552,-11.89087 12.33725,-11.33439 0.26686,-17.95651 C 573.04183,122.3137 434.86431,123.55194 322.98939,191.33015 149.13916,296.65543 93.425995,518.3495 196.84917,693.2678 c 11.38905,19.26215 9.68868,18.23147 17.42799,10.56385 z"
         id="path2742" /><path
         style="display:inline;fill:#0a6372"
         d="M 478.60049,904.69486 C 155.97029,874.80929 -1.9546024,507.45057 198.98653,254.2678 327.71839,92.067603 562.73149,88.825827 731.98639,208.95161 c 227.30181,161.32358 234.80181,463.3088 7.5,624.63238 -72.95923,51.78157 -173.55228,79.20068 -260.8859,71.11087 z m 68,-36.01672 C 778.10175,846.29889 928.38598,615.936 858.05361,391.2678 c -2.75483,-8.8 -5.50161,-17.575 -6.10394,-19.5 -0.60233,-1.925 -1.67675,-4.175 -2.38762,-5 -0.71086,-0.825 -4.27633,-8.25 -7.92326,-16.5 -12.6564,-28.63102 -22.21344,-45.22098 -26.5383,-46.06758 -1.375,-0.26915 -3.85,-0.9863 -5.5,-1.59365 -10.11577,-3.72355 -26.66265,-3.04734 -31.20351,1.27517 -6.70956,6.38693 -15.62663,11.59699 -31.39325,18.34242 -8.47179,3.62448 -16.54205,7.42004 -17.93392,8.43459 -1.39188,1.01454 -4.35357,2.77459 -6.58154,3.91121 -2.22796,1.13663 -6.54061,4.75583 -9.58365,8.04268 -3.04304,3.28685 -7.31784,6.88674 -9.49955,7.99977 -4.60548,2.34954 -7.80297,6.26999 -11.95285,14.65539 -6.2494,12.62774 -12.24957,21.07089 -19.78771,27.84427 -5.88564,5.28853 -8.41453,8.48511 -11.68318,14.76788 -3.54796,6.81963 -5.94944,9.69051 -16.0633,19.20312 -8.02715,7.54994 -13.35272,13.52092 -16.38749,18.3735 -4.98133,7.96511 -8.90959,11.73056 -14.93005,14.31123 -5.32445,2.28232 -9.86596,6.20902 -13.72286,11.86511 -3.73779,5.48142 -15.72456,20.02279 -18.18623,22.06205 -3.47619,2.8797 -4.5642,6.55302 -3.93541,13.2866 1.97624,21.16312 -17.02452,55.76231 -33.65663,61.28661 -5.452,1.81087 -5.86204,2.21932 -8.53263,8.49963 -4.37986,10.29992 -8.12946,15.40464 -13.95621,19 -7.69179,4.74616 -13.32486,9.7251 -15.18863,13.42485 -7.02112,13.93753 -13.68906,23.47872 -20.08622,28.74146 -5.15697,4.24248 -7.67426,7.28065 -10.72068,12.93901 -3.05103,5.66693 -6.90571,10.31527 -16.49787,19.89468 -6.88415,6.875 -14.43956,15.10402 -16.7898,18.28672 -2.35025,3.18269 -6.40025,7.10094 -9,8.70722 -8.9439,5.52606 -11.99154,8.22079 -17.35219,15.34284 -9.26201,12.30533 -14.59031,16.99246 -22.93559,20.1757 -8.16054,3.11278 -15.01327,8.70372 -17.02194,13.88772 -4.82649,12.45623 -10.31861,23.26218 -16.69796,32.85387 -3.03696,4.56624 -8.3914,17.10805 -12.48586,29.24593 -1.66978,4.95 -3.92307,11.09114 -5.00731,13.64698 -1.08425,2.55584 -1.65632,5.15671 -1.27129,5.77971 0.88222,1.42746 20.00568,11.07331 21.95347,11.07331 1.7411,0 27.47813,10.0901 33.03576,12.95154 2.16915,1.11682 5.54415,2.29421 7.5,2.61641 1.95584,0.3222 9.63108,2.10658 17.05608,3.96528 20.39577,5.10568 48.97958,9.27299 74.5,10.86156 9.29853,0.57881 40.77708,-0.30286 53,-1.48445 z M 214.27716,703.83165 c 4.28042,-4.24077 8.46662,-7.11834 14.65749,-10.07546 4.76621,-2.27663 10.19007,-4.89286 12.05301,-5.81386 15.75157,-7.78717 27.31505,-25.88487 30.14205,-47.17453 2.69051,-20.26173 6.83216,-23.2967 33.47078,-24.52718 26.73987,-1.23515 37.13684,-7.09432 55.0948,-31.04845 9.74614,-13.00038 13.89353,-17.01155 26.02001,-25.16538 19.52584,-13.12914 27.39426,-27.294 28.75152,-51.75899 1.13225,-20.4091 10.31118,-38.16621 24.40078,-47.20455 7.39896,-4.74636 15.54276,-13.06456 24.76512,-25.29545 4.35448,-5.775 12.14431,-15 17.31073,-20.5 8.96481,-9.54365 9.77957,-10.79862 17.85366,-27.5 11.71846,-24.23981 14.50047,-28.4747 33.83173,-51.5 13.11334,-15.61919 17.23648,-21.12349 28.4649,-38 16.00506,-24.05591 21.317,-28.15347 56.04693,-43.23382 26.1771,-11.36657 57.25885,-31.59528 75.41182,-49.07973 12.88528,-12.41075 12.89468,-11.53023 -0.202,-18.91822 C 509.72104,84.012595 281.19025,151.7815 184.7851,337.55032 c -59.46804,114.59251 -53.06669,255.51776 16.55548,364.46748 5.93398,9.2859 5.46153,9.21966 12.93658,1.81385 z"
         id="path2741"
         sodipodi:nodetypes="sssssssssssssssssssssssssssssssssssssssssssssssssssssssssssssssssssss" /><path
         style="display:inline;fill:#3d3d3d"
         d="M 478.60049,904.69486 C 155.97029,874.80929 -1.9546024,507.45057 198.98653,254.2678 327.71839,92.067603 570.23149,57.825827 739.48639,177.95161 c 227.30181,161.32358 227.30181,494.3088 0,655.63238 -72.95923,51.78157 -173.55228,79.20068 -260.8859,71.11087 z m 54,-34.36492 c 162.8792,-6.15619 307.99539,-134.42611 337.95091,-298.71884 12.22171,-67.03061 3.19496,-153.88925 -21.4425,-206.32753 -1.55454,-3.30867 -6.06337,-12.99077 -10.01961,-21.51577 -7.58062,-16.33487 -17.05165,-33.13423 -21.98715,-39 -1.61971,-1.925 -7.61718,-9.8 -13.32772,-17.5 -23.91298,-32.2439 -53.53974,-60.7356 -87.17393,-83.83412 -6.05,-4.15489 -11.87502,-8.34195 -12.94448,-9.30459 -2.61016,-2.34944 -16.73405,-10.42778 -29.03906,-16.60927 C 570.8247,125.37925 445.67488,126.10834 342.883,179.45241 170.84251,268.73322 97.955996,473.26316 174.56818,651.7678 c 7.46011,17.38187 26.66714,52.13483 31.46541,56.9331 0.88854,0.88855 5.45804,6.77959 10.15443,13.09122 41.06277,55.18555 99.61935,100.68397 158.91247,123.47488 7.975,3.06541 16.01566,6.25019 17.86813,7.07729 21.50914,9.60349 91.19071,20.33928 121.63187,18.73973 2.75,-0.1445 10.85,-0.48384 18,-0.75408 z"
         id="path2740" /><path
         style="display:inline;fill:#020303"
         d="M 492.10049,886.63401 C 196.62818,874.5366 29.100356,537.41024 196.19443,291.16437 364.42091,43.249673 745.2853,81.822148 861.91317,358.58579 970.51507,616.30343 773.1338,898.14025 492.10049,886.63401 Z m 64,-17.30565 c 232.9191,-31.37506 376.69973,-263.00854 300.98118,-484.88672 -9.1682,-26.86556 -34.26229,-77.56524 -40.28924,-81.39968 -0.66925,-0.42579 -4.10741,-4.82416 -7.64035,-9.77416 -25.40231,-35.59113 -61.59403,-70.61589 -96.54533,-93.43234 -4.29368,-2.80295 -8.3016,-5.76221 -8.90648,-6.57615 -7.2655,-9.7765 -74.22184,-37.54461 -110.59978,-45.8679 C 329.03736,86.973638 92.306327,323.70467 152.7241,587.7678 c 9.38949,41.03788 39.4347,109.9875 53.16223,122 0.94279,0.825 4.86416,5.77256 8.71416,10.99458 29.45874,39.95695 67.18949,74.41466 107.80733,98.45535 7.25597,4.29463 14.31767,8.65442 15.69267,9.68842 7.51905,5.65432 49.71736,23.33418 66.67141,27.93336 24.9534,6.76921 44.94991,10.73444 64.82859,12.85526 5.5,0.58678 11.575,1.24736 13.5,1.46794 9.28578,1.06405 61.15991,-0.23945 73,-1.83435 z"
         id="path2739" /></g></g></svg>
