<?xml version="1.0" encoding="UTF-8" standalone="no"?>
<svg
   version="1.0"
   width="1024.000000pt"
   height="1024.000000pt"
   viewBox="0 0 1024.000000 1024.000000"
   preserveAspectRatio="xMidYMid meet"
   id="svg3"
   sodipodi:docname="DocArrowUp.svg"
   inkscape:version="1.3 (0e150ed6c4, 2023-07-21)"
   xmlns:inkscape="http://www.inkscape.org/namespaces/inkscape"
   xmlns:sodipodi="http://sodipodi.sourceforge.net/DTD/sodipodi-0.dtd"
   xmlns="http://www.w3.org/2000/svg"
   xmlns:svg="http://www.w3.org/2000/svg">
  <defs
     id="defs3" />
  <sodipodi:namedview
     id="namedview3"
     pagecolor="#ffffff"
     bordercolor="#000000"
     borderopacity="0.25"
     inkscape:showpageshadow="2"
     inkscape:pageopacity="0.0"
     inkscape:pagecheckerboard="0"
     inkscape:deskcolor="#d1d1d1"
     inkscape:document-units="pt"
     showgrid="false"
     inkscape:zoom="0.41638184"
     inkscape:cx="2167.4817"
     inkscape:cy="414.2832"
     inkscape:window-width="3440"
     inkscape:window-height="1351"
     inkscape:window-x="-9"
     inkscape:window-y="-9"
     inkscape:window-maximized="1"
     inkscape:current-layer="svg3" />
  <g
     transform="matrix(0.11090583,0,0,-0.10541557,-46.183298,1062.0248)"
     fill="#000000"
     stroke="none"
     id="g3">
    <path
       d="m 2026.2532,9857.6519 c -275.9975,-55.1996 -502.1808,-262.5343 -597.7702,-545.2634 -22.8875,-71.3554 -24.2339,-226.1833 -28.2729,-4025.5242 -2.6927,-2575.5277 1.3464,-3982.4417 9.4243,-4038.9875 45.7753,-293.49978 284.0755,-573.53625 562.7657,-659.70131 86.165,-26.92659 125.2085,-26.92659 3052.1282,-26.92659 2443.5874,0 2975.3874,4.03899 3031.9332,18.84861 258.4952,68.66279 476.6005,275.99748 573.5362,546.60959 l 30.9656,87.5114 4.039,3110.0205 c 4.039,2347.998 0,3136.9468 -12.117,3223.112 -24.2339,172.33 -80.7797,273.3047 -246.3782,438.9033 -651.6233,652.9696 -1774.4619,1744.8425 -1829.6613,1781.1935 -39.0435,24.2339 -109.0527,57.8921 -157.5205,74.048 l -87.5115,29.6193 -2107.0051,2.6927 c -1727.3403,1.3463 -2123.161,-1.3464 -2198.5555,-16.1559 z m 4667.7232,-550.6487 c 161.5595,-199.2567 149.4426,-142.7109 153.4816,-710.8619 l 4.0389,-494.1027 494.1028,-4.0391 494.1029,-4.0389 c 0,0 222.9222,-120.1963 286.909,-168.3339 63.9868,-48.1374 217.9644,-201.9066 228.735,-230.1795 2.6927,-6.7316 -398.5134,-12.117 -892.6162,-12.117 -984.1666,0 -958.7049,-11.0157 -991.0955,23.5971 -32.3907,34.6127 -28.0757,37.9787 -26.7294,1044.042 1.3464,1006.0631 1.3464,845.4947 1.3464,845.4947 l 75.3943,-84.8188 c 40.3899,-45.7752 118.477,-138.6719 172.3302,-204.642 z M 3539.5272,8769.8179 c 131.9403,-87.5114 121.1696,-304.2705 -18.8486,-371.5869 -56.5458,-26.9266 -76.7408,-28.2729 -589.6922,-28.2729 -308.3094,0 -550.6486,5.3852 -578.9216,13.4633 -161.5594,44.4288 -193.8713,301.5777 -48.4678,390.4354 40.3898,25.5803 71.3554,26.9266 616.6187,26.9266 h 573.5363 z m 1909.0947,-651.6234 c 195.2177,-199.2567 751.2517,-757.9834 1234.5839,-1244.0082 799.7195,-801.0658 880.4992,-885.8846 880.4992,-926.2745 0,-28.2728 -15.906,-55.5783 -33.6582,-75.3943 0,0 -20.6244,-27.7549 -29.2807,-33.6582 -8.656,-5.9034 -704.4686,0 -704.4686,0 h -700.0912 v -678.5499 c 0,-372.9333 4.039,-696.0522 8.0779,-718.9398 l 8.078,-41.7363 797.0268,-4.0389 c 767.4077,-4.039 797.0269,-5.3854 841.4558,-30.9656 63.2774,-37.6973 95.5894,-103.6674 95.5894,-196.5641 0,-88.8577 -35.0045,-150.7888 -107.7063,-188.4861 -44.429,-24.2338 -94.2431,-25.5802 -844.1484,-25.5802 h -798.3732 v -550.6487 c 0,0 -4.5548,-535.3765 -6.0678,-578.3856 -1.513,-43.0092 -73.3657,-28.8088 -1040.03,-28.8088 -1032.6345,0 -1035.3272,0 -1059.561,60.5848 -4.0391,12.117 -8.0781,263.8806 -8.0781,560.073 v 537.1853 H 3174.672 c -869.7287,0 -845.4947,-1.3463 -910.1186,70.0091 -63.2775,68.6628 -72.7018,195.2177 -21.5413,282.7292 12.117,21.5412 47.1216,49.8142 76.7409,64.6237 53.8531,25.5804 86.165,26.9266 858.9579,26.9266 h 803.7585 v 720.2861 720.2862 h -686.6279 c -581.6141,0 -693.3595,2.6926 -727.0176,20.1948 -48.468,25.5803 -63.2775,84.8188 -35.0046,137.3257 12.117,20.1949 568.1509,586.9995 1235.9302,1260.1641 1209.0035,1214.3889 1215.7352,1221.1205 1269.5883,1221.1205 52.5069,0 61.9312,-8.078 409.2841,-359.4699 z M 7784.503,2137.8004 c 105.0137,-100.9747 88.8577,-280.0365 -32.3118,-355.431 l -47.1216,-29.6192 H 5039.3378 c -2514.9428,0 -2668.4244,1.3463 -2712.8532,24.234 -109.0527,53.8531 -150.7889,212.7199 -83.4725,320.4263 61.9312,100.9746 -188.486,92.8967 2805.75,88.8577 l 2688.6194,-2.6926 z"
       id="path1"
       sodipodi:nodetypes="cccccsccccsccccccccccczcszzcccccsccsccccsczccsccccscscczscscscccscccscccsccccsccccc"
       style="stroke-width:1.34633" />
    <path
       d="m 4665.0584,7493.4978 c -205.9884,-210.0274 -560.073,-568.151 -786.2563,-795.6806 l -411.9767,-414.6693 h 472.5615 c 411.9767,0 473.9079,-2.6927 475.2542,-20.195 1.3464,-10.7706 4.039,-25.5803 5.3853,-33.6582 1.3463,-6.7316 4.039,-677.2036 5.3854,-1487.6937 l 1.3463,-1474.2305 h 208.681 208.681 l 2.6927,1027.2492 c 4.039,981.4739 5.3853,1027.2491 29.6193,1063.6 79.4334,117.1307 274.6511,105.0137 332.5432,-21.5412 24.234,-53.8532 25.5803,-103.6674 25.5803,-1062.2537 V 3267.3705 h 208.681 208.6811 l 2.6925,1505.1961 4.0391,1503.8497 h 475.2542 c 259.8415,0 473.9079,2.6926 473.9079,6.7316 0,5.3853 -352.7383,364.8552 -784.91,799.7194 l -783.5636,791.6417 z"
       id="path2"
       style="stroke-width:1.34633" />
  </g>
</svg>
