<?xml version="1.0" encoding="UTF-8" standalone="no"?>
<svg
   version="1.0"
   width="1024.000000pt"
   height="1024.000000pt"
   viewBox="0 0 1024.000000 1024.000000"
   preserveAspectRatio="xMidYMid meet"
   id="svg4"
   sodipodi:docname="eomtbx_logo_text.svg"
   inkscape:version="1.3 (0e150ed6c4, 2023-07-21)"
   xml:space="preserve"
   inkscape:export-filename="EomToolbox_text_320.png"
   inkscape:export-xdpi="22.5"
   inkscape:export-ydpi="22.5"
   xmlns:inkscape="http://www.inkscape.org/namespaces/inkscape"
   xmlns:sodipodi="http://sodipodi.sourceforge.net/DTD/sodipodi-0.dtd"
   xmlns="http://www.w3.org/2000/svg"
   xmlns:svg="http://www.w3.org/2000/svg"><defs
     id="defs4"><inkscape:path-effect
       effect="bspline"
       id="path-effect2621"
       is_visible="true"
       lpeversion="1.3"
       weight="33.333333"
       steps="2"
       helper_size="0"
       apply_no_weight="true"
       apply_with_weight="true"
       only_selected="false"
       uniform="false" /></defs><sodipodi:namedview
     id="namedview4"
     pagecolor="#ffffff"
     bordercolor="#000000"
     borderopacity="0.25"
     inkscape:showpageshadow="2"
     inkscape:pageopacity="0.0"
     inkscape:pagecheckerboard="true"
     inkscape:deskcolor="#d1d1d1"
     inkscape:document-units="pt"
     inkscape:zoom="0.60749726"
     inkscape:cx="438.68511"
     inkscape:cy="627.16332"
     inkscape:window-width="2627"
     inkscape:window-height="1360"
     inkscape:window-x="689"
     inkscape:window-y="0"
     inkscape:window-maximized="0"
     inkscape:current-layer="g5" /><g
     id="g2615"
     style="display:inline"
     inkscape:label="Diamond"
     transform="matrix(1.2831591,0,0,1.2832076,-144.20473,-145.41122)"
     sodipodi:insensitive="true"><rect
       style="display:inline;fill:#ffffff;fill-opacity:1;stroke:#ffffff;stroke-width:0;stroke-linecap:round;stroke-dasharray:none;stroke-opacity:1"
       id="rect2622"
       width="530.30768"
       height="530.30768"
       x="460.46674"
       y="-264.84518"
       transform="rotate(45)"
       inkscape:label="whiterect" /><path
       style="display:inline;fill:#edc54d;fill-opacity:1"
       d="m 501.3878,901.75756 c -3.34953,-0.52888 -7.53359,-4.06395 -11.17712,-3.82507 l -6.69543,-4.36777 C 459.12455,871.62379 452.19059,856.7193 416.67034,822.80366 384.3764,791.96858 298.69287,706.79564 240.91292,649.60765 183.13297,592.41967 134.31972,545.37647 132.45635,542.47804 c -9.09598,-14.14855 -11.11566,-38.77577 0.0316,-56.14733 4.17183,-6.50123 344.10618,-349.43612 351.22568,-354.17819 3.02447,-2.0145 8.52191,-4.03587 11.35081,-6.73539 l 7.24068,-0.14056 7.08012,0.36024 c 11.91012,0.606 15.35385,1.70791 25.3811,2.83555 l 3.39221,4.67712 180.10306,174.67836 c 116.19584,112.69601 176.91552,176.68364 178.69181,178.87565 4.47636,5.52398 2.18911,7.36552 3.11461,11.53973 l 1.59376,7.18814 -1.1843,9.45178 0.2046,8.2172 -4.6639,9.3479 c -6.4019,12.8314 5.86787,3.56503 -200.25861,207.932 -31.69002,31.41951 -78.40328,78.10129 -103.80725,103.36006 -25.40398,25.25877 -41.50079,40.66544 -49.88615,46.92114 -13.0228,9.71536 -31.73059,12.50895 -34.8142,12.02206 z m 50.75349,-71.44048 c 21.86117,-21.72797 53.03672,-52.54603 69.27901,-68.48459 30.45369,-29.88419 76.85011,-75.85801 187.25224,-185.54665 l 63.80115,-63.38883 -1.61432,-2.46376 C 869.97149,509.07817 799.85919,438.95762 715.05424,354.6098 513.37476,154.0174 513.20876,153.85368 511.16845,153.51722 l -1.75217,-0.28895 -179.28124,178.78812 C 226.59816,435.26848 150.8538,511.5286 150.8538,512.51838 c 0,1.59722 112.60318,113.84843 267.72659,266.88973 82.33805,81.23289 91.76995,90.41437 92.8804,90.41437 0.51311,0 18.81934,-17.77743 40.6805,-39.5054 z m -58.85966,-2.93512 c -9.67011,-9.4964 -19.60144,-19.19094 -22.06961,-21.54343 -2.46817,-2.35248 -30.97063,-30.41982 -63.33879,-62.37187 C 375.50507,711.51461 347.43302,683.84704 345.4909,681.98318 328.39741,665.57841 176.02814,513.02273 176.02814,512.3131 c 0,-1.94296 332.84125,-333.02313 335.38578,-333.61123 2.11641,-0.48915 334.63895,330.44808 334.63895,333.04355 0,0.73089 -3.04997,4.32565 -6.7777,7.98836 -3.72774,3.6627 -6.77771,6.98081 -6.77771,7.37357 0,0.7649 -143.22338,143.64156 -205.75182,205.25373 -20.76883,20.46449 -54.76149,54.10091 -75.53925,74.74761 -20.77775,20.6467 -38.35486,37.53945 -39.06024,37.53945 -0.70537,0 -9.19441,-7.76978 -18.86452,-17.26618 z m 19.55635,-26.06273 c 0.49355,-0.93194 1.85897,-5.27133 3.03426,-9.64311 2.52376,-9.38774 2.60123,-9.4667 11.7676,-11.99399 3.91745,-1.08009 8.15332,-2.63317 9.41305,-3.45129 l 2.29041,-1.48749 -1.35043,-1.35043 c -0.74273,-0.74273 -4.98249,-2.07891 -9.42168,-2.96928 -9.57274,-1.92001 -10.6348,-2.86487 -13.07802,-11.6348 -3.59,-12.88637 -5.20416,-13.24715 -8.72501,-1.95013 -3.38267,10.85369 -3.73699,11.22557 -12.22909,12.83546 -16.32911,3.09558 -16.07458,5.31872 1.26155,11.01872 7.35523,2.41835 7.77432,2.93319 10.55454,12.96595 2.5326,9.1392 4.48059,11.44104 6.48282,7.66039 z M 500.06019,700.81047 c 0.96248,-2.50817 -0.78815,-4.77966 -8.38456,-10.87924 -23.18076,-18.6131 -41.95478,-42.38298 -57.13293,-72.33627 l -7.35953,-14.52366 -9.54495,-0.27901 c -12.03754,-0.35188 -11.87831,-0.60703 -6.82092,10.92969 13.09656,29.87537 29.36242,53.34087 52.20594,75.31351 11.08474,10.66215 16.14986,12.75654 31.82957,13.1613 l 4.62954,0.11951 z m 38.57526,-0.62097 4.84122,-1.03406 6.29359,-5.09226 c 14.86661,-12.02886 27.76384,-26.48364 38.85549,-43.54793 10.98468,-16.89972 22.25631,-39.1194 22.48907,-44.33251 l 0.13892,-3.11144 -6.75745,-0.29135 c -7.70822,-0.33235 -11.1489,0.28506 -11.16898,2.00423 -0.0503,4.3089 -16.7661,34.49619 -25.8827,46.74198 -12.17712,16.35679 -36.63895,40.58488 -44.82124,44.39295 -2.05344,0.95567 -3.3358,3.88978 -2.37763,5.44013 0.69153,1.11893 10.63625,0.48636 18.38971,-1.16974 z M 420.68569,581.52788 c -0.29036,-1.46447 -1.59161,-6.80192 -2.89167,-11.86099 -2.07529,-8.07584 -3.65861,-17.99051 -6.26225,-39.21388 l -0.71269,-5.80946 -10.03819,-0.27723 -10.03818,-0.27724 0.70661,9.47555 c 1.149,15.40782 5.4945,39.99271 8.73446,49.41561 l 0.41615,1.21031 h 10.30684 10.30685 z m 198.58505,1.45236 c 2.40801,-2.93708 9.89551,-43.7185 9.89551,-53.89685 v -4.99408 l -9.44037,0.27712 -9.44038,0.27712 -0.68763,7.26183 c -1.30298,13.76034 -3.75829,28.9677 -6.47537,40.10614 -1.49829,6.1421 -2.49655,11.39505 -2.21836,11.67324 1.11424,1.11424 17.38723,0.49003 18.3666,-0.70452 z M 280.7875,560.90477 c 2.1792,-2.9305 1.5912,-5.08074 -1.81359,-6.63206 l -2.48628,-1.13283 -2.30168,1.50812 c -2.68962,1.76231 -3.03518,5.43287 -0.72862,7.73943 2.11896,2.11895 5.10034,1.51591 7.33017,-1.48266 z m 468.11486,-0.53918 1.34589,-2.03948 -1.79889,-2.22153 -1.79888,-2.22152 -2.56923,0.64483 c -3.0177,0.7574 -4.45052,4.67763 -2.54765,6.97045 1.66289,2.00366 5.70948,1.3816 7.36876,-1.13275 z M 243.90409,538.49832 c 0.62439,-1.16669 2.05578,-5.61053 3.18086,-9.8752 l 2.0456,-7.75394 6.29358,-1.7814 c 9.60753,-2.71942 13.55542,-4.6612 13.55542,-6.66728 v -1.76239 l -5.08329,-1.44077 c -2.7958,-0.79243 -7.19007,-1.95496 -9.76504,-2.58341 l -4.68177,-1.14263 -0.79739,-2.0428 c -0.43857,-1.12354 -1.81745,-5.31062 -3.06419,-9.30463 l -2.26679,-7.26183 h -1.87911 -1.87912 l -2.9621,9.18916 -2.9621,9.18916 -2.42061,0.7004 c -1.33134,0.38523 -5.57951,1.60009 -9.44038,2.6997 l -7.01977,1.99929 v 1.88376 c 0,2.73069 3.92268,4.5217 15.71635,7.17575 3.07708,0.69247 4.5825,3.31707 6.98975,12.18612 2.40992,8.8789 4.22322,10.73523 6.4401,6.59294 z m 540.38925,-7.58482 c 3.27295,-10.99471 2.37313,-10.06574 12.91915,-13.33769 l 8.64472,-2.68206 0.32335,-1.67902 0.32334,-1.67901 -3.44973,-1.44139 c -1.89735,-0.79277 -5.74334,-1.92471 -8.54665,-2.51544 -6.79293,-1.43143 -6.91333,-1.56844 -9.92013,-11.28865 -3.96006,-12.80181 -5.52967,-12.90102 -9.18717,-0.58071 -2.75259,9.27213 -3.92279,10.40089 -12.83927,12.38462 -3.98786,0.88722 -8.07443,2.25089 -9.08126,3.03038 l -1.83059,1.41726 2.14766,1.82398 c 1.18122,1.00319 5.32046,2.5874 9.19832,3.52048 9.01166,2.16836 9.00629,2.16325 11.89608,11.31105 4.55086,14.40603 5.56928,14.59192 9.40218,1.7162 z M 411.58497,497.53272 c 2.19983,-19.67753 3.98561,-31.22963 6.56166,-42.44693 1.57017,-6.83725 2.60956,-12.82826 2.30976,-13.31335 -0.86234,-1.3953 -18.41496,-1.10068 -19.56084,0.32832 -2.84856,3.55238 -9.91728,44.25051 -9.91728,57.0987 v 5.66284 l 9.9245,-0.27594 9.9245,-0.27593 z m 217.81003,0.96825 c -0.63642,-14.4779 -4.69996,-40.48661 -7.98952,-51.13697 l -1.99947,-6.47354 h -9.5864 c -11.1014,0 -10.8667,-0.1759 -9.0435,6.77771 3.13397,11.9528 7.05599,33.10702 8.07812,43.57097 0.59822,6.12414 1.26632,11.69531 1.48467,12.38037 l 0.39701,1.24557 9.45723,-0.27732 9.45723,-0.27733 z m 119.63984,-36.50279 c 3.04941,-3.04941 0.74963,-9.48879 -3.38885,-9.48879 -2.51499,0 -6.09994,3.12971 -6.09994,5.32534 0,3.87812 6.79336,6.85888 9.48879,4.16345 z m -321.54859,-41.6829 c 0.50604,-0.66567 1.71342,-3.38886 2.68307,-6.05153 10.70143,-29.38621 40.01893,-68.02188 62.79197,-82.74951 8.93342,-5.77736 10.39527,-11.70855 2.85976,-11.60296 -13.2562,0.18576 -22.21987,3.51659 -31.93808,11.86795 -20.67746,17.7692 -41.62333,48.24059 -53.47183,77.78912 -5.16525,12.88143 -5.63727,11.95723 6.10703,11.95723 h 10.04801 z m 186.1881,-0.21686 c 0,-8.18671 -19.37243,-44.8126 -33.09221,-62.56477 -20.665,-26.73867 -33.56541,-35.85571 -52.83943,-37.34297 l -7.98801,-0.61638 v 3.43969 3.43969 l 4.39862,2.57776 c 25.21684,14.77805 57.21955,57.16435 68.55604,90.79972 l 0.57109,1.69442 h 10.19695 10.19695 z M 512.75433,277.01519 c 0.54048,-0.66567 1.75139,-4.04242 2.6909,-7.50389 0.93952,-3.46147 2.29641,-7.47578 3.01531,-8.92068 l 1.30709,-2.62709 4.10857,-1.00435 c 18.2111,-4.45176 19.71391,-8.25029 4.59269,-11.60859 -2.92893,-0.65049 -6.12798,-1.40463 -7.109,-1.67586 -1.98735,-0.54947 -5.42399,-7.3216 -5.4569,-10.75321 -0.0257,-2.68118 -3.56566,-9.88592 -4.8573,-9.88592 -1.38636,0 -3.7435,5.08626 -4.9377,10.65462 -1.4678,6.8441 -4.04034,9.45529 -11.04351,11.20941 -3.1952,0.80032 -7.02984,1.93458 -8.52141,2.52059 l -2.71194,1.06547 0.29133,2.04067 0.29134,2.04067 6.77771,2.22736 c 3.72773,1.22504 7.80739,2.53217 9.0659,2.90473 l 2.28819,0.67738 2.31097,6.16939 c 1.27103,3.39317 2.31096,6.89083 2.31096,7.77258 0,3.80398 3.75117,6.95752 5.5868,4.69672 z m -54.21443,-5.13818 c 4.21803,-2.95443 1.94699,-10.11166 -3.20851,-10.11166 -4.05459,0 -5.82621,6.41546 -2.71957,9.84826 1.95818,2.16376 3.13996,2.21627 5.92808,0.2634 z m 112.16263,-1.92125 1.61203,-2.46027 -1.08483,-2.38095 c -1.84744,-4.05467 -8.8723,-2.30395 -8.8723,2.21113 0,4.69336 5.79624,6.52013 8.3451,2.63009 z"
       id="path2619"
       inkscape:label="yellowdiamond"
       sodipodi:nodetypes="sscsssssscsscssscccssssssssscssscsssssssssssssssssssssscssssssssssscsssscsscssscssssssssscccsscccssscccsssssscsssscccssssscsscsscsscccccsscsssssscccsssssscssssssssscccssscsssscccsssssssssssscsssscccsscccsssscsssssssscccsscsssssssscsss" /><circle
       style="display:inline;fill:#7cc6de;fill-opacity:1;stroke:#ffffff;stroke-width:0;stroke-linecap:round;stroke-dasharray:none;stroke-opacity:1"
       id="path2623"
       cx="509.49194"
       cy="510.25403"
       r="195.98296"
       inkscape:label="blueglobe" /><g
       id="g2622"
       style="display:inline"
       inkscape:label="whitegrid"><path
         style="fill:#000000;fill-opacity:0;stroke:#ffffff;stroke-width:19.649;stroke-linecap:round;stroke-dasharray:none;stroke-opacity:1"
         d="m 509.99304,311.4767 c 0,0 -106.74593,43.97612 -108.60075,201.83467 -1.85482,157.85856 106.91702,197.46598 106.91702,197.46598"
         id="path2622"
         sodipodi:nodetypes="czc"
         inkscape:label="left" /><path
         style="display:inline;fill:#000000;fill-opacity:0;stroke:#ffffff;stroke-width:20;stroke-linecap:round;stroke-dasharray:none;stroke-opacity:1"
         d="m 509.83665,709.87862 c 0,0 103.53814,-44.00119 105.33722,-201.94976 C 616.97295,349.98029 511.46979,310.35029 511.46979,310.35029"
         id="path2622-3"
         sodipodi:nodetypes="czc"
         inkscape:label="right" /></g><path
       style="display:inline;fill:#d4af47;fill-opacity:1"
       d="m 500.09698,900.49899 c -7.53681,-1.4839 -10.49326,-1.00746 -12.81926,-3.02088 l -5.64568,-4.88698 -65.60848,-64.51695 C 379.06254,791.72808 323.4994,736.87334 292.06955,705.72678 260.63969,674.58022 210.50632,626.63311 182.38108,596.71882 l -50.57909,-53.79643 -5.62358,-6.50057 c -11.88923,-13.74333 -4.56436,-31.11504 -0.6521,-49.1701 l 5.19002,-4.53809 173.05559,-175.53398 C 341.38259,269.03034 483.31339,127.59352 494.44817,124.27813 l 5.25314,-1.56413 11.82332,-2.72805 12.04156,2.40068 6.35507,2.08121 c 3.26572,1.06948 6.08545,3.86436 8.28996,5.24355 2.20451,1.37918 83.36491,80.60225 180.6223,177.51887 l 177.1597,176.53898 1.97118,3.22071 c 10.86524,17.7527 3.62093,43.5482 -9.34856,58.76177 -3.41504,4.00593 -231.25303,234.38611 -244.84467,247.73048 l -99.04075,97.23894 -6.2086,4.16138 c -6.42814,4.30854 -31.7138,6.93777 -38.42484,5.61647 z M 588.60804,795.28301 C 660.6472,724.07485 738.55882,646.82593 830.93741,555.01485 l 41.52681,-41.2717 -0.60492,-2.41018 C 871.48741,509.85124 808.67389,446.67772 708.80136,347.3405 510.79979,150.4002 512.78263,152.3538 510.89601,152.3538 c -2.13576,0 -361.01046,358.01979 -361.01046,360.15047 0,1.69787 136.67462,137.84635 268.20355,267.17109 36.47858,35.86727 72.16776,71.05968 79.30928,78.20537 7.14152,7.14568 13.50793,12.86474 14.14756,12.70901 0.63964,-0.15573 35.31758,-34.04375 77.0621,-75.30673 z m -77.57917,47.7417 c -0.006,-0.43845 -1.26596,-7.11497 -2.79902,-14.83672 -1.53307,-7.72174 -3.10392,-16.83437 -3.49078,-20.25028 l -0.70337,-6.21075 -6.33663,-6.86054 c -3.48515,-3.7733 -15.52499,-16.23357 -26.75522,-27.6895 C 450.40526,746.22556 430.97511,726.22428 408.2083,702.59733 401.44253,695.57594 390.76764,685.7322 384.48633,680.72235 233.23206,560.085 295.94417,326.55447 485.9163,300.87161 l 11.74427,-1.58774 19.01392,0.51044 c 70.91214,1.90368 129.17885,35.62083 173.43807,101.64021 3.83785,5.72474 7.312,10.40862 7.72032,10.40862 0.40832,0 5.27695,5.29019 10.81917,11.75597 38.23453,44.60598 36.53777,43.02301 40.59165,37.86933 l 2.09226,-2.65987 -0.54517,-3.40926 c -1.78632,-11.17106 1.07589,-12.68855 8.6468,-4.58435 3.10932,3.32834 16.13591,16.89068 28.94797,30.13853 12.81206,13.24785 27.75637,28.71555 33.20957,34.37266 5.4532,5.6571 9.91923,10.80696 9.9245,11.44413 0.0171,2.06295 -316.37854,316.12858 -319.08836,316.73855 -0.76492,0.17218 -1.396,-0.0457 -1.4024,-0.48412 z m 3.25104,-44.61021 c 0.8022,-2.52954 2.15378,-7.09506 3.0035,-10.14561 l 1.54496,-5.54644 5.54644,-1.52576 c 8.43288,-2.31978 13.51131,-4.29176 14.68044,-5.70047 l 1.05645,-1.27295 -1.22225,-0.99792 c -1.52411,-1.24438 -11.04658,-4.09529 -13.74309,-4.1145 -1.10154,-0.008 -3.06631,-0.55251 -4.36616,-1.21036 l -2.36334,-1.19607 -2.99579,-9.68239 c -3.84457,-12.42564 -4.86408,-12.48036 -9.01804,-0.48408 -3.79674,10.96465 -3.88072,11.05545 -11.56749,12.50724 -17.50804,3.30671 -17.44757,6.40811 0.22894,11.74372 7.51896,2.26958 8.70171,3.298 9.65852,8.39825 0.36119,1.92528 1.52598,5.82385 2.58843,8.6635 l 1.93172,5.16299 1.57087,1.85507 2.00734,-1.85507 z m -13.33326,-97.49554 c 0.32655,-1.30107 0.2754,-2.88064 -0.11367,-3.51016 -0.38906,-0.62952 -0.62214,-21.96241 -0.51796,-47.40641 l 0.18943,-46.26183 -1.02402,-0.63288 c -1.24117,-0.76709 -153.94226,-0.91061 -154.70747,-0.1454 -1.33006,1.33007 11.59278,19.75527 23.75699,33.87237 22.52709,26.14368 57.67355,48.99425 88.77302,57.71605 4.26027,1.19478 11.01378,3.20115 15.00778,4.4586 7.43602,2.3411 16.66883,3.94345 23.94559,4.15573 l 4.09659,0.11951 z m 35.74416,0.32539 c 20.21165,-2.85039 57.48765,-47.39954 74.56112,-89.10922 4.07095,-9.94512 4.41593,-9.54795 -8.29324,-9.54795 h -10.60138 l -1.64029,4.11504 c -12.34756,30.97659 -38.7915,65.63619 -64.38826,84.39251 l -6.48842,4.75446 -0.63044,2.87038 c -1.02232,4.65461 0.65789,4.89728 17.48091,2.52478 z m -8.51264,-44.67758 c 8.84344,-12.93825 22.44152,-35.40038 27.39604,-45.25443 l 3.92222,-7.80091 -1.26199,-0.48427 c -0.69409,-0.26635 -9.52705,-0.36538 -19.6288,-0.22006 l -18.36682,0.2642 -0.25529,31.70999 c -0.14041,17.44049 0.11965,31.70998 0.57792,31.70998 0.45827,0 3.88579,-4.46602 7.61672,-9.9245 z m -28.99865,-72.90169 1.2103,-0.382 v -29.02056 c 0,-17.77997 -0.36516,-29.24625 -0.94277,-29.60323 -1.10539,-0.68317 -178.12834,-0.8766 -178.80956,-0.19538 -2.45327,2.45327 9.23173,53.41409 13.41454,58.50375 l 0.98432,1.19772 33.05424,0.25464 c 39.4463,0.30389 129.37507,-0.21401 131.08893,-0.75494 z m 120.51202,0.63055 2.27027,-0.86315 3.60773,-18.74378 c 3.88659,-20.19262 6.14611,-37.53548 5.2086,-39.97858 l -0.58287,-1.51893 h -10.16288 -10.16288 l -0.87219,1.69442 c -0.47971,0.93194 -1.1634,5.83367 -1.51932,10.89275 -0.80942,11.50529 -2.84017,23.742 -6.06133,36.5238 -1.3718,5.44341 -2.23866,10.563 -1.92635,11.37687 l 0.56784,1.47976 h 8.68155 c 4.77485,0 9.70318,-0.38842 10.95183,-0.86316 z m -51.91404,-0.84609 c 2.70072,-1.80737 22.60319,-52.8452 22.64852,-58.07981 l 0.0105,-1.2103 h -35.3409 -35.3409 v 30.01556 30.01556 l 23.47991,-0.0148 c 12.91395,-0.008 23.95825,-0.33494 24.54289,-0.72618 z M 748.42607,562.255 c 2.54034,-2.29899 2.22726,-5.79971 -0.68961,-7.71091 l -2.46027,-1.61204 -2.38095,1.08483 -2.38095,1.08484 v 2.50502 c 0,5.70313 4.09058,8.10639 7.91178,4.64826 z m 33.39111,-21.87749 c 0.41301,-0.66566 1.86056,-5.34954 3.21678,-10.40862 l 2.46585,-9.19831 3.86013,-1.14835 c 2.12307,-0.63158 6.38611,-1.84796 9.47342,-2.70305 10.01777,-2.77463 8.5396,-6.08171 -4.11608,-9.20881 l -8.59732,-2.12433 -1.01576,-2.57429 c -0.55867,-1.41586 -1.30436,-3.88142 -1.6571,-5.47903 -3.38785,-15.34427 -6.87234,-15.12465 -11.43133,0.72051 -1.7473,6.07289 -3.65802,7.86678 -9.46142,8.88287 -1.95519,0.34232 -5.76765,1.27953 -8.47213,2.08267 l -4.91724,1.46027 v 1.81889 1.8189 l 4.11503,1.50297 c 2.26327,0.82664 6.68233,2.14462 9.82013,2.92885 7.00397,1.75051 6.55743,1.23908 9.79675,11.22024 3.82045,11.77179 4.98643,13.52551 6.92029,10.40862 z m -282.62422,-36.1095 1.22376,-0.39124 -0.25551,-31.2511 -0.25551,-31.25109 -45.02334,-0.48412 c -24.76283,-0.26627 -62.23387,-0.26627 -83.26897,0 l -38.24563,0.48412 -4.01702,12.10305 c -4.23068,12.7468 -7.76935,31.38804 -8.27108,43.57097 l -0.29907,7.26183 34.85678,0.48412 c 37.0385,0.51443 141.49805,0.13129 143.55559,-0.52654 z m 132.26162,0.85551 3.7407,-0.61797 1.26904,-3.03723 c 1.76654,-4.22792 8.89273,-33.37192 11.53469,-47.17346 l 2.19355,-11.45907 -1.19532,-0.99203 c -0.67889,-0.56343 -6.99891,-1.02428 -14.62819,-1.06668 -31.58871,-0.17554 -113.22268,0.37442 -113.88817,0.76725 -0.3994,0.23576 -0.72618,14.56351 -0.72618,31.83944 v 31.41078 h 37.68232 c 38.70637,0 40.74543,-0.13253 40.74543,-2.6483 0,-2.99699 6.15415,-24.50203 6.80219,-23.76955 0.84533,0.95548 2.88313,15.90648 2.88148,21.14092 -0.002,6.16397 8.28663,8.13378 23.58846,5.6059 z m -132.2202,-84.14784 1.26516,-0.39967 0.004,-47.69534 c 0.005,-57.69666 0.052,-53.17793 -0.56361,-53.79351 -1.10777,-1.10777 -19.7558,1.95897 -28.03654,4.61071 -4.83493,1.54828 -13.80968,4.35326 -19.9439,6.23327 -37.73136,11.56392 -76.082,41.36647 -100.79,78.32462 -4.19924,6.28121 -7.63499,11.83047 -7.63499,12.33169 0,1.41192 151.26558,1.78909 155.70006,0.38823 z m 154.3079,-0.29924 c 0.35973,-0.33177 1.5525,-4.0889 2.65059,-8.34917 1.0981,-4.26028 2.51848,-9.56318 3.15641,-11.78422 l 1.15986,-4.03827 -3.80269,-4.67593 c -23.31436,-28.66821 -57.63427,-52.53976 -90.11756,-62.68215 -6.32131,-1.97373 -14.76111,-4.63837 -18.75512,-5.92142 -8.39437,-2.69664 -26.7344,-5.19918 -27.83929,-3.79873 -0.39814,0.50465 -0.58997,23.67823 -0.42629,51.49684 l 0.29762,50.57929 36.97977,0.27324 c 44.22648,0.32678 95.78591,-0.25947 96.6967,-1.09948 z"
       id="path2617"
       inkscape:label="yellowshadow"
       sodipodi:nodetypes="sscssscsscsscccssscssscsssscsssssssscsscssssscssssscsssssscsscsscssscsssssscccsssscsssssscsssscsscsssscsscsssscsssscssscsscccsssscssssccccccsssscccsssscssscssssscccssssscccsscsscssscsscsssscssssscccsssssccssscssssscss" /><path
       style="display:inline;fill:#6da8be;fill-opacity:1"
       d="m 498.24191,893.70913 c -3.04522,-0.77415 -8.27373,-2.77191 -11.61892,-4.43946 l -6.08217,-3.03191 C 410.31027,832.90655 355.95336,764.21955 294.14287,701.90751 239.73982,648.00183 191.50034,600.15381 137.14896,546.19605 l -3.87763,-7.91915 c -7.99151,-16.32081 -7.59552,-34.83136 1.09385,-51.1343 l 3.11671,-5.84755 172.50998,-166.58599 C 486.30876,144.44689 481.92523,131.77629 493.35695,129.70481 l 9.83626,-1.78237 c 8.7453,-1.16933 17.55017,0.14284 21.4642,1.20034 9.73775,2.93391 7.06942,0.45713 15.08152,5.46968 2.20451,1.37918 74.60366,81.62705 174.62059,175.69322 l 170.83404,171.95585 2.51679,4.96666 c 9.40812,18.56608 6.56722,45.5124 -6.40227,60.72597 -3.41504,4.00593 -35.56779,35.03193 -200.21721,199.71684 l -134.39626,134.42521 -6.09947,3.94314 c -11.96844,7.73727 -29.5848,10.93575 -42.35323,7.68978 z m 90.36613,-98.42612 C 660.6472,724.07485 738.55882,646.82593 830.93741,555.01485 l 41.52681,-41.2717 -0.60492,-2.41018 C 871.48741,509.85124 808.67389,446.67772 708.80136,347.3405 510.79979,150.4002 512.78263,152.3538 510.89601,152.3538 c -2.13576,0 -361.01046,358.01979 -361.01046,360.15047 0,1.69787 136.67462,137.84635 268.20355,267.17109 36.47858,35.86727 72.16776,71.05968 79.30928,78.20537 7.14152,7.14568 13.50793,12.86474 14.14756,12.70901 0.63964,-0.15573 35.31758,-34.04375 77.0621,-75.30673 z m -96.961,-73.66972 c -88.77761,-7.362 -168.09491,-79.3392 -187.5584,-170.20158 l -2.62288,-12.2445 0.0201,-27.11083 0.0201,-27.11083 2.64682,-12.47629 c 40.92575,-192.9116 285.56269,-234.27878 387.16025,-65.46733 85.98771,142.8746 -31.83649,328.52883 -199.66598,314.61136 z m 9.29961,-20.69433 c 0.32655,-1.30107 0.2754,-2.88064 -0.11367,-3.51016 -0.38906,-0.62952 -0.62214,-21.96241 -0.51796,-47.40641 l 0.18943,-46.26183 -1.02402,-0.63288 c -1.24117,-0.76709 -153.94226,-0.91061 -154.70747,-0.1454 -1.33006,1.33007 11.59278,19.75527 23.75699,33.87237 22.52709,26.14368 57.67355,48.99425 88.77302,57.71605 4.26027,1.19478 11.01378,3.20115 15.00778,4.4586 7.43602,2.3411 16.66883,3.94345 23.94559,4.15573 l 4.09659,0.11951 z m 35.74416,0.32539 c 20.21165,-2.85039 57.48765,-47.39954 74.56112,-89.10922 4.07095,-9.94512 4.41593,-9.54795 -8.29324,-9.54795 h -10.60138 l -1.64029,4.11504 c -12.34756,30.97659 -38.7915,65.63619 -64.38826,84.39251 l -6.48842,4.75446 -0.63044,2.87038 c -1.02232,4.65461 0.65789,4.89728 17.48091,2.52478 z m -8.51264,-44.67758 c 8.84344,-12.93825 22.44152,-35.40038 27.39604,-45.25443 l 3.92222,-7.80091 -1.26199,-0.48427 c -0.69409,-0.26635 -9.52705,-0.36538 -19.6288,-0.22006 l -18.36682,0.2642 -0.25529,31.70999 c -0.14041,17.44049 0.11965,31.70998 0.57792,31.70998 0.45827,0 3.88579,-4.46602 7.61672,-9.9245 z m -28.99865,-72.90169 1.2103,-0.382 v -29.02056 c 0,-17.77997 -0.36516,-29.24625 -0.94277,-29.60323 -1.10539,-0.68317 -178.12834,-0.8766 -178.80956,-0.19538 -2.45327,2.45327 9.23173,53.41409 13.41454,58.50375 l 0.98432,1.19772 33.05424,0.25464 c 39.4463,0.30389 129.37507,-0.21401 131.08893,-0.75494 z m 120.51202,0.63055 2.27027,-0.86315 3.60773,-18.74378 c 3.88659,-20.19262 6.14611,-37.53548 5.2086,-39.97858 l -0.58287,-1.51893 h -10.16288 -10.16288 l -0.87219,1.69442 c -0.47971,0.93194 -1.1634,5.83367 -1.51932,10.89275 -0.80942,11.50529 -2.84017,23.742 -6.06133,36.5238 -1.3718,5.44341 -2.23866,10.563 -1.92635,11.37687 l 0.56784,1.47976 h 8.68155 c 4.77485,0 9.70318,-0.38842 10.95183,-0.86316 z m -51.91404,-0.84609 c 2.70072,-1.80737 22.60319,-52.8452 22.64852,-58.07981 l 0.0105,-1.2103 h -35.3409 -35.3409 v 30.01556 30.01556 l 23.47991,-0.0148 c 12.91395,-0.008 23.95825,-0.33494 24.54289,-0.72618 z m -68.58454,-79.18153 1.22376,-0.39124 -0.25551,-31.2511 -0.25551,-31.25109 -45.02334,-0.48412 c -24.76283,-0.26627 -62.23387,-0.26627 -83.26897,0 l -38.24563,0.48412 -4.01702,12.10305 c -4.23068,12.7468 -7.76935,31.38804 -8.27108,43.57097 l -0.29907,7.26183 34.85678,0.48412 c 37.0385,0.51443 141.49805,0.13129 143.55559,-0.52654 z m 132.26162,0.85551 3.7407,-0.61797 1.26904,-3.03723 c 1.76654,-4.22792 8.89273,-33.37192 11.53469,-47.17346 l 2.19355,-11.45907 -1.19532,-0.99203 c -0.67889,-0.56343 -6.99891,-1.02428 -14.62819,-1.06668 -31.58871,-0.17554 -113.22268,0.37442 -113.88817,0.76725 -0.3994,0.23576 -0.72618,14.56351 -0.72618,31.83944 v 31.41078 h 37.68232 c 38.70637,0 40.74543,-0.13253 40.74543,-2.6483 0,-2.99699 6.15415,-24.50203 6.80219,-23.76955 0.84533,0.95548 2.88313,15.90648 2.88148,21.14092 -0.002,6.16397 8.28663,8.13378 23.58846,5.6059 z m -132.2202,-84.14784 1.26516,-0.39967 0.004,-47.69534 c 0.005,-57.69666 0.052,-53.17793 -0.56361,-53.79351 -1.10777,-1.10777 -19.7558,1.95897 -28.03654,4.61071 -4.83493,1.54828 -13.80968,4.35326 -19.9439,6.23327 -37.73136,11.56392 -76.082,41.36647 -100.79,78.32462 -4.19924,6.28121 -7.63499,11.83047 -7.63499,12.33169 0,1.41192 151.26558,1.78909 155.70006,0.38823 z m 154.3079,-0.29924 c 0.35973,-0.33177 1.5525,-4.0889 2.65059,-8.34917 1.0981,-4.26028 2.51848,-9.56318 3.15641,-11.78422 l 1.15986,-4.03827 -3.80269,-4.67593 c -23.31436,-28.66821 -57.63427,-52.53976 -90.11756,-62.68215 -6.32131,-1.97373 -14.76111,-4.63837 -18.75512,-5.92142 -8.39437,-2.69664 -26.7344,-5.19918 -27.83929,-3.79873 -0.39814,0.50465 -0.58997,23.67823 -0.42629,51.49684 l 0.29762,50.57929 36.97977,0.27324 c 44.22648,0.32678 95.78591,-0.25947 96.6967,-1.09948 z"
       id="path2616"
       inkscape:label="blueshadow"
       sodipodi:nodetypes="sscscsscssccsscssscsssscsssssssssscccssssssscsssssscsssscsscsssscsscsssscsssscssscsscccsssscssssccccccssscccsscsscssscsscsssscssssscccsssssccssscssssscss" /><path
       style="display:inline;fill:#1e537c;fill-opacity:1"
       d="m 496.03272,902.69758 c -3.1952,-1.0301 -8.2854,-3.29311 -11.31156,-5.0289 L 479.21906,894.5127 359.8177,775.91604 C 294.14696,710.68788 215.79875,632.91695 185.71058,603.09176 155.6224,573.26657 129.40064,546.7871 127.44,544.2485 c -11.52528,-14.92271 -12.58881,-41.63699 -2.34943,-59.01404 1.37297,-2.33004 54.78076,-56.39488 121.3408,-122.83357 C 496.14801,113.13951 482.46098,126.31592 496.03272,122.11133 l 6.77771,-2.09977 h 8.7142 8.71419 l 6.77771,2.09355 c 12.01365,3.71086 11.23442,2.96731 193.0379,184.19946 l 176.29027,175.73625 2.36351,4.3571 c 7.08263,13.05675 8.05043,33.12129 2.26506,46.95983 -4.95996,11.86416 4.53799,2.13754 -213.71239,218.8575 -154.82418,153.73852 -142.29549,141.66288 -152.2464,146.74103 -11.40555,5.82048 -27.68583,7.38299 -38.98176,3.7413 z m 63.84812,-78.15168 c 26.12496,-25.96718 62.0962,-61.58237 79.93609,-79.14487 17.8399,-17.56249 61.19302,-60.56126 96.34027,-95.55282 35.14725,-34.99155 80.42075,-79.89745 100.60778,-99.79089 l 36.7037,-36.16988 -0.62109,-2.4746 C 872.45425,509.84566 812.65379,449.6846 709.76633,347.34823 510.84525,149.49261 512.76585,151.38555 510.94104,151.38555 c -2.10781,0 -362.02373,358.99989 -362.02373,361.10234 0,2.38025 360.06192,359.15299 362.55134,359.23941 0.50174,0.0174 22.28723,-21.21421 48.41219,-47.1814 z m -68.2338,-102.93261 c -88.77761,-7.362 -168.09491,-79.3392 -187.5584,-170.20158 l -2.62288,-12.2445 0.0201,-27.11083 0.0201,-27.11083 2.64682,-12.47629 c 40.92575,-192.9116 285.56269,-234.27878 387.16025,-65.46733 85.98771,142.8746 -31.83649,328.52883 -199.66598,314.61136 z m 9.47778,-68.13608 c 0.13798,-27.6603 -0.0799,-50.60944 -0.48413,-50.99808 -0.73401,-0.70568 -63.62913,-1.19528 -125.39638,-0.97613 l -32.67823,0.11594 v 1.26373 c 0,6.79944 32.23994,44.78986 49.86455,58.75863 30.16626,23.90894 79.19871,43.54649 105.53858,42.26832 l 2.90473,-0.14096 z m 47.13147,45.94933 c 49.65782,-12.07535 85.77892,-35.91373 116.65962,-76.99036 8.14282,-10.83135 12.05681,-17.50771 11.34749,-19.35617 l -0.54481,-1.41976 -78.3979,-0.0299 -78.3979,-0.0299 -0.57579,1.81414 c -0.31668,0.99778 -0.34736,23.36589 -0.0682,49.70691 0.27919,26.34103 0.50762,48.46881 0.50762,49.17285 v 1.28007 l 8.76432,-0.62211 c 4.82038,-0.34216 14.13786,-1.92879 20.70551,-3.52586 z m -48.10853,-114.79146 1.21031,-0.38376 V 553.7397 523.22808 l -2.17855,-0.4268 c -1.1982,-0.23473 -42.04599,-0.35196 -90.77286,-0.2605 l -88.59431,0.16628 0.18946,7.70243 c 0.34132,13.87607 9.35522,50.45245 13.225,53.66408 1.83785,1.52528 162.1803,2.06466 166.92095,0.56151 z m 187.25496,-1.47248 c 3.99268,-4.61773 12.01079,-35.78509 13.11794,-50.99101 l 0.57986,-7.96387 -1.35242,-0.4856 c -0.74383,-0.26707 -41.35511,-0.6562 -90.24729,-0.86472 l -88.89489,-0.37912 -1.39385,1.39386 -1.39386,1.39385 0.0148,28.7361 c 0.008,15.80485 0.35768,29.27593 0.77674,29.93574 l 0.76191,1.19964 41.09981,0.25272 c 22.60489,0.139 60.05318,0.1095 83.21841,-0.0655 l 42.11861,-0.31827 z m -188.2232,-77.42308 2.17855,0.0233 v -32.37903 c 0,-19.38743 -0.36878,-32.60694 -0.91911,-32.94706 -0.5055,-0.31242 -38.26475,-0.579 -83.90943,-0.5924 l -82.99034,-0.0244 -1.20206,1.26145 c -4.04822,4.24818 -11.57789,36.73173 -12.68982,54.74483 l -0.61189,9.91242 35.72936,0.25414 c 19.65115,0.13978 59.6934,0.13473 88.98278,-0.0112 29.28937,-0.14594 54.23376,-0.25487 55.43196,-0.24206 z m 201.68498,-1.06427 c 2.93485,-4.52093 -8.94286,-58.40217 -14.02428,-63.61882 l -1.25305,-1.2864 -83.07254,0.0298 -83.07255,0.0298 -0.79711,1.2566 c -1.01921,1.60672 -1.052,61.85461 -0.0345,63.45666 l 0.76256,1.2007 45.94038,0.25167 c 63.98273,0.35049 134.9151,-0.34025 135.55113,-1.32001 z m -200.70816,-82.02549 1.21888,-0.76494 -0.25064,-51.7386 -0.25064,-51.73861 -6.21402,0.29422 c -28.87541,1.36719 -68.54883,17.05478 -96.8749,38.3061 -25.02555,18.77513 -61.9991,63.02923 -54.97688,65.80251 2.05193,0.81036 156.05149,0.65311 157.3482,-0.16068 z m 162.89845,-0.0204 14.03953,-0.61964 -0.12836,-1.65773 c -1.52277,-19.66577 -57.42252,-70.8526 -95.24366,-87.21363 -18.65489,-8.06992 -59.56155,-17.94365 -62.4351,-15.0701 -0.25108,0.25109 -0.69975,23.45954 -0.99704,51.57435 l -0.54052,51.11783 1.11323,1.34136 1.11322,1.34135 64.51958,-0.0971 c 35.48577,-0.0534 70.83737,-0.37592 78.55912,-0.71672 z"
       id="path2615"
       inkscape:label="blueborder" /></g><g
     inkscape:groupmode="layer"
     id="g5"
     inkscape:label="EOMasters Toolbox Basic copy"
     style="display:inline"><path
       d="M 106.21631,393.38315 H 16.816895 V 269.78452 h 89.399415 v 23.90625 H 48.525879 v 21.333 h 53.540041 v 23.90625 H 48.525879 v 30.54688 h 57.690431 z m 146.92383,-61.75781 q 0,29.55078 -16.9336,46.98242 -16.93359,17.34863 -46.8164,17.34863 -29.79981,0 -46.7334,-17.34863 -16.9336,-17.43164 -16.9336,-46.98242 0,-29.79981 16.9336,-47.06543 16.93359,-17.34864 46.7334,-17.34864 29.71679,0 46.7334,17.34864 17.0166,17.26562 17.0166,47.06543 z m -42.25098,31.29394 q 4.64844,-5.64453 6.88965,-13.28125 2.24121,-7.71973 2.24121,-18.0957 0,-11.12305 -2.57324,-18.92578 -2.57324,-7.80274 -6.72364,-12.61719 -4.23339,-4.98047 -9.79492,-7.22168 -5.47851,-2.24121 -11.45508,-2.24121 -6.05957,0 -11.45507,2.1582 -5.3125,2.1582 -9.79493,7.13867 -4.15039,4.64844 -6.80664,12.86621 -2.57324,8.13477 -2.57324,18.92579 0,11.04003 2.49024,18.84277 2.57324,7.71973 6.72363,12.61719 4.15039,4.89746 9.71191,7.22168 5.56153,2.32422 11.7041,2.32422 6.14258,0 11.70411,-2.32422 5.56152,-2.40723 9.71191,-7.3877 z m 196.14746,30.46387 h -31.70898 v -82.75879 l -22.91016,53.70605 h -21.99707 l -22.91016,-53.70605 v 82.75879 H 277.46143 V 269.78452 h 37.02148 l 27.80762,62.00683 27.72461,-62.00683 h 37.02148 z m 86.32813,-24.32129 v -19.42383 q -6.05957,0.49805 -13.11524,1.41113 -7.05566,0.83008 -10.70801,1.99219 -4.48242,1.41113 -6.88964,4.15039 -2.32422,2.65625 -2.32422,7.05567 0,2.90527 0.49804,4.73144 0.49805,1.82617 2.49024,3.48633 1.90918,1.66016 4.56543,2.49023 2.65625,0.74707 8.30078,0.74707 4.48242,0 9.04785,-1.82617 4.64844,-1.82617 8.13477,-4.81445 z m 0,14.44336 q -2.40723,1.82617 -5.97657,4.39941 -3.56933,2.57324 -6.72363,4.06739 -4.39941,1.99218 -9.13086,2.90527 -4.73144,0.99609 -10.37598,0.99609 -13.28125,0 -22.24609,-8.21777 -8.96484,-8.21777 -8.96484,-21.00098 0,-10.20996 4.56543,-16.68457 4.56543,-6.47461 12.94922,-10.20996 8.30078,-3.73535 20.58593,-5.3125 12.28516,-1.57715 25.4834,-2.32422 v -0.49804 q 0,-7.71973 -6.30859,-10.625 -6.3086,-2.98829 -18.59375,-2.98829 -7.3877,0 -15.77149,2.65625 -8.38379,2.57325 -12.03613,3.98438 h -2.73926 v -22.49512 q 4.73145,-1.24511 15.35645,-2.90527 10.70801,-1.74317 21.41601,-1.74317 25.4834,0 36.77246,7.88575 11.37208,7.80273 11.37208,24.57031 v 63.41797 h -29.63379 z m 138.125,-19.67285 q 0,14.44336 -12.94922,23.32519 -12.94922,8.79883 -35.44434,8.79883 -12.45117,0 -22.57812,-2.32422 -10.12696,-2.32422 -16.26953,-5.14648 v -24.57032 h 2.73925 q 2.24121,1.57715 5.14649,3.48633 2.98828,1.82617 8.38379,3.98438 4.64843,1.90918 10.54199,3.32031 5.89355,1.32813 12.61719,1.32813 8.79882,0 13.03222,-1.90918 4.2334,-1.99219 4.2334,-5.81055 0,-3.40332 -2.49023,-4.89746 -2.49024,-1.57715 -9.46289,-2.98828 -3.32032,-0.74707 -9.04786,-1.57715 -5.64453,-0.91309 -10.29296,-2.1582 -12.7002,-3.32032 -18.84278,-10.29297 -6.14258,-7.05567 -6.14258,-17.51465 0,-13.44727 12.7002,-22.3291 12.7832,-8.96485 34.86328,-8.96485 10.45899,0 20.00488,2.15821 9.62891,2.07519 15.02442,4.48242 v 23.57422 h -2.57324 q -6.64063,-4.56543 -15.19043,-7.3877 -8.4668,-2.90527 -17.18262,-2.90527 -7.22168,0 -12.20215,1.99219 -4.89746,1.99218 -4.89746,5.64453 0,3.32031 2.24121,5.06347 2.24121,1.74317 10.54199,3.48633 4.56543,0.91309 9.79492,1.82617 5.3125,0.83008 10.625,2.15821 11.78711,3.07129 17.43164,9.71191 5.64454,6.55762 5.64454,16.43555 z m 79.43847,28.7207 q -4.81445,1.24512 -10.20996,1.90918 -5.39551,0.74707 -13.19824,0.74707 -17.43164,0 -25.98145,-7.05566 -8.46679,-7.05567 -8.46679,-24.15528 v -43.5791 h -12.28516 v -20.25391 h 12.28516 v -26.6455 h 29.88281 v 26.6455 h 27.97363 v 20.25391 h -27.97363 v 33.03711 q 0,4.89746 0.083,8.54981 0.083,3.65234 1.32812,6.55761 1.16211,2.90528 4.06739,4.64844 2.98828,1.66016 8.63281,1.66016 2.32422,0 6.05957,-0.9961 3.81836,-0.99609 5.3125,-1.82617 h 2.49023 z m 109.65332,-40.25879 h -68.39843 q 0.66406,10.95703 8.30078,16.76758 7.71972,5.81055 22.66113,5.81055 9.46289,0 18.34473,-3.40332 8.88183,-3.40332 14.02832,-7.30469 h 3.32031 v 23.98926 q -10.12695,4.06738 -19.0918,5.89355 -8.96484,1.82617 -19.83887,1.82617 -28.05664,0 -42.99804,-12.61718 -14.94141,-12.61719 -14.94141,-35.94239 0,-23.07617 14.11133,-36.52344 14.19434,-13.53027 38.84766,-13.53027 22.74414,0 34.19921,11.53809 11.45508,11.45508 11.45508,33.03711 z m -29.71679,-17.51465 q -0.24903,-9.37988 -4.64844,-14.11133 -4.39942,-4.73144 -13.69629,-4.73144 -8.63281,0 -14.19434,4.48242 -5.56152,4.48242 -6.22558,14.36035 z m 118.36914,-6.14258 h -2.65625 q -1.90918,-0.66406 -6.14258,-0.99609 -4.2334,-0.33203 -7.05567,-0.33203 -6.3916,0 -11.28906,0.83008 -4.89746,0.83008 -10.54199,2.82226 v 62.42188 h -29.88281 v -93.21778 h 29.88281 v 13.69629 q 9.87793,-8.46679 17.18262,-11.20605 7.30468,-2.82227 13.44726,-2.82227 1.57715,0 3.56934,0.083 1.99219,0.083 3.48633,0.24902 z m 97.94921,35.19532 q 0,14.44336 -12.94921,23.32519 -12.94922,8.79883 -35.44434,8.79883 -12.45117,0 -22.57812,-2.32422 -10.12696,-2.32422 -16.26954,-5.14648 v -24.57032 h 2.73926 q 2.24121,1.57715 5.14649,3.48633 2.98828,1.82617 8.38379,3.98438 4.64843,1.90918 10.54199,3.32031 5.89355,1.32813 12.61719,1.32813 8.79882,0 13.03222,-1.90918 4.2334,-1.99219 4.2334,-5.81055 0,-3.40332 -2.49023,-4.89746 -2.49024,-1.57715 -9.46289,-2.98828 -3.32032,-0.74707 -9.04786,-1.57715 -5.64453,-0.91309 -10.29296,-2.1582 -12.7002,-3.32032 -18.84278,-10.29297 -6.14258,-7.05567 -6.14258,-17.51465 0,-13.44727 12.7002,-22.3291 12.7832,-8.96485 34.86328,-8.96485 10.45898,0 20.00488,2.15821 9.62891,2.07519 15.02441,4.48242 v 23.57422 h -2.5732 q -6.64066,-4.56543 -15.19046,-7.3877 -8.4668,-2.90527 -17.18262,-2.90527 -7.22168,0 -12.20215,1.99219 -4.89746,1.99218 -4.89746,5.64453 0,3.32031 2.24121,5.06347 2.24121,1.74317 10.54199,3.48633 4.56543,0.91309 9.79492,1.82617 5.3125,0.83008 10.625,2.15821 11.78711,3.07129 17.43167,9.71191 5.6445,6.55762 5.6445,16.43555 z"
       id="text5"
       style="font-weight:bold;font-size:170px;font-family:Verdana;-inkscape-font-specification:'Verdana Bold';text-align:center;text-anchor:middle;stroke:#636363;stroke-width:0;stroke-linecap:round"
       aria-label="EOMasters&#10;" /><path
       d="m 245.50342,660.80481 h -38.59863 v 99.69238 h -31.875 v -99.69238 h -38.59864 v -23.90625 h 109.07227 z m 112.80762,53.125 q 0,22.99316 -13.44727,36.27441 -13.36426,13.19825 -37.60254,13.19825 -24.23828,0 -37.68555,-13.19825 -13.36425,-13.28125 -13.36425,-36.27441 0,-23.15918 13.44726,-36.35742 13.53027,-13.19824 37.60254,-13.19824 24.4043,0 37.68555,13.28125 13.36426,13.28125 13.36426,36.27441 z m -36.77247,22.66113 q 2.90528,-3.56933 4.31641,-8.5498 1.49414,-5.06348 1.49414,-13.94531 0,-8.21778 -1.49414,-13.7793 -1.49414,-5.56153 -4.15039,-8.88184 -2.65625,-3.40332 -6.3916,-4.81445 -3.73535,-1.41113 -8.05176,-1.41113 -4.31641,0 -7.71973,1.16211 -3.32031,1.16211 -6.3916,4.64843 -2.73926,3.23731 -4.39941,8.88184 -1.57715,5.64453 -1.57715,14.19434 0,7.63671 1.41113,13.28125 1.41114,5.56152 4.15039,8.96484 2.65625,3.2373 6.3086,4.73144 3.73535,1.49414 8.46679,1.49414 4.06739,0 7.71973,-1.32812 3.73535,-1.41113 6.30859,-4.64844 z m 153.48145,-22.66113 q 0,22.99316 -13.44727,36.27441 -13.36425,13.19825 -37.60254,13.19825 -24.23828,0 -37.68554,-13.19825 -13.36426,-13.28125 -13.36426,-36.27441 0,-23.15918 13.44727,-36.35742 13.53027,-13.19824 37.60253,-13.19824 24.4043,0 37.68555,13.28125 13.36426,13.28125 13.36426,36.27441 z m -36.77246,22.66113 q 2.90527,-3.56933 4.3164,-8.5498 1.49415,-5.06348 1.49415,-13.94531 0,-8.21778 -1.49415,-13.7793 -1.49414,-5.56153 -4.15039,-8.88184 -2.65625,-3.40332 -6.3916,-4.81445 -3.73535,-1.41113 -8.05176,-1.41113 -4.3164,0 -7.71972,1.16211 -3.32031,1.16211 -6.3916,4.64843 -2.73926,3.23731 -4.39942,8.88184 -1.57715,5.64453 -1.57715,14.19434 0,7.63671 1.41114,13.28125 1.41113,5.56152 4.15039,8.96484 2.65625,3.2373 6.30859,4.73144 3.73535,1.49414 8.4668,1.49414 4.06738,0 7.71972,-1.32812 3.73536,-1.41113 6.3086,-4.64844 z m 88.07129,23.90625 H 496.43604 V 631.33704 h 29.88281 z m 125.50781,-47.89551 q 0,21.99707 -12.20215,35.85938 -12.11914,13.8623 -30.29785,13.8623 -7.80273,0 -13.69629,-1.66015 -5.89355,-1.66016 -11.20605,-4.81446 l -1.24512,4.64844 H 554.5415 V 631.33704 h 29.88282 v 45.65429 q 6.88964,-5.47851 14.02832,-8.88183 7.22168,-3.40332 16.60156,-3.40332 17.68066,0 27.22656,12.7832 9.5459,12.7002 9.5459,35.1123 z m -30.7959,0.58106 q 0,-12.45117 -4.2334,-19.17481 -4.2334,-6.72363 -15.10742,-6.72363 -4.2334,0 -8.71582,1.32813 -4.48242,1.24511 -8.5498,3.65234 v 46.81641 q 3.2373,1.16211 6.14257,1.57715 2.90528,0.41503 6.97266,0.41503 11.87012,0 17.68066,-6.97265 5.81055,-6.97266 5.81055,-20.91797 z m 147.6709,0.74707 q 0,22.99316 -13.44727,36.27441 -13.36425,13.19825 -37.60253,13.19825 -24.23829,0 -37.68555,-13.19825 -13.36426,-13.28125 -13.36426,-36.27441 0,-23.15918 13.44727,-36.35742 13.53027,-13.19824 37.60254,-13.19824 24.40429,0 37.68554,13.28125 13.36426,13.28125 13.36426,36.27441 z m -36.77246,22.66113 q 2.90527,-3.56933 4.31641,-8.5498 1.49414,-5.06348 1.49414,-13.94531 0,-8.21778 -1.49414,-13.7793 -1.49415,-5.56153 -4.1504,-8.88184 -2.65625,-3.40332 -6.3916,-4.81445 -3.73535,-1.41113 -8.05175,-1.41113 -4.31641,0 -7.71973,1.16211 -3.32031,1.16211 -6.3916,4.64843 -2.73926,3.23731 -4.39942,8.88184 -1.57715,5.64453 -1.57715,14.19434 0,7.63671 1.41114,13.28125 1.41113,5.56152 4.15039,8.96484 2.65625,3.2373 6.30859,4.73144 3.73535,1.49414 8.4668,1.49414 4.06738,0 7.71973,-1.32812 3.73535,-1.41113 6.30859,-4.64844 z m 155.63965,23.90625 h -34.86328 l -19.92188,-27.89062 -20.41992,27.89062 h -34.19922 l 36.77246,-46.56738 -36.1914,-46.65039 h 34.86328 l 19.58984,27.39258 19.67285,-27.39258 h 34.28223 l -36.27442,45.90332 z"
       id="text6"
       style="font-weight:bold;font-size:170px;font-family:Verdana;-inkscape-font-specification:'Verdana Bold';text-align:center;text-anchor:middle;stroke:#636363;stroke-width:0;stroke-linecap:round"
       aria-label="Toolbox" /></g></svg>
