<?xml version="1.0" encoding="UTF-8" standalone="no"?>
<!-- Created with Inkscape (http://www.inkscape.org/) -->

<svg
   width="200mm"
   height="200mm"
   viewBox="0 0 200 200"
   version="1.1"
   id="svg1"
   inkscape:version="1.3 (0e150ed6c4, 2023-07-21)"
   sodipodi:docname="Filter.svg"
   inkscape:export-filename="Filter_16.png"
   inkscape:export-xdpi="2.0320001"
   inkscape:export-ydpi="2.0320001"
   xmlns:inkscape="http://www.inkscape.org/namespaces/inkscape"
   xmlns:sodipodi="http://sodipodi.sourceforge.net/DTD/sodipodi-0.dtd"
   xmlns="http://www.w3.org/2000/svg"
   xmlns:svg="http://www.w3.org/2000/svg">
  <sodipodi:namedview
     id="namedview1"
     pagecolor="#ffffff"
     bordercolor="#000000"
     borderopacity="0.25"
     inkscape:showpageshadow="2"
     inkscape:pageopacity="0.0"
     inkscape:pagecheckerboard="true"
     inkscape:deskcolor="#d1d1d1"
     inkscape:document-units="mm"
     inkscape:zoom="1.5041562"
     inkscape:cx="377.95276"
     inkscape:cy="377.95276"
     inkscape:window-width="3440"
     inkscape:window-height="1351"
     inkscape:window-x="-9"
     inkscape:window-y="-9"
     inkscape:window-maximized="1"
     inkscape:current-layer="layer1" />
  <defs
     id="defs1">
    <symbol
       id="Bar">
      <title
         id="title188">Bar</title>
      <path
         d="M 59,14 39,38 v 16 h 11 a 3,3 0 0 1 0,6 H 22 a 3,3 0 0 1 0,-6 H 33 V 38 L 13,14 Z M 36,27.5 a 3.5,3.5 0 0 0 7,0 3.5,3.5 0 0 0 -7,0 z"
         style="stroke:none"
         id="path189" />
    </symbol>
  </defs>
  <g
     inkscape:label="Layer 1"
     inkscape:groupmode="layer"
     id="layer1">
    <path
       d="m 13.357392,25.374842 -2.098063,2.098064 80.347955,80.347964 H 107.8987 l 80.34795,-80.347964 -2.09806,-2.098064 z"
       style="stroke:#000000;stroke-width:1.33641"
       id="path4" />
    <path
       style="fill:#000000;stroke:#000000;stroke-width:5.88019;stroke-linecap:round;stroke-dasharray:none;stroke-opacity:1"
       d="M 6.8170923,24.706975 H 193.18291"
       id="path3" />
    <path
       d="m 91.418059,107.96019 v 67.88113 a 8.6348269,1.4836217 0 0 1 0.538673,-0.26451 8.6348269,1.4836217 0 0 1 1.029004,-0.28107 8.6348269,1.4836217 0 0 1 1.367401,-0.2348 8.6348269,1.4836217 0 0 1 1.636739,-0.1768 8.6348269,1.4836217 0 0 1 1.825273,-0.10985 8.6348269,1.4836217 0 0 1 1.921268,-0.0373 8.6348269,1.4836217 0 0 1 0.713393,0.005 8.6348269,1.4836217 0 0 1 0.70788,0.0152 8.6348269,1.4836217 0 0 1 0.69889,0.0255 8.6348269,1.4836217 0 0 1 0.6837,0.0345 8.6348269,1.4836217 0 0 1 0.66505,0.0449 8.6348269,1.4836217 0 0 1 0.64089,0.0539 8.6348269,1.4836217 0 0 1 0.61326,0.0628 8.6348269,1.4836217 0 0 1 0.5808,0.0711 8.6348269,1.4836217 0 0 1 0.54489,0.0794 8.6348269,1.4836217 0 0 1 0.50414,0.0863 8.6348269,1.4836217 0 0 1 0.46132,0.094 8.6348269,1.4836217 0 0 1 0.41506,0.0994 8.6348269,1.4836217 0 0 1 0.36533,0.10571 8.6348269,1.4836217 0 0 1 0.31285,0.10985 8.6348269,1.4836217 0 0 1 0.25966,0.11467 8.6348269,1.4836217 0 0 1 0.18439,0.10637 v -67.88526 z"
       style="stroke:#000000;stroke-width:0"
       id="path7" />
    <path
       d="m 108.08792,175.81881 a 8.6348269,1.5355344 0 0 0 -0.18439,-0.11012 8.6348269,1.5355344 0 0 0 -0.25966,-0.11867 8.6348269,1.5355344 0 0 0 -0.31285,-0.11373 8.6348269,1.5355344 0 0 0 -0.36533,-0.10945 8.6348269,1.5355344 0 0 0 -0.41506,-0.1029 8.6348269,1.5355344 0 0 0 -0.46132,-0.0973 8.6348269,1.5355344 0 0 0 -0.50414,-0.0894 8.6348269,1.5355344 0 0 0 -0.54489,-0.0822 8.6348269,1.5355344 0 0 0 -0.5808,-0.0736 8.6348269,1.5355344 0 0 0 -0.61326,-0.065 8.6348269,1.5355344 0 0 0 -0.64089,-0.0557 8.6348269,1.5355344 0 0 0 -0.66505,-0.0465 8.6348269,1.5355344 0 0 0 -0.6837,-0.0357 8.6348269,1.5355344 0 0 0 -0.69889,-0.0265 8.6348269,1.5355344 0 0 0 -0.70788,-0.0158 8.6348269,1.5355344 0 0 0 -0.713393,-0.005 8.6348269,1.5355344 0 0 0 -1.921268,0.0386 8.6348269,1.5355344 0 0 0 -1.825273,0.11373 8.6348269,1.5355344 0 0 0 -1.636739,0.18298 8.6348269,1.5355344 0 0 0 -1.367401,0.24303 8.6348269,1.5355344 0 0 0 -1.029004,0.29091 8.6348269,1.5355344 0 0 0 -0.538673,0.27376 v 0.78482 a 8.6348269,1.5355344 0 0 0 0.01727,0.008 H 108.0382 a 8.6348269,1.5355344 0 0 0 0.0497,-0.025 z"
       style="stroke:#000000;stroke-width:0"
       id="path8" />
    <path
       d="M 108.0382,176.60789 H 91.435324 a 8.6348269,1.4836217 0 0 0 0.521408,0.25622 8.6348269,1.4836217 0 0 0 1.029004,0.28176 8.6348269,1.4836217 0 0 0 1.367401,0.23481 8.6348269,1.4836217 0 0 0 1.636739,0.17679 8.6348269,1.4836217 0 0 0 1.825273,0.10986 8.6348269,1.4836217 0 0 0 1.921268,0.0366 8.6348269,1.4836217 0 0 0 1.921963,-0.0366 8.6348269,1.4836217 0 0 0 1.82458,-0.10986 8.6348269,1.4836217 0 0 0 1.63743,-0.17679 8.6348269,1.4836217 0 0 0 1.3674,-0.23481 8.6348269,1.4836217 0 0 0 1.02831,-0.28176 8.6348269,1.4836217 0 0 0 0.5221,-0.25622 z"
       style="stroke:#000000;stroke-width:0"
       id="path6" />
  </g>
</svg>
