<?xml version="1.0" encoding="UTF-8" standalone="no"?>
<!-- Created with Inkscape (http://www.inkscape.org/) -->

<svg
   width="180"
   height="180"
   viewBox="0 0 180 180"
   version="1.1"
   id="svg1"
   xml:space="preserve"
   inkscape:version="1.3 (0e150ed6c4, 2023-07-21)"
   sodipodi:docname="SpexDb.svg"
   xmlns:inkscape="http://www.inkscape.org/namespaces/inkscape"
   xmlns:sodipodi="http://sodipodi.sourceforge.net/DTD/sodipodi-0.dtd"
   xmlns:xlink="http://www.w3.org/1999/xlink"
   xmlns="http://www.w3.org/2000/svg"
   xmlns:svg="http://www.w3.org/2000/svg"><sodipodi:namedview
     id="namedview1"
     pagecolor="#ffffff"
     bordercolor="#000000"
     borderopacity="0.25"
     inkscape:showpageshadow="2"
     inkscape:pageopacity="0.0"
     inkscape:pagecheckerboard="0"
     inkscape:deskcolor="#d1d1d1"
     inkscape:document-units="px"
     inkscape:zoom="6.5166667"
     inkscape:cx="90"
     inkscape:cy="90"
     inkscape:window-width="3440"
     inkscape:window-height="1369"
     inkscape:window-x="-8"
     inkscape:window-y="-8"
     inkscape:window-maximized="1"
     inkscape:current-layer="svg1" /><defs
     id="defs1"><linearGradient
       id="linearGradient3"
       inkscape:collect="always"><stop
         style="stop-color:#ff0000;stop-opacity:1;"
         offset="0"
         id="stop3" /><stop
         style="stop-color:#ffac00;stop-opacity:1;"
         offset="0.16306654"
         id="stop13" /><stop
         style="stop-color:#ffff00;stop-opacity:1;"
         offset="0.28084597"
         id="stop14" /><stop
         style="stop-color:#1fff00;stop-opacity:1;"
         offset="0.41275978"
         id="stop15" /><stop
         style="stop-color:#00ffff;stop-opacity:1;"
         offset="0.54830432"
         id="stop16" /><stop
         style="stop-color:#0002ff;stop-opacity:1;"
         offset="0.86101907"
         id="stop17" /><stop
         style="stop-color:#ad00ff;stop-opacity:1;"
         offset="1"
         id="stop18" /></linearGradient><linearGradient
       inkscape:collect="always"
       xlink:href="#linearGradient3"
       id="linearGradient4"
       x1="12.189971"
       y1="40.527706"
       x2="139.31398"
       y2="40.527706"
       gradientUnits="userSpaceOnUse"
       spreadMethod="repeat"
       gradientTransform="matrix(0.88307111,0,0,1,8.2511855,0.31662265)" /><linearGradient
       inkscape:collect="always"
       xlink:href="#linearGradient3"
       id="linearGradient19"
       gradientUnits="userSpaceOnUse"
       gradientTransform="matrix(0.53558517,0,0,0.74193445,76.515605,60.041843)"
       x1="12.189971"
       y1="40.527706"
       x2="139.31398"
       y2="40.527706"
       spreadMethod="repeat" /></defs><g
     transform="matrix(0.01836887,0,0,-0.01836887,9.502937,181.93093)"
     fill="#000000"
     stroke="none"
     id="g2"><path
       d="m 75.14583,18.521701 c -1.333164,2.16e-4 -2.667199,0.01853 -3.996094,0.05664 -1.328895,0.03811 -2.653142,0.09602 -3.972656,0.171875 -1.319532,0.07544 -2.631737,0.170501 -3.933594,0.283203 -1.301857,0.112701 -2.593873,0.243046 -3.873047,0.392578 -1.278907,0.149792 -2.542949,0.318242 -3.791016,0.503906 -1.248068,0.185664 -2.478979,0.388553 -3.691406,0.609375 -1.212915,0.220934 -2.406628,0.458172 -3.576172,0.712891 -1.169542,0.254718 -2.31583,0.52693 -3.4375,0.814453 -1.121493,0.287271 -2.216635,0.589969 -3.283203,0.908203 -1.066567,0.318236 -2.105744,0.652026 -3.113281,1 -1.007452,0.348032 -1.981808,0.710375 -2.923828,1.085938 -0.94202,0.375562 -1.849692,0.764367 -2.722656,1.166015 -0.872753,0.401546 -1.709613,0.815162 -2.507813,1.240235 -0.798199,0.425072 -1.55872,0.861629 -2.279297,1.308593 -0.720783,0.447047 -1.400502,0.904979 -2.039062,1.371094 -0.63856,0.466115 -1.237137,0.94044 -1.791016,1.423828 -0.553919,0.483498 -1.063608,0.974947 -1.529297,1.472656 -0.465689,0.497711 -0.886053,1.001713 -1.261719,1.511719 -0.37549,0.510152 -0.705244,1.025714 -0.988281,1.544922 -0.283037,0.519209 -0.519488,1.042094 -0.708984,1.568359 -0.18983,0.525905 -0.332526,1.054354 -0.427735,1.583985 -0.09521,0.529631 -0.142356,1.060474 -0.142578,1.591797 1.05e-4,0.531647 0.04737,1.063792 0.142578,1.59375 0.09521,0.529957 0.237789,1.057758 0.427735,1.583984 0.18961,0.525937 0.425947,1.049478 0.708984,1.568359 0.232825,0.426831 0.517022,0.848852 0.8125,1.269532 h -7.316406 v 84.380859 h 7.818359 c 0.02687,0.27489 0.02772,0.55026 0.08203,0.82422 0.106439,0.53686 0.266394,1.07122 0.478515,1.60351 0.21175,0.5325 0.475146,1.0621 0.791016,1.58594 0.315869,0.52384 0.684992,1.04193 1.103515,1.55469 0.418772,0.51246 0.886191,1.01817 1.404297,1.51562 0.518106,0.49746 1.086127,0.98668 1.701172,1.4668 0.615102,0.48037 1.276977,0.95082 1.984375,1.41016 0.7074,0.45932 1.461396,0.90757 2.257813,1.34375 0.796308,0.43599 1.634529,0.86003 2.513672,1.26953 0.879142,0.40948 1.797957,0.80447 2.755859,1.18554 0.958155,0.38124 1.952825,0.74778 2.982422,1.09766 1.029599,0.34988 2.095139,0.6831 3.191406,1 1.095948,0.31687 2.220839,0.61697 3.375,0.89844 1.154161,0.28146 2.337893,0.5443 3.544922,0.78906 1.207224,0.24481 2.436679,0.47153 3.6875,0.67773 1.250822,0.20622 2.521925,0.39194 3.810547,0.5586 1.288547,0.16658 2.593745,0.3137 3.910156,0.43945 1.316412,0.12575 2.644245,0.23012 3.982422,0.31445 1.338295,0.0844 2.685373,0.14711 4.035156,0.18946 1.349782,0.0423 2.703582,0.0644 4.058594,0.0644 1.354725,-9e-5 2.707146,-0.0221 4.056641,-0.0644 1.349493,-0.0423 2.695191,-0.10505 4.033203,-0.18946 1.338177,-0.0843 2.667962,-0.1887 3.984375,-0.31445 1.316411,-0.12575 2.619657,-0.27287 3.908203,-0.43945 1.288621,-0.16666 2.559727,-0.35238 3.810547,-0.5586 1.250821,-0.2062 2.482232,-0.43292 3.689453,-0.67773 1.207329,-0.24474 2.388516,-0.5076 3.542974,-0.78906 1.15444,-0.28147 2.28073,-0.58156 3.37695,-0.89844 1.09597,-0.31691 2.16015,-0.65012 3.18946,-1 1.0293,-0.34988 2.02259,-0.71643 2.98047,-1.09766 0.95819,-0.38105 1.87837,-0.77606 2.75781,-1.18554 0.87941,-0.4095 1.71904,-0.83353 2.51562,-1.26953 0.79642,-0.43618 1.55041,-0.88443 2.25782,-1.34375 0.7074,-0.45934 1.36926,-0.92979 1.98437,-1.41016 0.61474,-0.48013 1.17945,-0.96934 1.69727,-1.4668 0.5178,-0.49745 0.98971,-1.00317 1.4082,-1.51562 0.37849,-0.5317 0.70094,-1.06924 0.9707,-1.61133 0.0556,-0.0897 0.11155,-0.17954 0.16407,-0.26953 V 125.72678 114.301 h 7.98632 V 52.717014 h -7.98632 v -0.884766 c 0.84544,-0.557661 1.62777,-1.129844 2.34765,-1.714844 0.55392,-0.483497 1.0636,-0.974945 1.5293,-1.472656 0.46568,-0.497711 0.88606,-1.001711 1.26172,-1.511719 0.37537,-0.509831 0.70524,-1.024086 0.98828,-1.542969 0.28304,-0.518881 0.52133,-1.042422 0.71094,-1.568359 0.18992,-0.526226 0.33056,-1.054027 0.42578,-1.583984 0.0952,-0.529958 0.14441,-1.062103 0.14453,-1.59375 -1.8e-4,-0.37713 -0.0243,-0.754218 -0.0723,-1.13086 -0.0479,-0.376309 -0.12108,-0.752094 -0.21679,-1.126953 -0.0958,-0.374838 -0.21414,-0.748668 -0.35743,-1.121094 -0.14311,-0.372711 -0.30972,-0.743938 -0.5,-1.113281 -0.1905,-0.369282 -0.40346,-0.736601 -0.64062,-1.101562 -0.23677,-0.365191 -0.49643,-0.727952 -0.7793,-1.087891 -0.28313,-0.359796 -0.59144,-0.716696 -0.91992,-1.070312 -0.32837,-0.353744 -0.67983,-0.704126 -1.05273,-1.050782 -0.37314,-0.346375 -0.76694,-0.688946 -1.1836,-1.027343 -0.41621,-0.338344 -0.85386,-0.672444 -1.3125,-1.001954 -0.45933,-0.329661 -0.94079,-0.654646 -1.4414,-0.974609 -0.50017,-0.320306 -1.01836,-0.635525 -1.5586,-0.945312 -0.54004,-0.308977 -1.10114,-0.612468 -1.67969,-0.910157 -0.57922,-0.298307 -1.17659,-0.590729 -1.79296,-0.876953 -0.61566,-0.286297 -1.24916,-0.566346 -1.90039,-0.839844 -0.6516,-0.272977 -1.32241,-0.539349 -2.00782,-0.798828 -0.68573,-0.260307 -1.3875,-0.513654 -2.10547,-0.759765 -0.71723,-0.244977 -1.44792,-0.482691 -2.19531,-0.712891 -0.74801,-0.230971 -1.51266,-0.454358 -2.28906,-0.669922 -0.77601,-0.21562 -1.56476,-0.423376 -2.36719,-0.623047 -0.80288,-0.199611 -1.61807,-0.391086 -2.44531,-0.574218 -0.827,-0.182915 -1.66451,-0.357457 -2.513679,-0.523438 -0.848802,-0.165541 -1.709395,-0.322499 -2.578125,-0.470703 -0.869416,-0.148826 -1.749503,-0.288851 -2.636719,-0.419922 -0.886674,-0.130755 -1.779496,-0.252545 -2.681641,-0.365234 -0.902159,-0.113332 -1.811161,-0.217536 -2.726562,-0.3125 -0.91543,-0.09457 -1.837402,-0.17989 -2.763672,-0.25586 -0.926403,-0.0758 -1.858126,-0.142227 -2.792969,-0.199218 -0.935074,-0.057 -1.875289,-0.10454 -2.816406,-0.142579 -0.940872,-0.03817 -1.881658,-0.06682 -2.826172,-0.08594 -0.944373,-0.01931 -1.890323,-0.02908 -2.835937,-0.0293 z"
       style="fill:url(#linearGradient4);stroke:#000000;stroke-width:0"
       id="path19"
       transform="matrix(58.48562,0,0,-58.48562,-598.86205,10315.935)"
       inkscape:label="barrel_big_gradient" /><path
       d="M 3405,9789 C 2856,9761 2301,9675 1824,9544 879,9286 262,8872 74,8371 6,8190 10,8392 10,5401 11,3146 13,2682 24,2618 138,1982 893,1468 2115,1195 c 457,-102 948,-160 1528,-181 l 187,-7 v 337 336 h -157 c -619,0 -1333,109 -1882,285 -529,171 -938,430 -1057,670 l -39,79 -3,824 c -1,453 1,822 5,820 5,-1 52,-29 106,-62 363,-216 885,-399 1472,-515 422,-84 846,-130 1348,-147 l 207,-7 v 335 335 l -262,6 c -1179,27 -2261,340 -2704,781 -71,72 -99,108 -130,170 l -39,80 -3,824 c -1,453 1,822 5,819 5,-2 43,-25 86,-51 519,-312 1310,-541 2199,-636 483,-51 1133,-53 1648,-4 909,86 1786,338 2290,658 l 55,35 3,-440 2,-439 h 340 340 v 989 c 0,655 -4,1016 -11,1067 -23,165 -102,350 -210,494 -70,93 -239,257 -340,332 -760,562 -2225,882 -3694,807 z m 695,-659 c 406,-14 691,-42 1028,-101 758,-131 1372,-380 1673,-679 233,-232 233,-416 -1,-651 -332,-334 -1055,-605 -1915,-719 -957,-127 -2045,-72 -2841,145 -601,164 -1042,393 -1246,646 -75,94 -101,157 -102,249 -1,68 3,84 36,151 179,362 890,700 1810,858 385,67 705,95 1243,109 28,1 169,-3 315,-8 z"
       id="path1"
       style="fill:#000000;fill-opacity:1"
       inkscape:label="barrel_big" /><path
       d="m 117.08811,73.549045 c -0.80857,1.61e-4 -1.61768,0.01275 -2.42365,0.04102 -0.80598,0.02828 -1.60983,0.07263 -2.41012,0.128907 -0.80029,0.05597 -1.59542,0.125367 -2.38499,0.208984 -0.78958,0.08362 -1.57439,0.180073 -2.35021,0.291016 -0.77565,0.111135 -1.54106,0.237249 -2.29802,0.375 -0.75695,0.137749 -1.5047,0.287337 -2.24004,0.451172 -0.73565,0.163918 -1.45921,0.340312 -2.16853,0.529296 -0.70932,0.188984 -1.405124,0.390194 -2.085419,0.603516 -0.680184,0.213136 -1.343847,0.437721 -1.990716,0.673828 -0.646874,0.23611 -1.277215,0.484015 -1.888282,0.742188 -0.611025,0.258215 -1.200982,0.527999 -1.772316,0.80664 -0.571337,0.278641 -1.123037,0.56724 -1.652489,0.865235 -0.529322,0.297919 -1.036953,0.604547 -1.521061,0.919922 -0.484109,0.315374 -0.944872,0.639086 -1.381906,0.970703 -0.437151,0.331677 -0.849662,0.671753 -1.236949,1.017578 -0.387288,0.345824 -0.750267,0.697999 -1.086197,1.05664 -0.335951,0.358722 -0.645276,0.722531 -0.927712,1.091797 -0.282439,0.369268 -0.537524,0.742705 -0.765362,1.121094 -0.227736,0.378498 -0.427492,0.761268 -0.599148,1.146484 -0.171664,0.385218 -0.314135,0.77361 -0.429067,1.164063 -0.115132,0.390185 -0.203174,0.782831 -0.260919,1.175781 -0.05774,0.392949 -0.08492,0.785483 -0.08504,1.179688 6e-5,0.394445 0.02732,0.790401 0.08504,1.183593 0.05774,0.393192 0.145722,0.785359 0.260919,1.175782 0.115,0.390209 0.257403,0.777138 0.429067,1.162109 0.141204,0.316678 0.31364,0.631244 0.492847,0.943359 h -4.437557 v 62.60352 h 4.74293 c 0.01632,0.20395 0.01539,0.41002 0.04832,0.61328 0.06454,0.39831 0.16126,0.79452 0.28991,1.18945 0.128427,0.39508 0.289676,0.78714 0.481252,1.17578 0.191575,0.38866 0.414887,0.77386 0.668725,1.1543 0.253985,0.38021 0.538109,0.75397 0.852336,1.12305 0.314233,0.36908 0.657128,0.73362 1.030148,1.08984 0.373065,0.3564 0.775056,0.70412 1.204092,1.04492 0.429039,0.34078 0.887287,0.67443 1.370309,0.99805 0.482963,0.32348 0.989796,0.63759 1.522995,0.94141 0.533204,0.3038 1.090849,0.59617 1.671815,0.8789 0.581124,0.28286 1.184586,0.55487 1.809038,0.81446 0.624448,0.25958 1.271713,0.50706 1.9366,0.74218 0.664695,0.23509 1.346763,0.45719 2.046765,0.66602 0.699992,0.20883 1.417132,0.40435 2.149192,0.58594 0.73219,0.18163 1.47755,0.35092 2.23619,0.5039 0.75862,0.153 1.52999,0.29042 2.31155,0.41406 0.78149,0.12359 1.57305,0.23288 2.37145,0.32618 0.79841,0.0933 1.60431,0.16985 2.41592,0.23242 0.81168,0.0626 1.62821,0.1092 2.44685,0.14062 0.81865,0.0314 1.64048,0.0488 2.4623,0.0488 0.82163,-7e-5 1.6419,-0.0174 2.46037,-0.0488 0.81847,-0.0314 1.63341,-0.078 2.44491,-0.14062 0.8116,-0.0625 1.61944,-0.13912 2.41785,-0.23242 0.7984,-0.0933 1.58803,-0.20259 2.36954,-0.32618 0.78153,-0.12364 1.55291,-0.26106 2.31155,-0.41406 0.75862,-0.15298 1.50592,-0.32227 2.2381,-0.5039 0.73224,-0.18158 1.44708,-0.37711 2.14727,-0.58594 0.70017,-0.20883 1.38383,-0.43092 2.04869,-0.66602 0.6647,-0.23513 1.3104,-0.4826 1.93467,-0.74218 0.62427,-0.25959 1.22615,-0.53161 1.8071,-0.81446 0.58115,-0.28271 1.14039,-0.5751 1.67375,-0.8789 0.53337,-0.30382 1.04179,-0.61793 1.52493,-0.94141 0.48303,-0.32362 0.94127,-0.65727 1.37032,-0.99805 0.42903,-0.3408 0.82908,-0.68852 1.20215,-1.04492 0.37284,-0.35623 0.71611,-0.72076 1.03014,-1.08984 0.31405,-0.36908 0.60047,-0.74285 0.85428,-1.12305 0.22956,-0.39449 0.42394,-0.79312 0.58755,-1.19531 0.0337,-0.0666 0.0687,-0.1344 0.10045,-0.20117 v -4.61133 h 8.43446 v -13.29689 h -3.59103 V 98.920139 h -4.84343 v -0.65625 c 0.51276,-0.413745 0.98781,-0.839409 1.42442,-1.273438 0.33595,-0.358724 0.64527,-0.72253 0.92771,-1.091797 0.28243,-0.369266 0.53561,-0.744655 0.76344,-1.123047 0.22766,-0.378258 0.42942,-0.759551 0.60108,-1.144531 0.17166,-0.38497 0.31599,-0.7719 0.43099,-1.162109 0.1152,-0.390423 0.19932,-0.782589 0.25706,-1.175782 0.0577,-0.393192 0.0888,-0.789147 0.0889,-1.183593 -1.1e-4,-0.279804 -0.0153,-0.558448 -0.0445,-0.837891 -0.029,-0.279194 -0.0734,-0.557818 -0.13142,-0.835937 -0.0582,-0.278104 -0.12955,-0.555717 -0.21647,-0.832032 -0.0868,-0.276525 -0.18804,-0.552144 -0.30344,-0.826172 -0.11555,-0.273981 -0.24463,-0.54563 -0.38848,-0.816406 -0.14359,-0.270946 -0.30196,-0.541544 -0.47352,-0.808594 -0.17171,-0.266943 -0.35739,-0.53061 -0.55662,-0.792968 -0.19914,-0.262453 -0.41357,-0.522102 -0.63974,-0.779297 -0.22631,-0.256986 -0.46434,-0.512605 -0.71704,-0.763672 -0.25245,-0.251028 -0.51811,-0.497714 -0.7963,-0.742188 -0.27857,-0.244585 -0.56997,-0.487219 -0.87359,-0.724609 -0.30335,-0.237645 -0.61746,-0.471331 -0.94511,-0.701172 -0.32753,-0.229239 -0.66959,-0.452963 -1.02048,-0.673828 -0.35129,-0.221323 -0.71236,-0.439986 -1.0862,-0.652344 -0.37339,-0.212413 -0.75694,-0.420131 -1.15191,-0.623047 -0.39519,-0.202529 -0.80384,-0.399281 -1.21955,-0.591796 -0.41588,-0.19313 -0.84016,-0.381856 -1.27561,-0.564454 -0.435,-0.181756 -0.87835,-0.35655 -1.33165,-0.527343 -0.45365,-0.171364 -0.91683,-0.338114 -1.3877,-0.498047 -0.47065,-0.159975 -0.94934,-0.314748 -1.43602,-0.462891 -0.48695,-0.148097 -0.98262,-0.28991 -1.48434,-0.425781 -0.50157,-0.13571 -1.00796,-0.265525 -1.52299,-0.388672 -0.5148,-0.122819 -1.03863,-0.2377 -1.56552,-0.347656 -0.52731,-0.11042 -1.06028,-0.215255 -1.59838,-0.3125 -0.53775,-0.09701 -1.07827,-0.187877 -1.62542,-0.271485 -0.54716,-0.08408 -1.09923,-0.160012 -1.65442,-0.230468 -0.55523,-0.07016 -1.1139,-0.135042 -1.67568,-0.191407 -0.56188,-0.05624 -1.12804,-0.104201 -1.69501,-0.146484 -0.56713,-0.04229 -1.13773,-0.07724 -1.70853,-0.105469 -0.57063,-0.02832 -1.13957,-0.05027 -1.7124,-0.06445 -0.57277,-0.01433 -1.14662,-0.02132 -1.72014,-0.02148 z"
       style="fill:url(#linearGradient19);stroke:#000000;stroke-width:0"
       id="path20"
       inkscape:label="barrel_small_gradien"
       transform="matrix(58.48562,0,0,-58.48562,-598.86205,10315.935)" /><path
       d="m 5792.2332,6285.4504 c -416.8746,-32.8571 -853.2582,-121.1606 -1155.1329,-233.0801 -542.1424,-201.2499 -896.3832,-509.2853 -998.0349,-866.6064 -17.4553,-61.6071 -18.4821,-164.2856 -18.4821,-1902.6323 0,-2073.0786 -7.1875,-1885.177 82.1428,-2064.8644 293.6605,-587.32085 1287.5882,-959.01696 2566.9621,-959.01696 1381.0256,0 2405.7569,431.24963 2615.221,1098.65976 l 23.616,77.0088 v 1848.2128 1848.2127 l -23.616,77.0088 c -49.2857,155.0445 -132.4553,283.3926 -272.098,417.9015 -353.214,340.8925 -928.2135,556.5173 -1721.9182,645.8476 -175.5802,19.5089 -908.7046,28.75 -1098.6598,13.3482 z m 1006.2492,-692.053 c 488.7496,-53.3928 896.3832,-169.4195 1176.6954,-334.7318 135.5356,-80.0892 240.2677,-188.9284 240.2677,-250.5355 0,-31.8303 -40.0446,-93.4374 -90.3571,-140.6695 -180.7141,-168.3928 -580.1334,-325.4908 -1029.8652,-403.5265 -289.5533,-50.3124 -438.4371,-60.5803 -830.6689,-60.5803 -391.2051,0 -533.9281,10.2679 -826.5618,60.5803 -549.3299,94.4642 -1029.8652,313.1694 -1109.9544,505.1782 -29.7768,70.8481 28.7499,157.098 174.5534,254.6426 284.4194,188.9284 769.0618,329.5979 1284.5078,373.7497 73.9285,6.1607 154.0177,13.3482 179.6874,15.4018 112.9463,9.241 692.0529,-4.1072 831.6957,-19.509 z M 4456.3862,4037.8184 c 518.5263,-234.1069 1263.9721,-349.1068 2054.5964,-318.3033 596.562,24.6428 1065.8027,113.9731 1480.6238,283.3926 60.5803,24.6429 133.482,56.4732 161.2052,70.8482 28.75,14.375 54.4196,25.6696 57.4999,25.6696 3.0804,0 4.1072,-193.0355 3.0804,-429.1961 l -3.0804,-430.2228 -35.9374,-46.2053 c -141.6963,-183.7945 -555.4906,-361.4283 -1057.5884,-453.8389 -294.6873,-53.3928 -415.8479,-62.6339 -852.2314,-62.6339 -328.5712,0 -433.3032,4.1071 -554.4638,18.4821 -615.0442,77.0089 -1079.1509,235.1338 -1306.0704,446.6514 -92.4106,85.2232 -90.357,70.8482 -90.357,545.2228 0,327.5443 3.0803,412.7675 13.3482,408.6603 6.1607,-3.0803 64.6874,-28.7499 129.3749,-58.5267 z m -62.6339,-1698.3021 c 327.5444,-164.2856 793.7047,-280.3123 1338.9274,-331.6515 249.5087,-23.6161 809.1065,-22.5893 1065.8027,0 527.7674,49.2857 959.017,154.0177 1302.9899,316.2497 58.5268,27.7232 107.8125,50.3125 110.8928,50.3125 2.0536,0 2.0536,-194.0624 1.0268,-430.2229 l -3.0804,-430.2228 -31.8303,-45.1786 c -18.4821,-23.616 -64.6874,-68.7945 -102.6785,-98.5713 -81.116,-62.6339 -315.2229,-180.7141 -450.7585,-227.9462 -691.0262,-239.24086 -1732.186,-266.96406 -2495.0872,-66.7411 -359.3747,94.4643 -664.3298,248.482 -775.2225,393.2586 l -35.9375,46.2054 -3.0804,430.2228 c -1.0267,236.1605 0,429.1961 3.0804,429.1961 3.0803,0 36.9642,-15.4018 74.9553,-34.9107 z"
       id="path2"
       style="stroke-width:1.02678"
       inkscape:label="barrel_small" /></g></svg>
