<?xml version="1.0" ?><svg viewBox="0 0 96 96" xmlns="http://www.w3.org/2000/svg"><title/><path d="M78,24H71.8828C71.2559,12.82,67.2773,0,42,0a5.9966,5.9966,0,0,0-6,6c0,10.8809-.1128,20.3687-8.6917,30H6a5.9966,5.9966,0,0,0-6,6V90a5.9966,5.9966,0,0,0,6,6H78A18.02,18.02,0,0,0,96,78V42A18.02,18.02,0,0,0,78,24ZM12,48H24V84H12ZM84,78a6.0078,6.0078,0,0,1-6,6H36V44.4023c9.9258-10.8867,11.6426-21.9257,11.9355-32.121C60,13.5938,60,19.5117,60,30a5.9966,5.9966,0,0,0,6,6H78a6.0078,6.0078,0,0,1,6,6Z"/></svg>