<?xml version="1.0" ?><svg viewBox="0 0 96 96" xmlns="http://www.w3.org/2000/svg"><title/><path d="M95.3108,39.34l.0564-.0234-12-24A6.0132,6.0132,0,0,0,78,12H18a6.0132,6.0132,0,0,0-5.3672,3.3164l-12,24,.0344.0564A5.881,5.881,0,0,0,0,42V78a5.9966,5.9966,0,0,0,6,6H90a5.9966,5.9966,0,0,0,6-6V42A5.8775,5.8775,0,0,0,95.3108,39.34ZM21.709,24H74.291l6,12H64.8984a5.9938,5.9938,0,0,0-5.6543,3.9961,11.9,11.9,0,0,1-22.4882,0A5.9937,5.9937,0,0,0,31.1016,36H15.709ZM84,72H12V48H27.293a23.8658,23.8658,0,0,0,41.414,0H84Z"/></svg>