<?xml version="1.0" ?><svg viewBox="0 0 96 96" xmlns="http://www.w3.org/2000/svg"><title/><path d="M92.5467,45.8723,50.1225,3.4481A6,6,0,0,0,39.88,7.6905V22.1757L26.4259,35.63H11.9407A6,6,0,0,0,7.6983,45.8723l16.97,16.97L3.4559,84.0541a6,6,0,1,0,8.4848,8.4848L33.1528,71.3268l16.97,16.97a6,6,0,0,0,10.2427-4.2424V69.5689L73.8191,56.115H88.3042a6,6,0,0,0,4.2425-10.2427ZM71.3346,44.1144a5.9955,5.9955,0,0,0-4.2424,1.7579l-16.97,16.97a5.9955,5.9955,0,0,0-1.7579,4.2424v2.4845L26.4259,47.63H28.91a5.9957,5.9957,0,0,0,4.2424-1.7579l16.97-16.97A5.9957,5.9957,0,0,0,51.88,24.66V22.1757L73.8191,44.1144Z"/></svg>