<?xml version="1.0" ?><svg viewBox="0 0 96 96" xmlns="http://www.w3.org/2000/svg"><title/><path d="M59.66,47.9993l21.427-12.855a5.9978,5.9978,0,0,0,.24-10.1363L45.328,1.0088A6.004,6.004,0,0,0,36,6.0008V33.8084L21.0886,24.8556A6,6,0,0,0,14.913,35.1443L36,47.8,14.913,60.8543A6,6,0,0,0,21.0886,71.143L36,62.19V89.9978a5.989,5.989,0,0,0,3.17,5.285,5.9175,5.9175,0,0,0,2.83.7148A5.9966,5.9966,0,0,0,45.328,94.99L81.3267,70.9907a5.9979,5.9979,0,0,0-.24-10.1364ZM48,17.2153,66.7842,29.7305,48,41.0035Zm0,61.5681V54.9952l18.7845,11.273Z"/></svg>