<?xml version="1.0" ?><svg viewBox="0 0 96 96" xmlns="http://www.w3.org/2000/svg"><title/><path d="M93.6914,1.2644a6.0509,6.0509,0,0,0-5.1445-1.09L41.25,11.9988H24A23.918,23.918,0,0,0,12.69,57.0354L24.3105,91.8973A5.9934,5.9934,0,0,0,30,95.9988H54A5.9991,5.9991,0,0,0,59.69,88.1L51.1472,62.4729l37.4,9.35A6.1224,6.1224,0,0,0,90,71.9988a5.9916,5.9916,0,0,0,6-6v-60A5.997,5.997,0,0,0,93.6914,1.2644ZM24,23.9988H36v24H24a12,12,0,0,1,0-24Zm10.3242,60-7.998-24h11.35l7.998,24ZM84,58.3113l-36-9V22.6863l36-9Z"/></svg>