<?xml version="1.0" ?><svg viewBox="0 0 96 96" xmlns="http://www.w3.org/2000/svg"><title/><path d="M78,0H6A5.9966,5.9966,0,0,0,0,6V54a5.9966,5.9966,0,0,0,6,6H27.3083C35.8872,69.6313,36,79.1191,36,90a5.9966,5.9966,0,0,0,6,6c25.2773,0,29.2559-12.82,29.8828-24H78A18.02,18.02,0,0,0,96,54V18A18.02,18.02,0,0,0,78,0ZM12,12H24V48H12ZM84,54a6.0078,6.0078,0,0,1-6,6H66a5.9966,5.9966,0,0,0-6,6c0,10.4883,0,16.4063-12.0645,17.7188C47.6426,73.5234,45.9258,62.4844,36,51.5977V12H78a6.0078,6.0078,0,0,1,6,6Z"/></svg>