<?xml version="1.0" ?><svg viewBox="0 0 96 96" xmlns="http://www.w3.org/2000/svg"><title/><g><path d="M78,60A18,18,0,1,0,96,78,18.02,18.02,0,0,0,78,60Zm0,24a6,6,0,1,1,6-6A6.0116,6.0116,0,0,1,78,84Z"/><path d="M25.7578,34.2422a5.9994,5.9994,0,1,0,8.4844-8.4844L26.4844,18l7.7578-7.7578a5.9994,5.9994,0,1,0-8.4844-8.4844L18,9.5156,10.2422,1.7578a5.9994,5.9994,0,0,0-8.4844,8.4844L9.5156,18,1.7578,25.7578a5.9994,5.9994,0,1,0,8.4844,8.4844L18,26.4844Z"/><path d="M83.8044,20.2888l1.9534,1.9534a5.9994,5.9994,0,0,0,8.4844-8.4844l-12-12a5.9979,5.9979,0,0,0-8.4844,0l-12,12a5.9994,5.9994,0,0,0,8.4844,8.4844l1.5732-1.5733c-.9375,15.6409-9.799,18.45-23.0068,22.3389C32.4141,47.8359,12,53.8359,12,90a6,6,0,0,0,12,0c0-27.1875,12.4453-30.8437,28.1953-35.4844C65.9224,50.4734,82.7607,45.2908,83.8044,20.2888Z"/></g></svg>