<?xml version="1.0" ?><svg viewBox="0 0 96 96" xmlns="http://www.w3.org/2000/svg"><title/><path d="M48,0A48,48,0,1,0,96,48,48.0474,48.0474,0,0,0,48,0Zm.1384,83.9861c-.02,0-.0395.0058-.06.0058-1.6055-.5192-4.8238-5.6689-6.9676-15.238,2.2969.13,4.6.2461,6.8892.2461,2.2917,0,4.5989-.1157,6.8994-.2461C52.7761,78.3091,49.6135,83.4543,48.1384,83.9861ZM48,57c-3.0923,0-5.9539-.1333-8.6543-.3442C39.134,53.9553,39,51.0923,39,48s.1333-5.9539.3442-8.6543C42.0447,39.134,44.9077,39,48,39s5.9539.1333,8.6543.3442C56.866,42.0447,57,44.9077,57,48s-.1333,5.9539-.3442,8.6543C53.9553,56.866,51.0923,57,48,57ZM12.0139,48.1384c0-.02-.0058-.0395-.0058-.06.5192-1.6055,5.6689-4.8238,15.238-6.9676C27.1165,43.4077,27,45.7112,27,48c0,2.2917.1157,4.5989.2461,6.8994C17.6909,52.7761,12.5457,49.6135,12.0139,48.1384ZM47.8616,12.0139c.02,0,.0395-.0058.06-.0058,1.6055.5192,4.8238,5.6689,6.9676,15.238C52.5923,27.1165,50.2888,27,48,27c-2.2917,0-4.5989.1157-6.8994.2461C43.2239,17.6909,46.3865,12.5457,47.8616,12.0139ZM68.7539,41.1006c9.5552,2.1233,14.7,5.2859,15.2322,6.761,0,.02.0058.0395.0058.06-.5192,1.6055-5.6689,4.8238-15.238,6.9676.13-2.2969.2461-4.6.2461-6.8892C69,45.7083,68.8843,43.4011,68.7539,41.1006Zm11.2669-9.2095a74.6936,74.6936,0,0,0-12.6819-3.23,74.6936,74.6936,0,0,0-3.23-12.6819A36.0229,36.0229,0,0,1,80.0208,31.8911ZM31.89,15.9792a74.685,74.685,0,0,0-3.2293,12.6819A74.6729,74.6729,0,0,0,15.98,31.89,36.0205,36.0205,0,0,1,31.89,15.9792ZM15.98,64.11a74.6559,74.6559,0,0,0,12.6811,3.2293A74.6559,74.6559,0,0,0,31.89,80.02,36.0152,36.0152,0,0,1,15.98,64.11ZM64.11,80.02a74.6729,74.6729,0,0,0,3.2293-12.6811A74.685,74.685,0,0,0,80.0208,64.11,36.0205,36.0205,0,0,1,64.11,80.02Z"/></svg>