<?xml version="1.0" ?><svg viewBox="0 0 96 96" xmlns="http://www.w3.org/2000/svg"><title/><g><path d="M90,18H69.709L65.3672,9.3164A6.0024,6.0024,0,0,0,60,6H36a6.0024,6.0024,0,0,0-5.3672,3.3164L26.291,18H6a5.9966,5.9966,0,0,0-6,6V84a5.9966,5.9966,0,0,0,6,6H90a5.9966,5.9966,0,0,0,6-6V24A5.9966,5.9966,0,0,0,90,18ZM84,78H12V30H30a6.0024,6.0024,0,0,0,5.3672-3.3164L39.709,18H56.291l4.3418,8.6836A6.0024,6.0024,0,0,0,66,30H84Z"/><path d="M48,39A12,12,0,1,0,60,51,12.0157,12.0157,0,0,0,48,39Z"/></g></svg>