<?xml version="1.0" ?><svg viewBox="0 0 96 96" xmlns="http://www.w3.org/2000/svg"><title/><path d="M93.3047.9934A6.0613,6.0613,0,0,0,87.6328.4777l-25.63,10.9856L36.3633.4777c.04.022.0139.1641.0447.2044A5.951,5.951,0,0,0,31.6289.4777l-27.9961,12A6.01,6.01,0,0,0,0,17.9973v72a6.0087,6.0087,0,0,0,6,6,6.1926,6.1926,0,0,0,2.3672-.48l25.63-10.9856,25.64,10.9856a6.1926,6.1926,0,0,0,2.3672.48,5.9893,5.9893,0,0,0,2.3408-.7053c.0052.0476.0264.2248.0264.2248l27.9961-12A6.01,6.01,0,0,0,96,77.9973v-72A5.9705,5.9705,0,0,0,93.3047.9934ZM12,21.9582l15.9961-6.8555V74.0363L12,80.8918ZM39.9961,15.091l16.0078,6.8672V80.9035L39.9961,74.0363ZM84,74.0363,68.0039,80.8918V21.9582L84,15.1027Z"/></svg>