<?xml version="1.0" encoding="UTF-8" standalone="no"?>
<!-- Created with Inkscape (http://www.inkscape.org/) -->

<svg
   width="1808"
   height="1024"
   viewBox="0 0 478.36666 270.93333"
   version="1.1"
   id="svg1"
   xml:space="preserve"
   inkscape:version="1.3 (0e150ed6c4, 2023-07-21)"
   sodipodi:docname="EomToolbox_wide.svg"
   inkscape:export-filename="..\..\..\eomtbx-pro\resources\logo\about-eomtbx-logo.png"
   inkscape:export-xdpi="30"
   inkscape:export-ydpi="30"
   xmlns:inkscape="http://www.inkscape.org/namespaces/inkscape"
   xmlns:sodipodi="http://sodipodi.sourceforge.net/DTD/sodipodi-0.dtd"
   xmlns="http://www.w3.org/2000/svg"
   xmlns:svg="http://www.w3.org/2000/svg"><sodipodi:namedview
     id="namedview1"
     pagecolor="#ffffff"
     bordercolor="#000000"
     borderopacity="0.25"
     inkscape:showpageshadow="2"
     inkscape:pageopacity="0.0"
     inkscape:pagecheckerboard="true"
     inkscape:deskcolor="#d1d1d1"
     inkscape:document-units="mm"
     inkscape:zoom="0.55029295"
     inkscape:cx="979.47829"
     inkscape:cy="407.96452"
     inkscape:window-width="2211"
     inkscape:window-height="1341"
     inkscape:window-x="1516"
     inkscape:window-y="0"
     inkscape:window-maximized="0"
     inkscape:current-layer="svg1" /><defs
     id="defs1" /><rect
     style="display:inline;fill:#3d3d3d;fill-opacity:1;stroke:#3c3c3c;stroke-width:9.4854;stroke-linecap:round;stroke-linejoin:miter;stroke-opacity:1"
     id="rect1"
     width="474.88205"
     height="261.34473"
     x="1.7423106"
     y="4.794301"
     inkscape:label="background"
     sodipodi:insensitive="true" /><g
     id="g51"
     inkscape:label="outer rect"
     style="display:inline;fill:#057da0;fill-opacity:1"
     transform="translate(103.13763)"
     sodipodi:insensitive="true"><path
       d="m 239.48099,177.42793 -60.36582,60.36582 h 60.36582 z"
       style="display:inline;fill:#057da0;fill-opacity:1;stroke:#64719a;stroke-width:0"
       id="path51" /><path
       d="M 95.525435,237.79375 32.610413,174.87873 v 62.91502 z"
       style="display:inline;fill:#057da0;fill-opacity:1;stroke:#64719a;stroke-width:0"
       id="path50" /><path
       d="M 32.610413,93.829415 91.083329,35.355981 H 32.610413 Z"
       style="display:inline;fill:#057da0;fill-opacity:1;stroke:#64719a;stroke-width:0"
       id="path49" /><path
       d="m 179.37768,35.355981 60.10331,60.102792 V 35.355981 Z"
       style="display:inline;fill:#057da0;fill-opacity:1;stroke:#64719a;stroke-width:0"
       id="path48" /></g><g
     id="g2"
     inkscape:label="mid rect"
     style="display:inline"
     transform="translate(103.13763)"
     sodipodi:insensitive="true"><path
       d="M 97.193625,35.355981 H 81.019433 l -48.40902,47.81827 v 15.976286 z"
       style="fill:#396687;fill-opacity:1;stroke:#64719a;stroke-width:0"
       id="path44" /><path
       d="M 175.88694,35.355981 239.48099,98.56556 V 82.492122 L 192.05753,35.355981 Z"
       style="display:inline;fill:#396687;fill-opacity:1;stroke:#64719a;stroke-width:0"
       id="path45" /><path
       d="M 97.668974,237.79375 32.610413,173.89481 v 15.9768 l 48.791854,47.92214 z"
       style="display:inline;fill:#396687;fill-opacity:1;stroke:#64719a;stroke-width:0"
       id="path47" /><path
       d="m 239.48099,177.24551 -60.9167,60.54824 h 16.17059 l 44.74611,-44.47532 z"
       style="display:inline;fill:#396687;fill-opacity:1;stroke:#64719a;stroke-width:0"
       id="path46" /></g><rect
     style="display:inline;fill:#4ba67b;fill-opacity:1;stroke:#ffffff;stroke-width:0;stroke-dasharray:none;stroke-opacity:1"
     id="rect36"
     width="178.54199"
     height="176.34085"
     x="176.82669"
     y="-162.38071"
     transform="matrix(0.70481203,0.70939411,-0.69578609,0.71824906,0,0)"
     inkscape:label="inner rect"
     sodipodi:insensitive="true" /><g
     id="g1"
     inkscape:label="world"
     style="display:inline"
     transform="translate(103.3522)"
     sodipodi:insensitive="true"><circle
       style="display:inline;fill:#3d3d3d;fill-opacity:1;stroke:#000000;stroke-width:0;stroke-dasharray:none;stroke-opacity:1"
       id="circle20"
       cx="135.83113"
       cy="135.06096"
       inkscape:label="outer circle"
       r="90" /><path
       d="m 129.83343,199.92434 a 51.42174,69.519064 0 0 1 -2.4182,-0.25731 51.42174,69.519064 0 0 1 -7.84624,-2.54688 51.42174,69.519064 0 0 1 -7.45481,-4.17457 51.42174,69.519064 0 0 1 -6.87994,-5.69995 51.42174,69.519064 0 0 1 -6.135589,-7.08468 51.42174,69.519064 0 0 1 -5.240111,-8.29469 51.42174,69.519064 0 0 1 -4.216401,-9.30123 51.42174,69.519064 0 0 1 -3.087864,-10.07857 51.42174,69.519064 0 0 1 -1.883497,-10.60759 51.42174,69.519064 0 0 1 -0.321722,-5.51921 H 57.048948 a 78.775126,82.730642 0 0 0 0.437141,6.41803 78.775126,82.730642 0 0 0 2.388662,11.53394 78.775126,82.730642 0 0 0 3.928133,11.05999 78.775126,82.730642 0 0 0 5.386199,10.35983 78.775126,82.730642 0 0 0 6.735536,9.44965 78.775126,82.730642 0 0 0 7.947709,8.34615 78.775126,82.730642 0 0 0 8.997627,7.07391 78.775126,82.730642 0 0 0 9.864655,5.65685 78.775126,82.730642 0 0 0 10.53097,4.12552 78.775126,82.730642 0 0 0 10.98261,2.50856 78.775126,82.730642 0 0 0 5.58524,0.42009 z"
       style="fill:#396687;fill-opacity:1;stroke:#ffffff;stroke-width:0"
       id="path36"
       inkscape:label="outer quarter 4" /><path
       d="m 186.56917,136.35966 a 51.42174,69.519064 0 0 1 -0.32115,5.51921 51.42174,69.519064 0 0 1 -1.8835,10.60759 51.42174,69.519064 0 0 1 -3.08788,10.07857 51.42174,69.519064 0 0 1 -4.21639,9.30123 51.42174,69.519064 0 0 1 -5.24012,8.29469 51.42174,69.519064 0 0 1 -6.13557,7.08468 51.42174,69.519064 0 0 1 -6.87996,5.69995 51.42174,69.519064 0 0 1 -7.45481,4.17457 51.42174,69.519064 0 0 1 -7.84622,2.54688 51.42174,69.519064 0 0 1 -4.70206,0.50028 v 13.31603 a 78.775126,82.730642 0 0 0 7.86854,-0.59125 78.775126,82.730642 0 0 0 10.9826,-2.50856 78.775126,82.730642 0 0 0 10.53096,-4.12552 78.775126,82.730642 0 0 0 9.86467,-5.65685 78.775126,82.730642 0 0 0 8.99763,-7.07391 78.775126,82.730642 0 0 0 7.9477,-8.34615 78.775126,82.730642 0 0 0 6.73554,-9.44965 78.775126,82.730642 0 0 0 5.3862,-10.35983 78.775126,82.730642 0 0 0 3.92813,-11.05999 78.775126,82.730642 0 0 0 2.38922,-11.53394 78.775126,82.730642 0 0 0 0.0385,-0.28544 78.775126,82.730642 0 0 0 0.0379,-0.28545 78.775126,82.730642 0 0 0 0.0363,-0.28544 78.775126,82.730642 0 0 0 0.0362,-0.28544 78.775126,82.730642 0 0 0 0.0345,-0.28604 78.775126,82.730642 0 0 0 0.034,-0.28606 78.775126,82.730642 0 0 0 0.0329,-0.28604 78.775126,82.730642 0 0 0 0.0317,-0.28604 78.775126,82.730642 0 0 0 0.0306,-0.28605 78.775126,82.730642 0 0 0 0.0301,-0.28664 78.775126,82.730642 0 0 0 0.0296,-0.28665 78.775126,82.730642 0 0 0 0.0278,-0.28664 78.775126,82.730642 0 0 0 0.0273,-0.28664 78.775126,82.730642 0 0 0 0.0262,-0.28665 78.775126,82.730642 0 0 0 0.0251,-0.28723 78.775126,82.730642 0 0 0 0.0245,-0.28665 78.775126,82.730642 0 0 0 0.0234,-0.28723 78.775126,82.730642 0 0 0 0.0223,-0.28725 78.775126,82.730642 0 0 0 0.0212,-0.28724 78.775126,82.730642 0 0 0 0.0206,-0.28724 78.775126,82.730642 0 0 0 0.0195,-0.28784 78.775126,82.730642 0 0 0 0.019,-0.28723 78.775126,82.730642 0 0 0 0.006,-0.11488 z"
       style="fill:#396687;fill-opacity:1;stroke:#ffffff;stroke-width:0"
       id="path31"
       inkscape:label="outer quarter 3" /><path
       d="m 138.80151,57.307374 v 13.336224 a 51.42174,69.765603 0 0 1 2.21749,0.245022 51.42174,69.765603 0 0 1 2.75945,0.509859 51.42174,69.765603 0 0 1 2.73492,0.712242 51.42174,69.765603 0 0 1 2.70258,0.911623 51.42174,69.765603 0 0 1 2.66243,1.1092 51.42174,69.765603 0 0 1 2.61392,1.303175 51.42174,69.765603 0 0 1 2.55873,1.492946 51.42174,69.765603 0 0 1 2.49459,1.678513 51.42174,69.765603 0 0 1 2.42435,1.859877 51.42174,69.765603 0 0 1 2.34684,2.034636 51.42174,69.765603 0 0 1 2.26154,2.204587 51.42174,69.765603 0 0 1 2.17065,2.367335 51.42174,69.765603 0 0 1 2.07307,2.522875 51.42174,69.765603 0 0 1 1.96937,2.671808 51.42174,69.765603 0 0 1 1.85951,2.812335 51.42174,69.765603 0 0 1 1.74467,2.945057 51.42174,69.765603 0 0 1 1.62478,3.068762 51.42174,69.765603 0 0 1 1.49988,3.18347 51.42174,69.765603 0 0 1 1.37108,3.28917 51.42174,69.765603 0 0 1 1.23727,3.38525 51.42174,69.765603 0 0 1 1.1001,3.47114 51.42174,69.765603 0 0 1 0.9607,3.54619 51.42174,69.765603 0 0 1 0.81742,3.61226 51.42174,69.765603 0 0 1 0.67188,3.6669 51.42174,69.765603 0 0 1 0.52523,3.71075 51.42174,69.765603 0 0 1 0.0998,0.99209 h 27.29844 a 78.775126,83.024034 0 0 0 -0.2208,-1.88751 78.775126,83.024034 0 0 0 -0.66074,-4.0152 78.775126,83.024034 0 0 0 -0.84695,-3.97619 78.775126,83.024034 0 0 0 -1.03153,-3.92694 78.775126,83.024034 0 0 0 -1.21273,-3.8699 78.775126,83.024034 0 0 0 -1.39171,-3.80143 78.775126,83.024034 0 0 0 -1.56679,-3.72575 78.775126,83.024034 0 0 0 -1.73853,-3.63988 78.775126,83.024034 0 0 0 -1.9058,-3.5456 78.775126,83.024034 0 0 0 -2.06861,-3.442904 78.775126,83.024034 0 0 0 -2.22585,-3.331804 78.775126,83.024034 0 0 0 -2.37918,-3.212297 78.775126,83.024034 0 0 0 -2.52527,-3.085582 78.775126,83.024034 0 0 0 -2.66634,-2.951661 78.775126,83.024034 0 0 0 -2.80015,-2.809334 78.775126,83.024034 0 0 0 -2.92784,-2.662199 78.775126,83.024034 0 0 0 -3.04772,-2.50666 78.775126,83.024034 0 0 0 -3.16146,-2.346316 78.775126,83.024034 0 0 0 -3.26629,-2.180567 78.775126,83.024034 0 0 0 -3.36443,-2.00821 78.775126,83.024034 0 0 0 -3.45362,-1.832253 78.775126,83.024034 0 0 0 -3.53505,-1.651488 78.775126,83.024034 0 0 0 -3.60697,-1.466523 78.775126,83.024034 0 0 0 -3.67164,-1.278553 78.775126,83.024034 0 0 0 -3.7263,-1.086379 78.775126,83.024034 0 0 0 -3.77257,-0.893005 78.775126,83.024034 0 0 0 -3.80937,-0.696628 78.775126,83.024034 0 0 0 -3.83724,-0.49905 78.775126,83.024034 0 0 0 -3.85621,-0.299671 78.775126,83.024034 0 0 0 -0.52301,-0.01381 z"
       style="fill:#396687;fill-opacity:1;stroke:#ffffff;stroke-width:0"
       id="path30"
       inkscape:label="outer quarter 2" /><path
       d="m 84.635093,129.95067 a 51.42174,69.765603 0 0 1 0.03568,-0.61915 51.42174,69.765603 0 0 1 1.883497,-10.64521 51.42174,69.765603 0 0 1 3.087864,-10.11431 51.42174,69.765603 0 0 1 4.216401,-9.33422 51.42174,69.765603 0 0 1 5.240114,-8.324104 51.42174,69.765603 0 0 1 6.135591,-7.10981 51.42174,69.765603 0 0 1 6.87994,-5.720159 51.42174,69.765603 0 0 1 7.45481,-4.189378 51.42174,69.765603 0 0 1 7.84624,-2.555904 51.42174,69.765603 0 0 1 2.4182,-0.258232 V 57.644878 a 78.775126,83.024034 0 0 0 -5.58524,0.42158 78.775126,83.024034 0 0 0 -10.98261,2.517471 78.775126,83.024034 0 0 0 -10.53097,4.140132 78.775126,83.024034 0 0 0 -9.864661,5.676918 78.775126,83.024034 0 0 0 -8.997626,7.099001 78.775126,83.024034 0 0 0 -7.94771,8.375752 78.775126,83.024034 0 0 0 -6.735535,9.483152 78.775126,83.024034 0 0 0 -5.386199,10.396576 78.775126,83.024034 0 0 0 -3.928133,11.0992 78.775126,83.024034 0 0 0 -2.388663,11.57484 78.775126,83.024034 0 0 0 -0.10315,1.52117 z"
       style="display:inline;fill:#396687;fill-opacity:1;stroke:#ffffff;stroke-width:0"
       id="path27"
       inkscape:label="outer quarter 1" /><path
       d="M 109.75209,133.40659 H 77.35805 a 58.586299,69.58086 0 0 0 0.366547,5.52411 58.586299,69.58086 0 0 0 2.145924,10.61702 58.586299,69.58086 0 0 0 3.518093,10.08753 58.586299,69.58086 0 0 0 4.803871,9.30951 58.586299,69.58086 0 0 0 5.970216,8.30205 58.586299,69.58086 0 0 0 6.990439,7.09098 58.586299,69.58086 0 0 0 7.83853,5.70501 58.586299,69.58086 0 0 0 8.49349,4.17829 58.586299,69.58086 0 0 0 8.93943,2.54914 58.586299,69.58086 0 0 0 2.75515,0.25755 v -2.28619 a 25.996411,69.039423 0 0 1 -1.62373,-1.03498 25.996411,69.039423 0 0 1 -3.7684,-4.14596 25.996411,69.039423 0 0 1 -3.47807,-5.66067 25.996411,69.039423 0 0 1 -3.102,-7.03588 25.996411,69.039423 0 0 1 -2.64968,-8.23799 25.996411,69.039423 0 0 1 -2.13131,-9.23702 25.996411,69.039423 0 0 1 -1.56084,-10.00847 25.996411,69.039423 0 0 1 -0.95226,-10.53436 25.996411,69.039423 0 0 1 -0.16136,-5.43967 z"
       style="display:inline;fill:#057da0;fill-opacity:1;stroke:#3c3c3c;stroke-width:5.59034;stroke-dasharray:none;stroke-opacity:1"
       id="path35"
       inkscape:label="middle quarter 4" /><path
       d="m 138.09338,196.28927 v 0.98171 a 58.586299,69.58086 0 0 0 5.35719,-0.50075 58.586299,69.58086 0 0 0 8.93944,-2.54914 58.586299,69.58086 0 0 0 8.49347,-4.17829 58.586299,69.58086 0 0 0 7.83854,-5.70501 58.586299,69.58086 0 0 0 6.99046,-7.09098 58.586299,69.58086 0 0 0 5.9702,-8.30205 58.586299,69.58086 0 0 0 4.80387,-9.30951 58.586299,69.58086 0 0 0 3.5181,-10.08753 58.586299,69.58086 0 0 0 2.14594,-10.61702 58.586299,69.58086 0 0 0 0.3659,-5.52411 H 160.1231 a 25.996411,69.039423 0 0 1 -0.16137,5.43967 25.996411,69.039423 0 0 1 -0.95226,10.53436 25.996411,69.039423 0 0 1 -1.56084,10.00847 25.996411,69.039423 0 0 1 -2.13133,9.23702 25.996411,69.039423 0 0 1 -2.64966,8.23799 25.996411,69.039423 0 0 1 -3.10201,7.03588 25.996411,69.039423 0 0 1 -3.47808,5.66067 25.996411,69.039423 0 0 1 -3.76838,4.14596 25.996411,69.039423 0 0 1 -3.9666,2.52876 25.996411,69.039423 0 0 1 -0.25919,0.0539 z"
       style="display:inline;fill:#057da0;fill-opacity:1;stroke:#3c3c3c;stroke-width:5.59034;stroke-dasharray:none;stroke-opacity:1"
       id="path32"
       inkscape:label="middle quarter 3" /><path
       d="m 192.16914,133.66367 a 58.540145,70.711706 0 0 0 -0.1136,-1.00556 58.540145,70.711706 0 0 0 -0.59793,-3.76106 58.540145,70.711706 0 0 0 -0.7649,-3.71663 58.540145,70.711706 0 0 0 -0.93056,-3.66124 58.540145,70.711706 0 0 0 -1.09371,-3.59429 58.540145,70.711706 0 0 0 -1.25238,-3.51821 58.540145,70.711706 0 0 0 -1.40855,-3.43116 58.540145,70.711706 0 0 0 -1.56088,-3.33376 58.540145,70.711706 0 0 0 -1.70752,-3.22666 58.540145,70.711706 0 0 0 -1.84971,-3.11036 58.540145,70.711706 0 0 0 -1.98618,-2.985007 58.540145,70.711706 0 0 0 -2.11691,-2.850473 58.540145,70.711706 0 0 0 -2.24201,-2.708042 58.540145,70.711706 0 0 0 -2.36005,-2.557088 58.540145,70.711706 0 0 0 -2.47113,-2.399437 58.540145,70.711706 0 0 0 -2.57461,-2.234485 58.540145,70.711706 0 0 0 -2.67171,-2.062228 58.540145,70.711706 0 0 0 -2.75996,-1.885099 58.540145,70.711706 0 0 0 -2.83992,-1.701276 58.540145,70.711706 0 0 0 -2.91294,-1.513191 58.540145,70.711706 0 0 0 -2.97577,-1.320848 58.540145,70.711706 0 0 0 -3.031,-1.124241 58.540145,70.711706 0 0 0 -3.07669,-0.923988 58.540145,70.711706 0 0 0 -3.11354,-0.721899 58.540145,70.711706 0 0 0 -3.14143,-0.516775 58.540145,70.711706 0 0 0 -2.52447,-0.248344 V 74.7143 a 25.975928,70.161472 0 0 1 0.39738,0.146085 25.975928,70.161472 0 0 1 1.38188,0.716423 25.975928,70.161472 0 0 1 1.36536,0.91668 25.975928,70.161472 0 0 1 1.34508,1.115721 25.975928,70.161472 0 0 1 1.32032,1.309891 25.975928,70.161472 0 0 1 1.29235,1.501628 25.975928,70.161472 0 0 1 1.26003,1.688493 25.975928,70.161472 0 0 1 1.2251,1.869882 25.975928,70.161472 0 0 1 1.18509,2.047008 25.975928,70.161472 0 0 1 1.14259,2.216834 25.975928,70.161472 0 0 1 1.09622,2.38057 25.975928,70.161472 0 0 1 1.04736,2.53761 25.975928,70.161472 0 0 1 0.99467,2.686738 25.975928,70.161472 0 0 1 0.93946,2.828559 25.975928,70.161472 0 0 1 0.88168,2.961258 25.975928,70.161472 0 0 1 0.82076,3.08664 25.975928,70.161472 0 0 1 0.75726,3.20168 25.975928,70.161472 0 0 1 0.69253,3.30761 25.975928,70.161472 0 0 1 0.62524,3.40437 25.975928,70.161472 0 0 1 0.55606,3.49021 25.975928,70.161472 0 0 1 0.48497,3.5669 25.975928,70.161472 0 0 1 0.41322,3.63263 25.975928,70.161472 0 0 1 0.33896,3.6874 25.975928,70.161472 0 0 1 0.26533,3.73187 25.975928,70.161472 0 0 1 0.0462,0.91668 z"
       style="display:inline;fill:#057da0;fill-opacity:1;stroke:#3c3c3c;stroke-width:5.5993;stroke-dasharray:none;stroke-opacity:1"
       id="path29"
       inkscape:label="middle quarter 2" /><path
       d="m 129.18524,75.702831 v -2.323353 a 58.540145,70.711706 0 0 0 -2.75296,0.261735 58.540145,70.711706 0 0 0 -8.93241,2.590566 58.540145,70.711706 0 0 0 -8.4868,4.246191 58.540145,70.711706 0 0 0 -7.83235,5.797729 58.540145,70.711706 0 0 0 -6.984937,7.206227 58.540145,70.711706 0 0 0 -5.965515,8.436994 58.540145,70.711706 0 0 0 -4.800085,9.46079 58.540145,70.711706 0 0 0 -3.515323,10.25148 58.540145,70.711706 0 0 0 -2.144234,10.78956 58.540145,70.711706 0 0 0 -0.04063,0.62756 h 32.188244 a 25.975928,70.161472 0 0 1 0.016,-0.54174 25.975928,70.161472 0 0 1 0.95151,-10.70555 25.975928,70.161472 0 0 1 1.55961,-10.17113 25.975928,70.161472 0 0 1 2.12963,-9.38714 25.975928,70.161472 0 0 1 2.64761,-8.371873 25.975928,70.161472 0 0 1 3.09954,-7.150229 25.975928,70.161472 0 0 1 3.47533,-5.752687 25.975928,70.161472 0 0 1 3.76542,-4.213321 25.975928,70.161472 0 0 1 1.62245,-1.051809 z"
       style="display:inline;fill:#057da0;fill-opacity:1;stroke:#3c3c3c;stroke-width:5.5993;stroke-dasharray:none;stroke-opacity:1"
       id="path26"
       inkscape:label="middler quarter 1" /><path
       d="m 136.79923,193.88558 a 26.133993,62.40987 0 0 0 0.26055,-0.0488 26.133993,62.40987 0 0 0 3.98761,-2.28594 26.133993,62.40987 0 0 0 3.78832,-3.74782 26.133993,62.40987 0 0 0 3.49648,-5.11712 26.133993,62.40987 0 0 0 3.11842,-6.36025 26.133993,62.40987 0 0 0 2.66369,-7.44693 26.133993,62.40987 0 0 0 2.14261,-8.35003 26.133993,62.40987 0 0 0 1.56911,-9.0474 26.133993,62.40987 0 0 0 0.95729,-9.52278 26.133993,62.40987 0 0 0 0.16222,-4.91733 h -22.1463 z"
       style="display:inline;fill:#057da0;fill-opacity:1;stroke:#3c3c3c;stroke-width:0;stroke-dasharray:none;stroke-opacity:1"
       id="path33"
       inkscape:label="inner quarter 3" /><path
       d="m 158.7923,130.17619 a 26.118162,63.209437 0 0 0 -0.0466,-0.82585 26.118162,63.209437 0 0 0 -0.26679,-3.36209 26.118162,63.209437 0 0 0 -0.34081,-3.32203 26.118162,63.209437 0 0 0 -0.41548,-3.27268 26.118162,63.209437 0 0 0 -0.48762,-3.21348 26.118162,63.209437 0 0 0 -0.55911,-3.14438 26.118162,63.209437 0 0 0 -0.62866,-3.06704 26.118162,63.209437 0 0 0 -0.69632,-2.97986 26.118162,63.209437 0 0 0 -0.76142,-2.88445 26.118162,63.209437 0 0 0 -0.82525,-2.78081 26.118162,63.209437 0 0 0 -0.88652,-2.667826 26.118162,63.209437 0 0 0 -0.94458,-2.548289 26.118162,63.209437 0 0 0 -1.00012,-2.420519 26.118162,63.209437 0 0 0 -1.05309,-2.286169 26.118162,63.209437 0 0 0 -1.10225,-2.144687 26.118162,63.209437 0 0 0 -1.14883,-1.997175 26.118162,63.209437 0 0 0 -1.1916,-1.844179 26.118162,63.209437 0 0 0 -1.23179,-1.684602 26.118162,63.209437 0 0 0 -1.26691,-1.521187 26.118162,63.209437 0 0 0 -1.29946,-1.352838 26.118162,63.209437 0 0 0 -1.32752,-1.180099 26.118162,63.209437 0 0 0 -1.35246,-1.005169 26.118162,63.209437 0 0 0 -1.37284,-0.825849 26.118162,63.209437 0 0 0 -1.38945,-0.645435 26.118162,63.209437 0 0 0 -0.39954,-0.13161 v 53.108303 z"
       style="display:inline;fill:#057da0;fill-opacity:1;stroke:#3c3c3c;stroke-width:0;stroke-dasharray:none;stroke-opacity:1"
       id="path28"
       inkscape:label="inner quarter 2" /><path
       d="m 131.68257,193.6481 a 24.529347,62.40987 0 0 1 -0.24457,-0.0488 24.529347,62.40987 0 0 1 -3.74275,-2.28594 24.529347,62.40987 0 0 1 -3.55573,-3.74783 24.529347,62.40987 0 0 1 -3.28179,-5.11712 24.529347,62.40987 0 0 1 -2.92694,-6.36025 24.529347,62.40987 0 0 1 -2.50014,-7.44692 24.529347,62.40987 0 0 1 -2.01105,-8.35004 24.529347,62.40987 0 0 1 -1.47276,-9.0474 24.529347,62.40987 0 0 1 -0.89852,-9.52278 24.529347,62.40987 0 0 1 -0.15227,-4.91733 h 20.78652 z"
       style="display:inline;fill:#057da0;fill-opacity:1;stroke:#3c3c3c;stroke-width:0;stroke-dasharray:none;stroke-opacity:1"
       id="path33-7"
       inkscape:label="inner quarter 3" /><path
       d="m 111.03989,129.93871 a 24.514488,63.209437 0 0 1 0.0437,-0.82584 24.514488,63.209437 0 0 1 0.25042,-3.36209 24.514488,63.209437 0 0 1 0.31988,-3.32204 24.514488,63.209437 0 0 1 0.38998,-3.27268 24.514488,63.209437 0 0 1 0.45768,-3.21348 24.514488,63.209437 0 0 1 0.52477,-3.14438 24.514488,63.209437 0 0 1 0.59006,-3.06704 24.514488,63.209437 0 0 1 0.65357,-2.97986 24.514488,63.209437 0 0 1 0.71466,-2.88445 24.514488,63.209437 0 0 1 0.77457,-2.7808 24.514488,63.209437 0 0 1 0.83209,-2.667837 24.514488,63.209437 0 0 1 0.88659,-2.548283 24.514488,63.209437 0 0 1 0.93872,-2.420519 24.514488,63.209437 0 0 1 0.98843,-2.286177 24.514488,63.209437 0 0 1 1.03457,-2.144687 24.514488,63.209437 0 0 1 1.07828,-1.997168 24.514488,63.209437 0 0 1 1.11844,-1.844186 24.514488,63.209437 0 0 1 1.15617,-1.684594 24.514488,63.209437 0 0 1 1.18911,-1.521192 24.514488,63.209437 0 0 1 1.21966,-1.352833 24.514488,63.209437 0 0 1 1.24603,-1.180105 24.514488,63.209437 0 0 1 1.26941,-1.005167 24.514488,63.209437 0 0 1 1.28855,-0.825851 24.514488,63.209437 0 0 1 1.30413,-0.645431 24.514488,63.209437 0 0 1 0.37501,-0.131616 v 53.108306 z"
       style="display:inline;fill:#057da0;fill-opacity:1;stroke:#3c3c3c;stroke-width:0;stroke-dasharray:none;stroke-opacity:1"
       id="path28-5"
       inkscape:label="inner quarter 2" /></g><text
     xml:space="preserve"
     style="font-style:normal;font-variant:normal;font-weight:normal;font-stretch:normal;font-size:64.3412px;font-family:Candara;-inkscape-font-specification:'Candara, Normal';font-variant-ligatures:normal;font-variant-caps:normal;font-variant-numeric:normal;font-variant-east-asian:normal;text-align:center;text-anchor:middle;fill:#ffffff;fill-opacity:1;stroke:#ffffff;stroke-width:5.30524;stroke-linecap:round;stroke-dasharray:none;stroke-opacity:1"
     x="244.86264"
     y="118.85076"
     id="text2"
     inkscape:label="Text"><tspan
       sodipodi:role="line"
       id="tspan2"
       style="font-style:normal;font-variant:normal;font-weight:normal;font-stretch:normal;font-size:64.3412035px;font-family:Candara;-inkscape-font-specification:'Candara, Normal';font-variant-ligatures:normal;font-variant-caps:normal;font-variant-numeric:normal;font-variant-east-asian:normal;text-align:center;text-anchor:middle;fill:#ffffff;fill-opacity:1;stroke:#ffffff;stroke-width:5.30524;stroke-dasharray:none;stroke-opacity:1"
       x="244.86264"
       y="118.85076">EOMasters</tspan><tspan
       sodipodi:role="line"
       style="font-style:normal;font-variant:normal;font-weight:normal;font-stretch:normal;font-size:64.3412035px;font-family:Candara;-inkscape-font-specification:'Candara, Normal';font-variant-ligatures:normal;font-variant-caps:normal;font-variant-numeric:normal;font-variant-east-asian:normal;text-align:center;text-anchor:middle;fill:#ffffff;fill-opacity:1;stroke:#ffffff;stroke-width:5.30524;stroke-dasharray:none;stroke-opacity:1"
       x="244.86264"
       y="199.27724"
       id="tspan3">Toolbox</tspan></text></svg>
